<?xml version="1.0" encoding="UTF-8" standalone="no"?><!DOCTYPE svg PUBLIC "-//W3C//DTD SVG 1.1//EN" "http://www.w3.org/Graphics/SVG/1.1/DTD/svg11.dtd"><svg width="100%" height="100%" viewBox="0 0 100 100" version="1.1" xmlns="http://www.w3.org/2000/svg" xmlns:xlink="http://www.w3.org/1999/xlink" xml:space="preserve" xmlns:serif="http://www.serif.com/" style="fill-rule:evenodd;clip-rule:evenodd;stroke-linejoin:round;stroke-miterlimit:1.41421;"><clipPath id="_clip1"><rect id="startup--1-" serif:id="startup (1)" x="0" y="0" width="99" height="99"/></clipPath><g clip-path="url(#_clip1)"><path d="M87.052,13.654l6.827,0c2.829,0 5.121,2.294 5.121,5.121l0,59.742c0,2.828 -2.292,5.121 -5.121,5.121l-88.758,0c-2.829,0 -5.121,-2.293 -5.121,-5.121l0,-59.742c0,-2.827 2.292,-5.121 5.121,-5.121l81.931,0Z" style="fill:#a5a5a4;fill-rule:nonzero;"/><path d="M87.052,13.654l6.827,0c2.829,0 5.121,2.294 5.121,5.121l0,59.742c0,2.828 -2.292,5.121 -5.121,5.121l-88.758,0c-2.829,0 -5.121,-2.293 -5.121,-5.121l0,-59.742c0,-2.827 2.292,-5.121 5.121,-5.121l81.931,0Z" style="fill:#6db8ff;fill-rule:nonzero;"/><path d="M27.311,92.172l44.379,0c2.827,0 5.121,2.292 5.121,5.12c0,0.944 -0.765,1.707 -1.707,1.707l-51.207,0c-0.943,0 -1.707,-0.763 -1.707,-1.707c0,-2.828 2.293,-5.12 5.121,-5.12Z" style="fill:#e3eaff;fill-rule:nonzero;"/><path d="M68.276,92.172l-37.551,0l3.413,-8.534l30.724,0l3.414,8.534Z" style="fill:#c8d6f2;fill-rule:nonzero;"/><path d="M80.225,20.483l8.534,0c1.883,0.005 3.408,1.53 3.414,3.413l0,42.673c-0.006,1.882 -1.531,3.407 -3.414,3.414l-78.518,0c-1.883,-0.007 -3.408,-1.532 -3.414,-3.414l0,-42.673c0.006,-1.883 1.531,-3.408 3.414,-3.413l69.984,0Z" style="fill:#2f6dff;fill-rule:nonzero;"/><path d="M92.173,63.155l0,3.414c-0.006,1.882 -1.531,3.407 -3.414,3.414l-78.518,0c-1.883,-0.007 -3.408,-1.532 -3.414,-3.414l0,-3.414l8.535,0c0,-2.828 2.293,-5.121 5.121,-5.121c0.632,-0.005 1.259,0.117 1.843,0.358c0.431,-2.156 1.876,-3.973 3.881,-4.877c2.005,-0.904 4.323,-0.785 6.224,0.32l6.828,-5.769l6.588,-2.202l2.125,4.267c0.289,0.579 0.881,0.945 1.528,0.945c0.647,0 1.239,-0.366 1.528,-0.945l2.125,-4.267l6.588,2.202l6.828,5.769c1.901,-1.105 4.219,-1.224 6.224,-0.32c2.005,0.904 3.45,2.721 3.881,4.877c0.584,-0.241 1.211,-0.363 1.844,-0.358c2.827,0 5.12,2.293 5.12,5.121l8.535,0Z" style="fill:#fff;fill-rule:nonzero;"/><path d="M39.259,63.155c-0.943,0 -1.707,-0.765 -1.707,-1.707l0,-13.382c0,-0.943 0.764,-1.707 1.707,-1.707c0.942,0 1.707,0.764 1.707,1.707l0,13.382c0,0.942 -0.765,1.707 -1.707,1.707Z" style="fill:#ffc240;fill-rule:nonzero;"/><path d="M59.741,63.155c-0.942,0 -1.707,-0.765 -1.707,-1.707l0,-13.382c0,-0.943 0.765,-1.707 1.707,-1.707c0.943,0 1.707,0.764 1.707,1.707l0,13.382c0,0.942 -0.764,1.707 -1.707,1.707Z" style="fill:#d25627;fill-rule:nonzero;"/><path d="M59.741,63.155c-0.942,0 -1.707,-0.765 -1.707,-1.707l0,-13.382c0,-0.943 0.765,-1.707 1.707,-1.707c0.943,0 1.707,0.764 1.707,1.707l0,13.382c0,0.942 -0.764,1.707 -1.707,1.707Z" style="fill:#ffc240;fill-rule:nonzero;"/><g><path d="M59.997,39.651l5.633,2.821c0.577,0.29 0.942,0.881 0.942,1.526l0,6.618c0,0.684 -0.408,1.303 -1.038,1.571c-0.629,0.268 -1.358,0.133 -1.852,-0.34l-3.941,-3.781l-6.588,-2.202l-7.306,0l-6.588,2.202l-3.938,3.781c-0.494,0.473 -1.223,0.608 -1.852,0.34c-0.63,-0.268 -1.038,-0.887 -1.038,-1.571l0,-6.618c0,-0.645 0.365,-1.236 0.942,-1.526l5.633,-2.821l20.991,0Z" style="fill:#285680;fill-rule:nonzero;"/><path d="M59.997,39.651l5.633,2.821c0.577,0.29 0.942,0.881 0.942,1.526l0,6.618c0,0.684 -0.408,1.303 -1.038,1.571c-0.629,0.268 -1.358,0.133 -1.852,-0.34l-3.941,-3.781l-6.588,-2.202l-7.306,0l-6.588,2.202l-3.938,3.781c-0.494,0.473 -1.223,0.608 -1.852,0.34c-0.63,-0.268 -1.038,-0.887 -1.038,-1.571l0,-6.618c0,-0.645 0.365,-1.236 0.942,-1.526l5.633,-2.821l20.991,0Z" style="fill:#285680;fill-rule:nonzero;"/><path d="M59.997,39.651l5.633,2.821c0.577,0.29 0.942,0.881 0.942,1.526l0,6.618c0,0.684 -0.408,1.303 -1.038,1.571c-0.629,0.268 -1.358,0.133 -1.852,-0.34l-3.941,-3.781l-6.588,-2.202l-7.306,0l-6.588,2.202l-3.938,3.781c-0.494,0.473 -1.223,0.608 -1.852,0.34c-0.63,-0.268 -1.038,-0.887 -1.038,-1.571l0,-6.618c0,-0.645 0.365,-1.236 0.942,-1.526l5.633,-2.821l20.991,0Z" style="fill:#285de0;fill-rule:nonzero;"/><path d="M44.823,43.833l1.024,2.031l2.125,4.267c0.289,0.579 0.881,0.945 1.528,0.945c0.647,0 1.239,-0.366 1.528,-0.945l2.125,-4.267l1.024,-2.031l-9.354,0Z" style="fill:#544db8;fill-rule:nonzero;"/><path d="M34.838,30.69l-9.917,2.703c-0.577,0.158 -1.195,0.002 -1.629,-0.411c-0.433,-0.412 -0.618,-1.023 -0.488,-1.606l2.6,-11.698c0.125,-0.563 0.527,-1.024 1.067,-1.227l9.783,-3.67l-1.416,15.909Z" style="fill:#285680;fill-rule:nonzero;"/><path d="M34.838,30.69l-9.917,2.703c-0.577,0.158 -1.195,0.002 -1.629,-0.411c-0.433,-0.412 -0.618,-1.023 -0.488,-1.606l2.6,-11.698c0.125,-0.563 0.527,-1.024 1.067,-1.227l9.783,-3.67l-1.416,15.909Z" style="fill:#285de0;fill-rule:nonzero;"/><path d="M62.746,14.781l9.785,3.67c0.54,0.203 0.942,0.664 1.067,1.227l2.6,11.698c0.13,0.583 -0.056,1.194 -0.489,1.606c-0.433,0.413 -1.05,0.569 -1.628,0.411l-9.919,-2.703l-1.416,-15.909Z" style="fill:#285680;fill-rule:nonzero;"/><path d="M62.746,14.781l9.785,3.67c0.54,0.203 0.942,0.664 1.067,1.227l2.6,11.698c0.13,0.583 -0.056,1.194 -0.489,1.606c-0.433,0.413 -1.05,0.569 -1.628,0.411l-9.919,-2.703l-1.416,-15.909Z" style="fill:#285680;fill-rule:nonzero;"/><path d="M62.746,14.781l9.785,3.67c0.54,0.203 0.942,0.664 1.067,1.227l2.6,11.698c0.13,0.583 -0.056,1.194 -0.489,1.606c-0.433,0.413 -1.05,0.569 -1.628,0.411l-9.919,-2.703l-1.416,-15.909Z" style="fill:#285de0;fill-rule:nonzero;"/></g><path d="M64.862,23.896c0,13.198 -6.877,20.756 -15.362,20.756c-8.485,0 -15.362,-7.558 -15.362,-20.756c0,-9.181 7.435,-18.605 11.96,-22.603c1.94,-1.724 4.864,-1.724 6.804,0c4.525,3.998 11.96,13.422 11.96,22.603Z" style="fill:#4482c3;fill-rule:nonzero;"/><path d="M64.862,23.896c0,13.198 -6.877,20.756 -15.362,20.756c-8.485,0 -15.362,-7.558 -15.362,-20.756c0,-9.181 7.435,-18.605 11.96,-22.603c1.94,-1.724 4.864,-1.724 6.804,0c4.525,3.998 11.96,13.422 11.96,22.603Z" style="fill:#6db8ff;fill-rule:nonzero;"/><path d="M64.862,23.896c0,13.198 -6.877,20.756 -15.362,20.756c-8.485,0 -15.362,-7.558 -15.362,-20.756c0,-9.181 7.435,-18.605 11.96,-22.603c1.94,-1.724 4.864,-1.724 6.804,0c4.525,3.998 11.96,13.422 11.96,22.603Z" style="fill:#6db8ff;fill-rule:nonzero;"/><path d="M58.034,78.517l-17.068,0c-0.943,0 -1.707,-0.765 -1.707,-1.707c0,-0.943 0.764,-1.707 1.707,-1.707l17.068,0c0.943,0 1.707,0.764 1.707,1.707c0,0.942 -0.764,1.707 -1.707,1.707Z" style="fill:#285de0;fill-rule:nonzero;"/><path d="M56.327,23.896c0,3.771 -3.056,6.828 -6.827,6.828c-3.771,0 -6.827,-3.057 -6.827,-6.828c0,-3.771 3.056,-6.828 6.827,-6.828c3.771,0 6.827,3.057 6.827,6.828Z" style="fill:#fff;fill-rule:nonzero;"/><path d="M57.796,6.623c-2.566,1.309 -5.416,1.966 -8.296,1.911c-2.88,0.055 -5.73,-0.602 -8.296,-1.911c1.463,-1.925 3.104,-3.708 4.899,-5.326c1.937,-1.724 4.857,-1.724 6.794,0c1.795,1.618 3.436,3.401 4.899,5.326Z" style="fill:#ffc240;fill-rule:nonzero;"/></g></svg>