<?xml version="1.0" encoding="UTF-8" standalone="no"?><!DOCTYPE svg PUBLIC "-//W3C//DTD SVG 1.1//EN" "http://www.w3.org/Graphics/SVG/1.1/DTD/svg11.dtd"><svg width="100%" height="100%" viewBox="0 0 122 122" version="1.1" xmlns="http://www.w3.org/2000/svg" xmlns:xlink="http://www.w3.org/1999/xlink" xml:space="preserve" xmlns:serif="http://www.serif.com/" style="fill-rule:evenodd;clip-rule:evenodd;stroke-linejoin:round;stroke-miterlimit:1.41421;"><path d="M78.65,7.3l0,55.217l-76.633,0l0,-55.217c-0.003,-1.402 0.553,-2.747 1.545,-3.738c0.991,-0.992 2.336,-1.548 3.738,-1.545l66.066,0c1.402,-0.003 2.747,0.553 3.739,1.545c0.991,0.991 1.547,2.336 1.545,3.738Z" style="fill:#a4c2f7;fill-rule:nonzero;"/><path d="M72.6,7.3l0,55.217l-70.583,0l0,-55.217c-0.003,-1.402 0.553,-2.747 1.545,-3.738c0.991,-0.992 2.336,-1.548 3.738,-1.545l60.017,0c1.401,-0.003 2.747,0.553 3.737,1.545c0.992,0.991 1.549,2.336 1.546,3.738Z" style="fill:#e3e7f2;fill-rule:nonzero;"/><rect x="30.25" y="66.55" width="22.183" height="12.1" style="fill:#a4c2f7;fill-rule:nonzero;"/><rect x="30.25" y="66.55" width="14.117" height="12.1" style="fill:#e3e7f2;fill-rule:nonzero;"/><path d="M78.65,60.5l0,2.017c0,3.341 -2.708,6.05 -6.05,6.05l-65.3,0c-1.402,0.001 -2.747,-0.554 -3.738,-1.546c-0.992,-0.991 -1.548,-2.336 -1.545,-3.738l0,-2.783l76.633,0Z" style="fill:#a4c2f7;fill-rule:nonzero;"/><path d="M56.467,60.5l0,8.067l-49.167,0c-1.402,0.001 -2.747,-0.554 -3.738,-1.546c-0.992,-0.991 -1.548,-2.336 -1.545,-3.738l0,-2.783l54.45,0Z" style="fill:#e3e7f2;fill-rule:nonzero;"/><path d="M64.533,76.633l0,8.067l-45.375,0c-0.556,0 -1.008,-0.452 -1.008,-1.008l0,-2.461c-0.001,-1.219 0.484,-2.389 1.346,-3.252c0.862,-0.862 2.032,-1.346 3.252,-1.346l41.785,0Z" style="fill:#a4c2f7;fill-rule:nonzero;"/><path d="M56.467,76.633l0,8.067l-37.309,0c-0.556,0 -1.008,-0.452 -1.008,-1.008l0,-2.461c-0.001,-1.219 0.484,-2.389 1.346,-3.252c0.862,-0.862 2.032,-1.346 3.252,-1.346l33.719,0Z" style="fill:#e3e7f2;fill-rule:nonzero;"/><path d="M66.55,14.117l0,4.033l-52.433,0l0,-4.033c0.006,-2.225 1.808,-4.027 4.033,-4.033l44.367,0c2.225,0.006 4.026,1.808 4.033,4.033Z" style="fill:#a4c2f7;fill-rule:nonzero;"/><path d="M60.5,14.117l0,4.033l-46.383,0l0,-4.033c0.006,-2.225 1.808,-4.027 4.033,-4.033l38.317,0c2.225,0.006 4.027,1.808 4.033,4.033Z" style="fill:#e3e7f2;fill-rule:nonzero;"/><rect x="14.117" y="18.15" width="52.433" height="42.35" style="fill:#a4c2f7;fill-rule:nonzero;"/><rect x="14.117" y="18.15" width="46.383" height="42.35" style="fill:#e3e7f2;fill-rule:nonzero;"/><path d="M58.483,28.233l0,16.134l-34.283,0c-1.114,0 -2.017,-0.903 -2.017,-2.017l0,-14.117c0,-1.113 0.903,-2.016 2.017,-2.016l32.267,0c1.113,0 2.016,0.903 2.016,2.016Z" style="fill:#a4c2f7;fill-rule:nonzero;"/><path d="M52.433,28.233l0,16.134l-28.233,0c-1.114,0 -2.017,-0.903 -2.017,-2.017l0,-14.117c0,-1.113 0.903,-2.016 2.017,-2.016l26.216,0c1.115,0 2.017,0.903 2.017,2.016Z" style="fill:#e3e7f2;fill-rule:nonzero;"/><path d="M42.35,44.367l-18.15,0c-0.5,-0.002 -0.982,-0.188 -1.351,-0.524l9.418,-9.56l10.083,10.084Z" style="fill:#e3e7f2;fill-rule:nonzero;"/><path d="M52.433,44.367l-10.083,0l-4.961,-4.961l4.961,-5.123l10.083,10.084Z" style="fill:#e3e7f2;fill-rule:nonzero;"/><path d="M118.983,46.383l0,44.367c0,7.488 -2.974,14.669 -8.269,19.964c-5.295,5.295 -12.476,8.269 -19.964,8.269c-1.011,-0.002 -2.02,-0.055 -3.025,-0.161c-14.34,-1.545 -25.209,-13.649 -25.208,-28.072l0,-44.367c0,-6.683 5.417,-12.1 12.1,-12.1l32.266,0c6.683,0 12.1,5.417 12.1,12.1Z" style="fill:#a4c2f7;fill-rule:nonzero;"/><path d="M112.933,46.383l0,44.367c0.001,14.423 -10.869,26.527 -25.208,28.072c-14.34,-1.545 -25.209,-13.649 -25.208,-28.072l0,-44.367c0,-6.683 5.417,-12.1 12.1,-12.1l26.217,0c6.682,0 12.099,5.417 12.099,12.1Z" style="fill:#e3e7f2;fill-rule:nonzero;"/><path d="M90.75,34.283l0,28.234l-28.233,0l0,-16.134c0,-6.683 5.417,-12.1 12.1,-12.1l16.133,0Z" style="fill:#e3e7f2;fill-rule:nonzero;"/><path d="M84.7,34.283l0,28.234l-22.183,0l0,-16.134c0,-6.683 5.417,-12.1 12.1,-12.1l10.083,0Z" style="fill:#e3e7f2;fill-rule:nonzero;"/><path d="M118.983,46.383l0,16.134l-28.233,0l0,-28.234l16.133,0c6.683,0 12.1,5.417 12.1,12.1Z" style="fill:#a4c2f7;fill-rule:nonzero;"/><path d="M112.933,46.383l0,16.134l-22.183,0l0,-28.234l10.084,0c6.682,0 12.099,5.417 12.099,12.1Z" style="fill:#e3e7f2;fill-rule:nonzero;"/><path d="M90.75,54.45c2.228,0 4.033,1.805 4.033,4.033l0,8.067c0,2.228 -1.805,4.034 -4.033,4.034c-2.228,0 -4.033,-1.806 -4.033,-4.034l0,-8.067c0,-2.228 1.805,-4.033 4.033,-4.033Z" style="fill:#e3e7f2;fill-rule:nonzero;"/><path d="M7.3,68.567l6.051,0c-1.403,0.001 -2.748,-0.554 -3.739,-1.546c-0.992,-0.991 -1.547,-2.336 -1.545,-3.738l0,-55.983c-0.002,-1.402 0.553,-2.747 1.545,-3.738c0.991,-0.992 2.336,-1.548 3.739,-1.545l-6.051,0c-1.402,-0.003 -2.747,0.553 -3.738,1.545c-0.992,0.991 -1.548,2.336 -1.545,3.738l0,55.983c-0.003,1.402 0.553,2.747 1.545,3.738c0.991,0.992 2.336,1.547 3.738,1.546Z" style="fill:#fff;fill-rule:nonzero;"/><rect x="0" y="7.294" width="4.033" height="55.985" style="fill:#fff;fill-rule:nonzero;"/><g><path d="M21.417,50.57c-0.244,0.102 -0.47,0.246 -0.665,0.425c-0.78,0.796 -0.78,2.069 0,2.864c0.196,0.177 0.422,0.32 0.665,0.424c0.238,0.115 0.502,0.172 0.766,0.167c0.819,0.005 1.561,-0.487 1.874,-1.243c0.314,-0.757 0.14,-1.628 -0.442,-2.205c-0.578,-0.575 -1.445,-0.746 -2.198,-0.432Z" style="fill:#428dff;fill-rule:nonzero;"/><path d="M1.25,49.005c0.114,0.059 0.237,0.099 0.364,0.119c0.133,0.024 0.267,0.038 0.403,0.042c0.534,-0.007 1.045,-0.217 1.432,-0.587c0.76,-0.802 0.76,-2.058 0,-2.861c-0.193,-0.182 -0.419,-0.326 -0.666,-0.423c-0.242,-0.104 -0.503,-0.159 -0.766,-0.162c-0.534,0.008 -1.046,0.217 -1.432,0.585c-0.78,0.794 -0.78,2.067 0,2.861l0.302,0.245c0.113,0.076 0.235,0.137 0.363,0.181Z" style="fill:#428dff;fill-rule:nonzero;"/><path d="M60.5,36.3l0,-8.067c0,-2.228 -1.806,-4.033 -4.033,-4.033l-32.267,0c-2.228,0 -4.034,1.805 -4.034,4.033l0,14.117c0.002,1.1 0.455,2.152 1.253,2.908l0.014,0.02c0.015,0.014 0.037,0.019 0.051,0.032c0.738,0.687 1.708,1.07 2.716,1.073l30.25,0c1.114,0 2.017,-0.903 2.017,-2.016c0,-1.114 -0.903,-2.017 -2.017,-2.017l-1.182,0l-9.492,-9.492c-0.382,-0.383 -0.902,-0.596 -1.443,-0.592c-0.541,0.004 -1.057,0.225 -1.433,0.614l-3.535,3.65l-3.673,-3.672c-0.378,-0.379 -0.89,-0.591 -1.425,-0.591c-0.538,0.003 -1.052,0.221 -1.428,0.605l-6.639,6.721l0,-11.36l32.267,0l0,8.067c0,1.114 0.903,2.017 2.016,2.017c1.114,0 2.017,-0.903 2.017,-2.017Zm-18.126,0.857l5.191,5.193l-4.38,0l-2.967,-2.966l2.156,-2.227Zm-10.098,-0.012l5.206,5.205l-10.334,0l5.128,-5.205Z" style="fill:#428dff;fill-rule:nonzero;"/><path d="M54.45,50.416l-24.2,0c-1.113,0 -2.017,0.903 -2.017,2.017c0,1.114 0.904,2.017 2.017,2.017l24.2,0c1.114,0 2.017,-0.903 2.017,-2.017c0,-1.114 -0.903,-2.017 -2.017,-2.017Z" style="fill:#428dff;fill-rule:nonzero;"/><path d="M106.883,32.267l-14.116,0c0,-2.227 1.806,-4.034 4.033,-4.034l5.042,0c3.242,0 6.238,-1.729 7.859,-4.537c1.621,-2.808 1.621,-6.268 0,-9.075c-1.621,-2.808 -4.617,-4.537 -7.859,-4.537l-21.176,0l0,-2.787c-0.011,-4.027 -3.273,-7.288 -7.3,-7.297l-66.066,0c-4.027,0.004 -7.294,3.266 -7.3,7.294l0,31.785c0,1.113 0.903,2.016 2.017,2.016c1.113,0 2.016,-0.903 2.016,-2.016l0,-31.782c0.005,-1.802 1.465,-3.262 3.267,-3.264l66.066,0c1.799,0.01 3.255,1.464 3.267,3.264l0,24.97l-2.016,0c-2.095,0.002 -4.163,0.474 -6.05,1.381l0,-19.531c0,-3.342 -2.709,-6.05 -6.05,-6.05l-44.367,0c-3.342,0 -6.05,2.708 -6.05,6.05l0,44.366l-8.067,0l0,-3.266c0,-1.114 -0.903,-2.017 -2.016,-2.017c-1.114,0 -2.017,0.903 -2.017,2.017l0,8.066c0.005,4.03 3.271,7.296 7.3,7.301l20.933,0l0,4.033l-5.025,0c-3.776,-0.123 -6.94,2.832 -7.075,6.608l0,2.467c0.031,1.697 1.428,3.051 3.126,3.025l41.241,0l0,4.033c0,16.706 13.544,30.25 30.25,30.25c16.706,0 30.25,-13.544 30.25,-30.25l0,-44.367c-0.009,-7.792 -6.324,-14.108 -14.117,-14.116Zm-18.15,26.216c0,-1.113 0.904,-2.016 2.017,-2.016c1.113,0 2.017,0.903 2.017,2.016l0,8.067c0,1.114 -0.904,2.017 -2.017,2.017c-1.113,0 -2.017,-0.903 -2.017,-2.017l0,-8.067Zm-8.067,-44.366l21.176,0c2.784,0 5.041,2.257 5.041,5.041c0,2.785 -2.257,5.042 -5.041,5.042l-5.042,0c-4.455,0 -8.067,3.612 -8.067,8.067l-8.067,0l0,-18.15Zm8.067,22.183l0,16.505c-2.409,0.851 -4.022,3.124 -4.033,5.678l0,2.017l-20.167,0l0,-14.117c0.007,-5.566 4.517,-10.076 10.084,-10.083l14.116,0Zm-28.233,34.284l0,4.7c-0.955,-0.435 -1.991,-0.663 -3.041,-0.667l-5.026,0l0,-4.033l8.067,0Zm-42.35,-58.484l44.367,0c1.113,0 2.016,0.903 2.016,2.017l0,2.016l-48.4,0l0,-2.016c0,-1.114 0.903,-2.017 2.017,-2.017Zm-2.017,8.066l48.4,0l0,16.356c-2.585,2.631 -4.033,6.172 -4.033,9.861l0,12.1l-44.367,0l0,-38.317Zm-12.1,43.111l0,-0.76l56.467,0l0,4.033l-53.2,0c-1.805,-0.002 -3.268,-1.467 -3.267,-3.273Zm28.234,7.307l16.133,0l0,4.033l-16.133,0l0,-4.033Zm-12.101,12.099l0,-1.453c0.141,-1.546 1.494,-2.694 3.042,-2.58l34.251,0c1.546,-0.114 2.899,1.031 3.041,2.575l0,1.458l-40.334,0Zm70.584,34.284c-14.472,-0.017 -26.2,-11.745 -26.217,-26.217l0,-26.217l20.167,0l0,2.017c0,3.341 2.709,6.05 6.05,6.05c3.341,0 6.05,-2.709 6.05,-6.05l0,-2.017l20.167,0l0,26.217c-0.017,14.472 -11.745,26.2 -26.217,26.217Zm26.217,-56.467l-20.167,0l0,-2.017c-0.011,-2.554 -1.624,-4.827 -4.033,-5.678l0,-16.505l14.116,0c5.567,0.007 10.077,4.517 10.084,10.083l0,14.117Z" style="fill:#428dff;fill-rule:nonzero;"/></g></svg>