<?xml version="1.0" encoding="UTF-8" standalone="no"?><!DOCTYPE svg PUBLIC "-//W3C//DTD SVG 1.1//EN" "http://www.w3.org/Graphics/SVG/1.1/DTD/svg11.dtd"><svg width="100%" height="100%" viewBox="0 0 94 94" version="1.1" xmlns="http://www.w3.org/2000/svg" xmlns:xlink="http://www.w3.org/1999/xlink" xml:space="preserve" xmlns:serif="http://www.serif.com/" style="fill-rule:evenodd;clip-rule:evenodd;stroke-linejoin:round;stroke-miterlimit:1.41421;"><clipPath id="_clip1"><rect id="web-design" x="0" y="0" width="93" height="93"/></clipPath><g clip-path="url(#_clip1)"><path d="M91.45,21.699l0,58.891c0,3.423 -2.775,6.199 -6.198,6.199l-77.489,0c-3.423,0 -6.199,-2.776 -6.199,-6.199l0,-58.891l89.886,0Z" style="fill:#ffc389;fill-rule:nonzero;"/><path d="M86.801,21.699l-3.1,57.341c0,3.425 0.326,7.749 -3.099,7.749l-72.839,0c-3.423,0 -6.199,-2.776 -6.199,-6.199l0,-58.891l85.237,0Z" style="fill:#ffe4d3;fill-rule:nonzero;"/><path d="M91.45,12.401l0,12.398l-89.886,0l0,-12.398c0,-3.424 2.776,-6.199 6.199,-6.199l77.489,0c3.423,0 6.198,2.775 6.198,6.199Z" style="fill:#ffc389;fill-rule:nonzero;"/><path d="M86.801,12.401l0,12.398l-85.237,0l0,-12.398c0,-3.424 2.776,-6.199 6.199,-6.199l72.839,0c3.424,0 6.199,2.775 6.199,6.199Z" style="fill:#ffe4d3;fill-rule:nonzero;"/><path d="M13.962,15.5c0,1.712 -1.387,3.1 -3.099,3.1c-1.712,0 -3.1,-1.388 -3.1,-3.1c0,-1.712 1.388,-3.099 3.1,-3.099c1.712,0 3.099,1.387 3.099,3.099Z" style="fill:#e3e7f2;fill-rule:nonzero;"/><path d="M26.36,15.5c0,1.712 -1.387,3.1 -3.099,3.1c-1.712,0 -3.1,-1.388 -3.1,-3.1c0,-1.712 1.388,-3.099 3.1,-3.099c1.712,0 3.099,1.387 3.099,3.099Z" style="fill:#e3e7f2;fill-rule:nonzero;"/><path d="M38.759,15.5c0,1.712 -1.389,3.1 -3.1,3.1c-1.712,0 -3.1,-1.388 -3.1,-3.1c0,-1.712 1.388,-3.099 3.1,-3.099c1.711,0 3.1,1.387 3.1,3.099Z" style="fill:#e3e7f2;fill-rule:nonzero;"/><path d="M57.805,77.94l-45.842,-45.842c-0.441,-0.445 -1.107,-0.58 -1.688,-0.343c-0.579,0.238 -0.959,0.801 -0.962,1.428l0,1.828l43.843,43.843c0.455,0.457 0.584,1.145 0.325,1.736l3.239,0c0.627,-0.002 1.19,-0.383 1.428,-0.962c0.238,-0.581 0.102,-1.247 -0.343,-1.688Z" style="fill:#ffc389;fill-rule:nonzero;"/><rect x="72.853" y="12.401" width="12.399" height="12.398" style="fill:#ff8b40;fill-rule:nonzero;"/><rect x="72.853" y="12.401" width="7.749" height="12.398" style="fill:#fff2e9;fill-rule:nonzero;"/><path d="M85.252,21.699l0,55.791c-0.002,-1.106 -0.593,-2.129 -1.552,-2.681c-0.958,-0.553 -2.14,-0.553 -3.098,0c-0.295,0.169 -0.558,0.39 -0.775,0.652c-0.498,0.559 -0.774,1.281 -0.775,2.029c-0.004,-1.409 -0.959,-2.638 -2.324,-2.991c-0.252,-0.074 -0.513,-0.111 -0.776,-0.108c-1.65,0.019 -3.004,1.312 -3.099,2.96l0,-55.652l12.399,0Z" style="fill:#ffc389;fill-rule:nonzero;"/><path d="M80.602,21.699l0,55.791c-0.018,-1.704 -1.395,-3.081 -3.1,-3.099c-0.262,-0.003 -0.523,0.034 -0.774,0.108c-1.365,0.353 -2.321,1.582 -2.325,2.991c-0.001,-0.748 -0.277,-1.47 -0.775,-2.029c-0.217,-0.262 -0.48,-0.483 -0.775,-0.652l0,-53.11l7.749,0Z" style="fill:#fff2e9;fill-rule:nonzero;"/><path d="M85.252,7.751l0,7.749l-12.399,0l0,-7.749c0.003,-1.644 0.655,-3.219 1.813,-4.385c0.593,-0.58 1.293,-1.038 2.062,-1.348c0.734,-0.313 1.526,-0.471 2.324,-0.466c3.424,0 6.2,2.775 6.2,6.199Z" style="fill:#ffc389;fill-rule:nonzero;"/><path d="M80.602,7.751l0,7.749l-7.749,0l0,-7.749c0.003,-1.644 0.655,-3.219 1.813,-4.385c0.593,-0.58 1.293,-1.038 2.062,-1.348c2.343,0.937 3.878,3.209 3.874,5.733Z" style="fill:#fff2e9;fill-rule:nonzero;"/><path d="M85.252,77.49l-4.79,12.848c-0.159,0.65 -0.741,1.106 -1.41,1.106c-0.668,0 -1.251,-0.456 -1.41,-1.106l-0.914,-2.448l-3.875,-10.4c0.018,-1.704 1.395,-3.081 3.099,-3.099c0.263,-0.003 0.524,0.034 0.776,0.108c1.365,0.353 2.32,1.582 2.324,2.991c0.018,-1.704 1.395,-3.081 3.099,-3.099c1.71,0.005 3.095,1.39 3.101,3.099Z" style="fill:#ffc389;fill-rule:nonzero;"/><path d="M80.602,77.49l-3.874,10.4l-3.875,-10.4c0.001,-0.748 0.277,-1.47 0.775,-2.029c0.459,0.522 0.731,1.181 0.775,1.875c0.077,-1.35 1.016,-2.497 2.325,-2.837c0.251,-0.074 0.512,-0.111 0.774,-0.108c1.705,0.018 3.082,1.395 3.1,3.099Z" style="fill:#fff2e9;fill-rule:nonzero;"/><path d="M7.763,86.789l4.649,0c-3.423,0 -6.199,-2.776 -6.199,-6.199l0,-68.189c0,-3.424 2.776,-6.199 6.199,-6.199l-4.649,0c-3.423,0 -6.199,2.775 -6.199,6.199l0,68.189c0,3.423 2.776,6.199 6.199,6.199Z" style="fill:#fff;fill-rule:nonzero;"/><rect x="0.014" y="24.794" width="3.099" height="55.791" style="fill:#fff;fill-rule:nonzero;"/><g><path d="M1.565,38.747c0.41,-0.006 0.803,-0.167 1.1,-0.449c0.599,-0.611 0.599,-1.589 0,-2.2l-0.233,-0.188c-0.086,-0.058 -0.18,-0.105 -0.279,-0.139c-0.088,-0.045 -0.181,-0.076 -0.278,-0.091c-0.103,-0.019 -0.207,-0.029 -0.31,-0.033c-0.411,0.006 -0.804,0.167 -1.101,0.451c-0.584,0.617 -0.584,1.582 0,2.2c0.149,0.139 0.322,0.25 0.512,0.325c0.186,0.079 0.386,0.122 0.589,0.124Z" style="fill:#ff8b40;fill-rule:nonzero;"/><path d="M86.194,4.743c-1.2,-2.856 -3.988,-4.723 -7.087,-4.743c-3.098,-0.02 -5.91,1.811 -7.146,4.652l-64.197,0c-4.278,0.006 -7.745,3.472 -7.749,7.749l0,18.597c0,0.856 0.693,1.55 1.55,1.55c0.855,0 1.549,-0.694 1.549,-1.55l0,-4.649l68.19,0l0,51.141c0.009,0.092 0.027,0.183 0.054,0.271c0.007,0.091 0.021,0.181 0.043,0.271l2.692,7.207l-66.329,0c-2.569,0 -4.65,-2.081 -4.65,-4.649l0,-37.194c0,-0.856 -0.694,-1.55 -1.549,-1.55c-0.857,0 -1.55,0.694 -1.55,1.55l0,37.194c0.004,4.278 3.471,7.744 7.749,7.749l67.479,0l0.944,2.534c0.383,1.263 1.547,2.127 2.867,2.127c1.32,0 2.485,-0.864 2.867,-2.127l0.941,-2.534l2.39,0c4.277,-0.005 7.743,-3.471 7.748,-7.749l0,-68.189c-0.01,-3.905 -2.93,-7.189 -6.806,-7.658Zm3.707,7.658l0,10.848l-3.1,0l0,-15.215c1.852,0.654 3.093,2.402 3.1,4.367Zm-10.849,61.649c-1.248,-1.166 -3.048,-1.526 -4.649,-0.93l0,-49.871l9.299,0l0,49.874c-1.601,-0.596 -3.401,-0.235 -4.65,0.93l0,-0.003Zm4.65,-53.9l-9.299,0l0,-3.1l9.299,0l0,3.1Zm-4.65,-17.048c2.568,0 4.65,2.082 4.65,4.649l0,6.2l-9.299,0l0,-6.2c0,-2.567 2.082,-4.649 4.649,-4.649Zm-75.938,20.147l0,-10.848c0,-2.568 2.081,-4.65 4.65,-4.65l63.54,0l0,15.498l-68.19,0Zm75.929,66.406l-1.285,-3.445l-0.015,-0.044l-3.303,-8.86c0.085,-0.773 0.735,-1.359 1.513,-1.365c0.856,0 1.55,0.694 1.55,1.549c0,0.857 0.693,1.551 1.549,1.551c0.856,0 1.55,-0.694 1.55,-1.551c0,-0.855 0.694,-1.549 1.55,-1.549c0.778,0.006 1.428,0.594 1.513,1.367l-4.622,12.347Zm6.209,-4.416l-1.24,0l2.685,-7.207c0.022,-0.09 0.037,-0.18 0.044,-0.271c0.028,-0.088 0.049,-0.178 0.06,-0.271l0,-51.141l3.1,0l0,54.241c0,1.234 -0.49,2.416 -1.362,3.288c-0.872,0.872 -2.054,1.361 -3.287,1.361Z" style="fill:#ff8b40;fill-rule:nonzero;"/><path d="M10.863,10.851c-2.567,0 -4.65,2.082 -4.65,4.649c0,2.568 2.083,4.65 4.65,4.65c2.567,0 4.65,-2.082 4.65,-4.65c0,-2.567 -2.083,-4.649 -4.65,-4.649Zm0,6.199c-0.856,0 -1.55,-0.693 -1.55,-1.55c0,-0.855 0.694,-1.549 1.55,-1.549c0.856,0 1.549,0.694 1.549,1.549c0,0.857 -0.693,1.55 -1.549,1.55Z" style="fill:#ff8b40;fill-rule:nonzero;"/><path d="M23.261,10.851c-2.568,0 -4.649,2.082 -4.649,4.649c0,2.568 2.081,4.65 4.649,4.65c2.568,0 4.649,-2.082 4.649,-4.65c0,-2.567 -2.081,-4.649 -4.649,-4.649Zm0,6.199c-0.856,0 -1.549,-0.693 -1.549,-1.55c0,-0.855 0.693,-1.549 1.549,-1.549c0.856,0 1.55,0.694 1.55,1.549c0,0.857 -0.694,1.55 -1.55,1.55Z" style="fill:#ff8b40;fill-rule:nonzero;"/><path d="M35.659,10.851c-2.568,0 -4.649,2.082 -4.649,4.649c0,2.568 2.081,4.65 4.649,4.65c2.568,0 4.649,-2.082 4.649,-4.65c0,-2.567 -2.081,-4.649 -4.649,-4.649Zm0,6.199c-0.856,0 -1.55,-0.693 -1.55,-1.55c0,-0.855 0.694,-1.549 1.55,-1.549c0.856,0 1.55,0.694 1.55,1.549c0,0.857 -0.694,1.55 -1.55,1.55Z" style="fill:#ff8b40;fill-rule:nonzero;"/><path d="M66.654,13.951l-15.497,0c-0.856,0 -1.55,0.694 -1.55,1.549c0,0.857 0.694,1.55 1.55,1.55l15.497,0c0.856,0 1.55,-0.693 1.55,-1.55c0,-0.855 -0.694,-1.549 -1.55,-1.549Z" style="fill:#ff8b40;fill-rule:nonzero;"/><path d="M9.675,30.324c-1.158,0.48 -1.914,1.61 -1.914,2.864l0,45.855c0,1.711 1.388,3.099 3.1,3.099l45.851,0c1.255,0.001 2.388,-0.754 2.868,-1.914c0.48,-1.161 0.212,-2.496 -0.677,-3.382l-45.851,-45.846c-0.884,-0.891 -2.218,-1.158 -3.377,-0.676Zm1.186,48.719l0,-45.855l45.851,45.855l-45.851,0Z" style="fill:#ff8b40;fill-rule:nonzero;"/><path d="M17.062,74.391l24.796,0c0.627,0 1.192,-0.377 1.431,-0.956c0.24,-0.579 0.108,-1.246 -0.335,-1.689l-24.796,-24.796c-0.443,-0.444 -1.11,-0.576 -1.689,-0.336c-0.579,0.24 -0.956,0.805 -0.956,1.431l0,24.797c0,0.855 0.693,1.549 1.549,1.549Zm1.55,-22.604l19.505,19.504l-19.505,0l0,-19.504Z" style="fill:#ff8b40;fill-rule:nonzero;"/><path d="M79.052,26.349c-0.856,0 -1.549,0.694 -1.549,1.549l0,40.294c0,0.856 0.693,1.55 1.549,1.55c0.856,0 1.55,-0.694 1.55,-1.55l0,-40.294c0,-0.855 -0.694,-1.549 -1.55,-1.549Z" style="fill:#ff8b40;fill-rule:nonzero;"/><path d="M37.209,35.647l6.199,0c0.856,0 1.55,-0.694 1.55,-1.55c0,-0.855 -0.694,-1.549 -1.55,-1.549l-6.199,0c-0.856,0 -1.55,0.694 -1.55,1.549c0,0.856 0.694,1.55 1.55,1.55Z" style="fill:#ff8b40;fill-rule:nonzero;"/><path d="M66.654,32.548l-17.047,0c-0.856,0 -1.55,0.694 -1.55,1.549c0,0.856 0.694,1.55 1.55,1.55l17.047,0c0.856,0 1.55,-0.694 1.55,-1.55c0,-0.855 -0.694,-1.549 -1.55,-1.549Z" style="fill:#ff8b40;fill-rule:nonzero;"/><path d="M66.654,44.946l-6.199,0c-0.855,0 -1.55,0.693 -1.55,1.55c0,0.855 0.695,1.549 1.55,1.549l6.199,0c0.856,0 1.55,-0.694 1.55,-1.549c0,-0.857 -0.694,-1.55 -1.55,-1.55Z" style="fill:#ff8b40;fill-rule:nonzero;"/><path d="M37.209,48.045l17.047,0c0.856,0 1.55,-0.694 1.55,-1.549c0,-0.857 -0.694,-1.55 -1.55,-1.55l-17.047,0c-0.856,0 -1.55,0.693 -1.55,1.55c0,0.855 0.694,1.549 1.55,1.549Z" style="fill:#ff8b40;fill-rule:nonzero;"/><path d="M37.209,41.846l10.848,0c0.856,0 1.55,-0.694 1.55,-1.549c0,-0.856 -0.694,-1.55 -1.55,-1.55l-10.848,0c-0.856,0 -1.55,0.694 -1.55,1.55c0,0.855 0.694,1.549 1.55,1.549Z" style="fill:#ff8b40;fill-rule:nonzero;"/><path d="M66.654,38.747l-12.398,0c-0.856,0 -1.55,0.694 -1.55,1.55c0,0.855 0.694,1.549 1.55,1.549l12.398,0c0.856,0 1.55,-0.694 1.55,-1.549c0,-0.856 -0.694,-1.55 -1.55,-1.55Z" style="fill:#ff8b40;fill-rule:nonzero;"/></g></g></svg>