<?xml version="1.0" encoding="UTF-8" standalone="no"?><!DOCTYPE svg PUBLIC "-//W3C//DTD SVG 1.1//EN" "http://www.w3.org/Graphics/SVG/1.1/DTD/svg11.dtd"><svg width="100%" height="100%" viewBox="0 0 90 90" version="1.1" xmlns="http://www.w3.org/2000/svg" xmlns:xlink="http://www.w3.org/1999/xlink" xml:space="preserve" xmlns:serif="http://www.serif.com/" style="fill-rule:evenodd;clip-rule:evenodd;stroke-linejoin:round;stroke-miterlimit:1.41421;"><clipPath id="_clip1"><rect id="website" x="0" y="0" width="89.5" height="89.5"/></clipPath><g clip-path="url(#_clip1)"><path d="M4.475,1.492l80.55,0c1.647,0 2.983,1.336 2.983,2.983l0,80.55c0,1.647 -1.336,2.983 -2.983,2.983l-80.55,0c-1.647,0 -2.983,-1.336 -2.983,-2.983l0,-80.55c0,-1.647 1.336,-2.983 2.983,-2.983Z" style="fill:#e3e7f2;fill-rule:nonzero;"/><path d="M4.475,1.492l80.55,0c1.647,0 2.983,1.336 2.983,2.983l0,80.55c0,1.647 -1.336,2.983 -2.983,2.983l-80.55,0c-1.647,0 -2.983,-1.336 -2.983,-2.983l0,-80.55c0,-1.647 1.336,-2.983 2.983,-2.983Z" style="fill:#d7d5fc;fill-rule:nonzero;"/><path d="M4.475,1.492l80.55,0c1.647,0 2.983,1.336 2.983,2.983l0,8.95l-86.516,0l0,-8.95c0,-1.647 1.336,-2.983 2.983,-2.983Z" style="fill:#9f9aea;fill-rule:nonzero;"/><path d="M1.492,76.075l86.516,0l0,8.95c0,1.647 -1.336,2.983 -2.983,2.983l-80.55,0c-1.647,0 -2.983,-1.336 -2.983,-2.983l0,-8.95Z" style="fill:#a4c2f7;fill-rule:nonzero;"/><path d="M4.475,1.492l74.583,0c1.648,0 2.983,1.336 2.983,2.983l0,8.95l-80.549,0l0,-8.95c0,-1.647 1.336,-2.983 2.983,-2.983Z" style="fill:#d7d5fc;fill-rule:nonzero;"/><path d="M1.492,76.075l80.549,0l0,8.95c0,1.647 -1.335,2.983 -2.983,2.983l-74.583,0c-1.647,0 -2.983,-1.336 -2.983,-2.983l0,-8.95Z" style="fill:#d4e1f4;fill-rule:nonzero;"/><path d="M1.492,76.075l80.549,0l0,8.95c0,1.647 -1.335,2.983 -2.983,2.983l-74.583,0c-1.647,0 -2.983,-1.336 -2.983,-2.983l0,-8.95Z" style="fill:#d7d5fc;fill-rule:nonzero;"/><path d="M44.919,58.01l4.219,-4.219l20.778,20.779c1.166,1.165 1.166,3.054 0,4.219c-1.164,1.165 -3.053,1.165 -4.218,0l-20.779,-20.779Z" style="fill:#a4c2f7;fill-rule:nonzero;"/><path d="M20.883,73.092l5.967,0c0.824,0 1.492,0.667 1.492,1.492l0,2.983c0,0.823 -0.668,1.491 -1.492,1.491l-5.967,0c-0.823,0 -1.491,-0.668 -1.491,-1.491l0,-2.983c0,-0.825 0.668,-1.492 1.491,-1.492Z" style="fill:#d7d5fc;fill-rule:nonzero;"/><path d="M33.13,41.767l-21.51,0c-1.49,0.088 -2.898,-0.684 -3.626,-1.987c-0.728,-1.302 -0.646,-2.907 0.21,-4.129l10.755,-14.574c0.125,-0.176 0.27,-0.336 0.433,-0.477c0.881,-0.853 2.084,-1.29 3.307,-1.198c1.222,0.091 2.348,0.701 3.092,1.675l10.755,14.574c0.856,1.222 0.938,2.827 0.21,4.129c-0.728,1.303 -2.136,2.075 -3.626,1.987Z" style="fill:#9f9aea;fill-rule:nonzero;"/><path d="M27.163,41.767l-15.543,0c-1.49,0.088 -2.898,-0.684 -3.626,-1.987c-0.728,-1.302 -0.646,-2.907 0.21,-4.129l10.755,-14.574c0.125,-0.176 0.27,-0.336 0.433,-0.477c0.163,0.141 0.308,0.301 0.432,0.477l10.755,14.574c0.856,1.222 0.938,2.827 0.211,4.129c-0.728,1.303 -2.137,2.075 -3.627,1.987Z" style="fill:#d7d5fc;fill-rule:nonzero;"/><path d="M32.45,59.3l5.967,-5.967l6.328,6.328l-5.966,5.967l-6.329,-6.328Z" style="fill:#a4c2f7;fill-rule:nonzero;"/><path d="M46.242,43.408l-2.109,2.109l-6.916,6.906c-0.28,0.28 -0.438,0.66 -0.438,1.056c0,0.396 0.158,0.775 0.438,1.055l6.328,6.326c0.28,0.28 0.659,0.438 1.055,0.438c0.396,0 0.775,-0.158 1.055,-0.438l6.328,-6.328c0.34,-0.332 0.496,-0.808 0.421,-1.277c-0.362,-1.634 0.092,-3.341 1.217,-4.58c1.787,-1.841 3.944,-3.28 6.329,-4.223c0,0 -9.493,-5.269 -13.708,-1.044Z" style="fill:#d7d5fc;fill-rule:nonzero;"/><path d="M39.327,67.19l-2.11,2.11c-0.582,0.582 -1.527,0.582 -2.109,0l-6.329,-6.329c-0.582,-0.582 -0.582,-1.527 0,-2.11l2.11,-2.109c0.582,-0.582 1.526,-0.582 2.109,0l6.329,6.329c0.582,0.582 0.582,1.526 0,2.109Z" style="fill:#d7d5fc;fill-rule:nonzero;"/><path d="M8.95,7.459c0,0.823 -0.668,1.491 -1.491,1.491c-0.825,0 -1.492,-0.668 -1.492,-1.491c0,-0.825 0.667,-1.492 1.492,-1.492c0.823,0 1.491,0.667 1.491,1.492Z" style="fill:#428dff;fill-rule:nonzero;"/><path d="M14.916,7.459c0,0.823 -0.667,1.491 -1.491,1.491c-0.824,0 -1.492,-0.668 -1.492,-1.491c0,-0.825 0.668,-1.492 1.492,-1.492c0.824,0 1.491,0.667 1.491,1.492Z" style="fill:#428dff;fill-rule:nonzero;"/><path d="M20.883,7.459c0,0.823 -0.668,1.491 -1.491,1.491c-0.824,0 -1.492,-0.668 -1.492,-1.491c0,-0.825 0.668,-1.492 1.492,-1.492c0.823,0 1.491,0.667 1.491,1.492Z" style="fill:#428dff;fill-rule:nonzero;"/><path d="M23.867,35.8c0,0.824 -0.669,1.491 -1.492,1.491c-0.823,0 -1.492,-0.667 -1.492,-1.491c0,-0.824 0.669,-1.492 1.492,-1.492c0.823,0 1.492,0.668 1.492,1.492Z" style="fill:#428dff;fill-rule:nonzero;"/><path d="M4.475,88.008l4.475,0c-1.648,0 -2.983,-1.336 -2.983,-2.983l0,-80.55c0,-1.647 1.335,-2.983 2.983,-2.983l-4.475,0c-1.647,0 -2.983,1.336 -2.983,2.983l0,80.55c0,1.647 1.336,2.983 2.983,2.983Z" style="fill:#fff;fill-rule:nonzero;"/><rect x="0" y="16.408" width="2.983" height="68.616" style="fill:#fff;fill-rule:nonzero;"/><g><path d="M34.308,74.584c-0.823,0 -1.491,0.667 -1.491,1.491c0,0.824 0.668,1.492 1.491,1.492l19.392,0c0.824,0 1.492,-0.668 1.492,-1.492c0,-0.824 -0.668,-1.491 -1.492,-1.491l-19.392,0Z" style="fill:#428dff;fill-rule:nonzero;"/><path d="M1.492,29.834c0.395,-0.007 0.773,-0.161 1.059,-0.433c0.576,-0.588 0.576,-1.53 0,-2.118l-0.224,-0.179c-0.083,-0.057 -0.173,-0.102 -0.268,-0.135c-0.085,-0.043 -0.176,-0.073 -0.269,-0.089c-0.099,-0.017 -0.198,-0.027 -0.298,-0.03c-0.395,0.006 -0.774,0.16 -1.059,0.433c-0.135,0.142 -0.242,0.31 -0.314,0.492c-0.225,0.556 -0.102,1.193 0.314,1.626c0.142,0.135 0.309,0.241 0.492,0.313c0.179,0.077 0.372,0.117 0.567,0.12Z" style="fill:#428dff;fill-rule:nonzero;"/><path d="M85.025,0l-80.55,0c-2.472,0 -4.475,2.003 -4.475,4.475l0,17.9c0,0.823 0.668,1.492 1.492,1.492c0.823,0 1.491,-0.669 1.491,-1.492l0,-7.459l83.534,0l0,59.668l-7.459,0c-0.823,0 -1.491,0.667 -1.491,1.491c0,0.824 0.668,1.492 1.491,1.492l7.459,0l0,7.458c0,0.824 -0.668,1.492 -1.492,1.492l-80.55,0c-0.824,0 -1.492,-0.668 -1.492,-1.492l0,-7.458l10.442,0c0.824,0 1.491,-0.668 1.491,-1.492c0,-0.824 -0.667,-1.491 -1.491,-1.491l-10.442,0l0,-40.276c0,-0.823 -0.668,-1.491 -1.491,-1.491c-0.824,0 -1.492,0.668 -1.492,1.491l0,50.717c0,2.472 2.003,4.475 4.475,4.475l80.55,0c2.472,0 4.475,-2.003 4.475,-4.475l0,-80.55c0,-2.472 -2.003,-4.475 -4.475,-4.475Zm-82.042,11.933l0,-7.458c0,-0.824 0.668,-1.492 1.492,-1.492l80.55,0c0.824,0 1.492,0.668 1.492,1.492l0,7.458l-83.534,0Z" style="fill:#544db8;fill-rule:nonzero;"/><path d="M67.805,81.159c1.188,0.003 2.327,-0.469 3.164,-1.311c1.747,-1.748 1.747,-4.581 0,-6.328l-17.93,-17.931c0.68,-0.675 0.99,-1.638 0.831,-2.583c-0.27,-1.156 0.028,-2.372 0.803,-3.272c1.628,-1.67 3.585,-2.983 5.745,-3.859c0.561,-0.188 0.958,-0.689 1.012,-1.277c0.055,-0.588 -0.243,-1.154 -0.759,-1.441c-0.428,-0.239 -10.536,-5.764 -15.491,-0.806l-9.021,9.02c-0.762,0.745 -1.055,1.849 -0.762,2.874l-2.694,2.692c-1.024,-0.276 -2.117,0.013 -2.869,0.761l-2.11,2.109c-1.165,1.165 -1.165,3.053 0,4.219l6.328,6.329c0.559,0.559 1.318,0.874 2.11,0.874c0.791,0 1.55,-0.315 2.11,-0.874l2.109,-2.109c0.749,-0.753 1.04,-1.848 0.762,-2.872l2.695,-2.696c0.248,0.069 0.504,0.107 0.761,0.111c0.791,0.001 1.551,-0.313 2.109,-0.873l17.932,17.93c0.837,0.843 1.977,1.316 3.165,1.313Zm-20.519,-36.707c2.04,-2.039 6.193,-1.109 9.211,0.054c-1.429,0.878 -2.751,1.922 -3.937,3.109c-1.47,1.568 -2.082,3.755 -1.641,5.858l-3.165,3.164l-2.11,2.109l-1.055,1.055l-6.328,-6.328l9.025,-9.021Zm-11.123,23.794l-6.329,-6.33l2.109,-2.109l6.329,6.329l-2.109,2.11Zm3.163,-5.275l-4.22,-4.22l2.111,-2.108l2.109,2.109l2.11,2.108l-2.11,2.111Zm11.604,-5.273l17.93,17.93c0.581,0.582 0.581,1.525 0,2.108c-0.59,0.564 -1.519,0.564 -2.109,0l-17.932,-17.929l2.111,-2.109Z" style="fill:#428dff;fill-rule:nonzero;"/><path d="M67.809,81.159c1.187,0.003 2.327,-0.469 3.164,-1.311c1.746,-1.748 1.746,-4.581 0,-6.328l-17.931,-17.931c0.68,-0.675 0.99,-1.638 0.831,-2.583c-0.269,-1.156 0.028,-2.372 0.803,-3.272c1.629,-1.67 3.585,-2.983 5.746,-3.859c0.56,-0.188 0.957,-0.689 1.012,-1.277c0.054,-0.588 -0.243,-1.154 -0.76,-1.441c-0.428,-0.239 -10.536,-5.764 -15.491,-0.806l-9.02,9.02c-0.763,0.745 -1.056,1.849 -0.762,2.874l-2.694,2.692c-1.024,-0.276 -2.117,0.013 -2.87,0.761l-2.109,2.109c-1.165,1.165 -1.165,3.053 0,4.219l6.328,6.329c0.559,0.559 1.317,0.874 2.11,0.874c0.791,0 1.55,-0.315 2.109,-0.874l2.11,-2.109c0.748,-0.753 1.039,-1.848 0.762,-2.872l2.695,-2.696c0.248,0.069 0.504,0.107 0.761,0.111c0.791,0.001 1.55,-0.313 2.109,-0.873l17.932,17.93c0.837,0.843 1.976,1.316 3.165,1.313Zm-20.519,-36.707c2.04,-2.039 6.193,-1.109 9.21,0.054c-1.429,0.878 -2.75,1.922 -3.936,3.109c-1.47,1.568 -2.083,3.755 -1.641,5.858l-3.165,3.164l-2.111,2.109l-1.055,1.055l-6.327,-6.328l9.025,-9.021Zm-11.124,23.794l-6.329,-6.33l2.109,-2.109l6.329,6.329l-2.109,2.11Zm3.164,-5.275l-4.22,-4.22l2.11,-2.108l2.11,2.109l2.109,2.108l-2.109,2.111Zm11.604,-5.273l17.93,17.93c0.581,0.582 0.581,1.525 0,2.108c-0.59,0.564 -1.52,0.564 -2.11,0l-17.932,-17.929l2.112,-2.109Z" style="fill:#544db8;fill-rule:nonzero;"/><path d="M23.867,85.025c0.823,0 1.491,-0.668 1.491,-1.492l0,-2.983l1.492,0c1.648,0 2.984,-1.335 2.984,-2.983l0,-2.983c0,-1.648 -1.336,-2.984 -2.984,-2.984l-5.967,0c-1.648,0 -2.983,1.336 -2.983,2.984l0,2.983c0,1.648 1.335,2.983 2.983,2.983l1.492,0l0,2.983c0,0.824 0.668,1.492 1.492,1.492Zm-2.984,-10.441l5.967,0l0,2.983l-5.967,0l0,-2.983Z" style="fill:#544db8;fill-rule:nonzero;"/><path d="M22.375,67.125c0.603,0 1.147,-0.363 1.378,-0.921c0.231,-0.557 0.103,-1.199 -0.324,-1.625l-2.983,-2.984c-0.585,-0.565 -1.515,-0.557 -2.091,0.019c-0.575,0.575 -0.583,1.506 -0.018,2.091l2.984,2.983c0.279,0.28 0.659,0.437 1.054,0.437Z" style="fill:#544db8;fill-rule:nonzero;"/><path d="M14.916,67.125c-0.823,0 -1.491,0.668 -1.491,1.492c0,0.823 0.668,1.491 1.491,1.491l2.984,0c0.824,0 1.492,-0.668 1.492,-1.491c0,-0.824 -0.668,-1.492 -1.492,-1.492l-2.984,0Z" style="fill:#544db8;fill-rule:nonzero;"/><path d="M22.375,17.9c-1.812,-0.011 -3.523,0.836 -4.614,2.284l-10.75,14.584c-1.192,1.571 -1.376,3.687 -0.472,5.44c0.978,1.897 2.944,3.077 5.078,3.05l21.516,0c2.137,0.03 4.106,-1.151 5.085,-3.05c0.904,-1.753 0.72,-3.869 -0.471,-5.44l-10.758,-14.584c-1.091,-1.448 -2.802,-2.295 -4.614,-2.284Zm13.181,20.964c-0.475,0.892 -1.413,1.438 -2.423,1.411l-21.516,0c-1.01,0.027 -1.948,-0.519 -2.423,-1.411c-0.387,-0.748 -0.305,-1.652 0.211,-2.318l10.758,-14.583c0.534,-0.677 1.35,-1.072 2.212,-1.072c0.862,0 1.678,0.395 2.212,1.072l10.765,14.583c0.514,0.667 0.593,1.572 0.204,2.318Z" style="fill:#544db8;fill-rule:nonzero;"/><path d="M22.375,25.358c-0.823,0 -1.492,0.668 -1.492,1.492l0,2.984c0,0.823 0.669,1.491 1.492,1.491c0.823,0 1.492,-0.668 1.492,-1.491l0,-2.984c0,-0.824 -0.669,-1.492 -1.492,-1.492Z" style="fill:#428dff;fill-rule:nonzero;"/><path d="M82.041,17.9l-49.224,0c-0.824,0 -1.492,0.668 -1.492,1.492c0,0.823 0.668,1.491 1.492,1.491l49.224,0c0.825,0 1.492,-0.668 1.492,-1.491c0,-0.824 -0.667,-1.492 -1.492,-1.492Z" style="fill:#544db8;fill-rule:nonzero;"/><path d="M82.041,23.867l-43.258,0c-0.824,0 -1.492,0.668 -1.492,1.491c0,0.824 0.668,1.492 1.492,1.492l43.258,0c0.825,0 1.492,-0.668 1.492,-1.492c0,-0.823 -0.667,-1.491 -1.492,-1.491Z" style="fill:#544db8;fill-rule:nonzero;"/><path d="M82.041,29.834l-32.816,0c-0.824,0 -1.492,0.667 -1.492,1.491c0,0.824 0.668,1.492 1.492,1.492l32.816,0c0.825,0 1.492,-0.668 1.492,-1.492c0,-0.824 -0.667,-1.491 -1.492,-1.491Z" style="fill:#544db8;fill-rule:nonzero;"/><path d="M82.041,35.8l-22.375,0c-0.823,0 -1.491,0.668 -1.491,1.491c0,0.825 0.668,1.492 1.491,1.492l22.375,0c0.825,0 1.492,-0.667 1.492,-1.492c0,-0.823 -0.667,-1.491 -1.492,-1.491Z" style="fill:#544db8;fill-rule:nonzero;"/><path d="M82.041,41.767l-13.424,0c-0.824,0 -1.492,0.668 -1.492,1.491c0,0.824 0.668,1.492 1.492,1.492l13.424,0c0.825,0 1.492,-0.668 1.492,-1.492c0,-0.823 -0.667,-1.491 -1.492,-1.491Z" style="fill:#544db8;fill-rule:nonzero;"/><path d="M82.041,47.733l-19.391,0c-0.824,0 -1.492,0.668 -1.492,1.492c0,0.824 0.668,1.492 1.492,1.492l19.391,0c0.825,0 1.492,-0.668 1.492,-1.492c0,-0.824 -0.667,-1.492 -1.492,-1.492Z" style="fill:#544db8;fill-rule:nonzero;"/><path d="M82.041,53.7l-19.391,0c-0.824,0 -1.492,0.668 -1.492,1.492c0,0.823 0.668,1.491 1.492,1.491l19.391,0c0.825,0 1.492,-0.668 1.492,-1.491c0,-0.824 -0.667,-1.492 -1.492,-1.492Z" style="fill:#544db8;fill-rule:nonzero;"/><path d="M82.041,59.666l-16.408,0c-0.823,0 -1.491,0.668 -1.491,1.492c0,0.824 0.668,1.492 1.491,1.492l16.408,0c0.825,0 1.492,-0.668 1.492,-1.492c0,-0.824 -0.667,-1.492 -1.492,-1.492Z" style="fill:#544db8;fill-rule:nonzero;"/><path d="M7.459,50.717l23.866,0c0.824,0 1.492,-0.668 1.492,-1.492c0,-0.824 -0.668,-1.492 -1.492,-1.492l-23.866,0c-0.825,0 -1.492,0.668 -1.492,1.492c0,0.824 0.667,1.492 1.492,1.492Z" style="fill:#428dff;fill-rule:nonzero;"/><path d="M7.462,50.717l23.866,0c0.825,0 1.492,-0.668 1.492,-1.492c0,-0.824 -0.667,-1.492 -1.492,-1.492l-23.866,0c-0.824,0 -1.492,0.668 -1.492,1.492c0,0.824 0.668,1.492 1.492,1.492Z" style="fill:#544db8;fill-rule:nonzero;"/><path d="M7.459,56.683l14.916,0c0.823,0 1.492,-0.668 1.492,-1.491c0,-0.824 -0.669,-1.492 -1.492,-1.492l-14.916,0c-0.825,0 -1.492,0.668 -1.492,1.492c0,0.823 0.667,1.491 1.492,1.491Z" style="fill:#428dff;fill-rule:nonzero;"/><path d="M7.462,56.683l14.916,0c0.824,0 1.492,-0.668 1.492,-1.491c0,-0.824 -0.668,-1.492 -1.492,-1.492l-14.916,0c-0.824,0 -1.492,0.668 -1.492,1.492c0,0.823 0.668,1.491 1.492,1.491Z" style="fill:#544db8;fill-rule:nonzero;"/><path d="M82.041,68.617c0.825,0 1.492,-0.669 1.492,-1.492c0,-0.823 -0.667,-1.492 -1.492,-1.492l-8.949,0c-0.824,0 -1.492,0.669 -1.492,1.492c0,0.823 0.668,1.492 1.492,1.492l8.949,0Z" style="fill:#544db8;fill-rule:nonzero;"/></g></g></svg>