<svg height="395pt" viewBox="0 -6 395.94667 395" width="395pt" xmlns="http://www.w3.org/2000/svg"><path d="m315.042969 348.632812h-240.96875c-14.515625 0-26.289063-11.769531-26.289063-26.289062v-21.496094h293.546875v21.496094c0 14.519531-11.769531 26.289062-26.289062 26.289062zm0 0" fill="#0e65e5"/><path d="m315.039062 355.460938h-240.960937c-18.257813 0-33.117187-14.859376-33.117187-33.121094v-21.492188c0-3.773437 3.050781-6.828125 6.824218-6.828125h293.546875c3.773438 0 6.828125 3.054688 6.828125 6.828125v21.492188c0 18.261718-14.859375 33.121094-33.121094 33.121094zm-260.425781-47.789063v14.667969c0 10.734375 8.734375 19.46875 19.464844 19.46875h240.960937c10.734376 0 19.46875-8.734375 19.46875-19.46875v-14.667969zm0 0" fill="#0e65e5"/><path d="m341.332031 288.898438h-293.546875v-132.429688c0-14.519531 11.773438-26.289062 26.289063-26.289062h240.96875c14.519531 0 26.289062 11.769531 26.289062 26.289062zm0 0" fill="#94c1ff"/><path d="m341.332031 295.726562h-293.546875c-3.773437 0-6.824218-3.054687-6.824218-6.828124v-132.425782c0-18.257812 14.859374-33.121094 33.117187-33.121094h240.960937c18.261719 0 33.121094 14.863282 33.121094 33.121094v132.425782c0 3.773437-3.054687 6.828124-6.828125 6.828124zm-286.71875-13.652343h279.894531v-125.601563c0-10.734375-8.734374-19.464844-19.46875-19.464844h-240.960937c-10.730469 0-19.464844 8.730469-19.464844 19.464844zm0 0" fill="#0e65e5"/><path d="m315.042969 334.980469h-240.96875c-14.515625 0-26.289063-11.769531-26.289063-26.289063v-21.5h293.546875v21.5c0 14.519532-11.769531 26.289063-26.289062 26.289063zm0 0" fill="#d7e9ff"/><path d="m315.039062 341.808594h-240.960937c-18.257813 0-33.117187-14.863282-33.117187-33.121094v-21.496094c0-3.773437 3.050781-6.824218 6.824218-6.824218h293.546875c3.773438 0 6.828125 3.050781 6.828125 6.824218v21.496094c0 18.257812-14.859375 33.121094-33.121094 33.121094zm-260.425781-47.789063v14.667969c0 10.734375 8.734375 19.464844 19.464844 19.464844h240.960937c10.734376 0 19.46875-8.730469 19.46875-19.464844v-14.667969zm0 0" fill="#0e65e5"/><path d="m315.042969 334.980469h-240.96875c-14.515625 0-26.289063-11.769531-26.289063-26.289063v-21.5h293.546875v21.5c0 14.519532-11.769531 26.289063-26.289062 26.289063zm0 0" fill="#d7e9ff"/><path d="m315.039062 341.808594h-240.960937c-18.257813 0-33.117187-14.863282-33.117187-33.121094v-21.496094c0-3.773437 3.050781-6.824218 6.824218-6.824218h293.546875c3.773438 0 6.828125 3.050781 6.828125 6.824218v21.496094c0 18.257812-14.859375 33.121094-33.121094 33.121094zm-260.425781-47.789063v14.667969c0 10.734375 8.734375 19.464844 19.464844 19.464844h240.960937c10.734376 0 19.46875-8.730469 19.46875-19.464844v-14.667969zm0 0" fill="#0e65e5"/><path d="m238.078125 375.941406h-87.039063l25.300782-40.960937h36.441406zm0 0" fill="#d7e9ff"/><path d="m238.078125 382.765625h-87.039063c-2.472656 0-4.753906-1.339844-5.957031-3.5-1.207031-2.160156-1.148437-4.804687.152344-6.914063l25.300781-40.957031c1.238282-2.015625 3.4375-3.242187 5.804688-3.242187h36.441406c2.367188 0 4.566406 1.226562 5.804688 3.242187l25.300781 40.957031c1.300781 2.105469 1.359375 4.753907.152343 6.914063-1.207031 2.160156-3.484374 3.5-5.960937 3.5zm-74.796875-13.652344h62.558594l-16.867188-27.304687h-28.828125zm0 0" fill="#0e65e5"/><path d="m264.535156 270.980469c-1.746094 0-3.496094-.667969-4.828125-2-2.664062-2.667969-2.664062-6.988281 0-9.652344l43.519531-43.519531c2.667969-2.667969 6.988282-2.667969 9.652344 0 2.667969 2.664062 2.667969 6.984375 0 9.652344l-43.519531 43.519531c-1.332031 1.332031-3.082031 2-4.824219 2zm0 0" fill="#fff"/><path d="m297.8125 268.421875c-1.746094 0-3.492188-.667969-4.824219-2.003906-2.667969-2.664063-2.667969-6.984375 0-9.652344l15.359375-15.359375c2.664063-2.664062 6.984375-2.664062 9.652344 0 2.664062 2.667969 2.664062 6.988281 0 9.652344l-15.359375 15.359375c-1.332031 1.335937-3.082031 2.003906-4.828125 2.003906zm0 0" fill="#fff"/><path d="m268.800781 382.765625h-153.601562c-3.773438 0-6.824219-3.050781-6.824219-6.824219 0-3.773437 3.050781-6.828125 6.824219-6.828125h153.601562c3.773438 0 6.824219 3.054688 6.824219 6.828125 0 3.773438-3.050781 6.824219-6.824219 6.824219zm0 0" fill="#0e65e5"/><path d="m88.746094 143.832031c-15.082032 0-27.304688-12.222656-27.304688-27.304687v-109.226563h54.613282v109.226563c0 15.082031-12.226563 27.304687-27.308594 27.304687zm0 0" fill="#94c1ff"/><path d="m88.746094 150.660156c-18.820313 0-34.132813-15.3125-34.132813-34.132812v-109.226563c0-3.773437 3.054688-6.828125 6.828125-6.828125h54.613282c3.773437 0 6.824218 3.054688 6.824218 6.828125v109.226563c0 18.820312-15.3125 34.132812-34.132812 34.132812zm-20.480469-136.535156v102.402344c0 11.292968 9.1875 20.480468 20.480469 20.480468 11.292968 0 20.480468-9.1875 20.480468-20.480468v-102.402344zm0 0" fill="#0e65e5"/><path d="m143.359375 143.832031c-15.082031 0-27.304687-12.222656-27.304687-27.304687v-109.226563h54.613281v109.226563c0 15.082031-12.226563 27.304687-27.308594 27.304687zm0 0" fill="#2a8ee6" fill-rule="evenodd"/><path d="m143.359375 150.660156c-18.820313 0-34.132813-15.3125-34.132813-34.132812v-109.226563c0-3.773437 3.054688-6.828125 6.828126-6.828125h54.613281c3.773437 0 6.824219 3.054688 6.824219 6.828125v109.226563c0 18.820312-15.3125 34.132812-34.132813 34.132812zm-20.480469-136.535156v102.402344c0 11.292968 9.1875 20.480468 20.480469 20.480468s20.480469-9.1875 20.480469-20.480468v-102.402344zm0 0" fill="#0e65e5"/><path d="m34.132812 143.832031c-15.082031 0-27.304687-12.222656-27.304687-27.304687l13.652344-109.226563h40.960937v109.226563c0 15.082031-12.226562 27.304687-27.308594 27.304687zm0 0" fill="#2a8ee6" fill-rule="evenodd"/><path d="m34.132812 150.660156c-18.820312 0-34.132812-15.3125-34.132812-34.132812 0-.28125.0195312-.566406.0546875-.847656l13.6523435-109.226563c.425781-3.414063 3.332031-5.980469 6.773438-5.980469h40.960937c3.773438 0 6.824219 3.054688 6.824219 6.828125v109.226563c0 18.820312-15.3125 34.132812-34.132813 34.132812zm-20.472656-33.742187c.207032 11.113281 9.3125 20.089843 20.472656 20.089843 11.292969 0 20.480469-9.1875 20.480469-20.480468v-102.402344h-28.105469zm0 0" fill="#0e65e5"/><path d="m197.972656 143.832031c-15.082031 0-27.304687-12.222656-27.304687-27.304687v-109.226563h54.613281v109.226563c0 15.082031-12.226562 27.304687-27.308594 27.304687zm0 0" fill="#94c1ff"/><path d="m197.972656 150.660156c-18.820312 0-34.132812-15.3125-34.132812-34.132812v-109.226563c0-3.773437 3.054687-6.828125 6.828125-6.828125h54.613281c3.773438 0 6.824219 3.054688 6.824219 6.828125v109.226563c0 18.820312-15.3125 34.132812-34.132813 34.132812zm-20.480468-136.535156v102.402344c0 11.292968 9.1875 20.480468 20.480468 20.480468 11.292969 0 20.480469-9.1875 20.480469-20.480468v-102.402344zm0 0" fill="#0e65e5"/><path d="m252.585938 143.832031c-15.082032 0-27.304688-12.222656-27.304688-27.304687v-109.226563h54.613281v109.226563c0 15.082031-12.226562 27.304687-27.308593 27.304687zm0 0" fill="#2a8ee6" fill-rule="evenodd"/><path d="m252.585938 150.660156c-18.820313 0-34.132813-15.3125-34.132813-34.132812v-109.226563c0-3.773437 3.054687-6.828125 6.828125-6.828125h54.613281c3.773438 0 6.824219 3.054688 6.824219 6.828125v109.226563c0 18.820312-15.3125 34.132812-34.132812 34.132812zm-20.480469-136.535156v102.402344c0 11.292968 9.1875 20.480468 20.480469 20.480468 11.292968 0 20.480468-9.1875 20.480468-20.480468v-102.402344zm0 0" fill="#0e65e5"/><path d="m361.8125 143.832031c-15.082031 0-27.304688-12.222656-27.304688-27.304687v-109.226563h40.957032l13.65625 109.226563c0 15.082031-12.226563 27.304687-27.308594 27.304687zm0 0" fill="#2a8ee6" fill-rule="evenodd"/><path d="m361.8125 150.660156c-18.820312 0-34.132812-15.3125-34.132812-34.132812v-109.226563c0-3.773437 3.054687-6.828125 6.828124-6.828125h40.957032c3.441406 0 6.347656 2.566406 6.777344 5.980469l13.652343 109.226563c.035157.28125.050781.566406.050781.847656 0 18.820312-15.3125 34.132812-34.132812 34.132812zm-20.480469-136.535156v102.402344c0 11.292968 9.1875 20.480468 20.480469 20.480468 11.160156 0 20.265625-8.976562 20.472656-20.089843l-12.84375-102.792969zm0 0" fill="#0e65e5"/><path d="m307.199219 143.832031c-15.082031 0-27.304688-12.222656-27.304688-27.304687v-109.226563h54.613281v109.226563c0 15.082031-12.226562 27.304687-27.308593 27.304687zm0 0" fill="#94c1ff"/><path d="m307.199219 150.660156c-18.820313 0-34.132813-15.3125-34.132813-34.132812v-109.226563c0-3.773437 3.054688-6.828125 6.828125-6.828125h54.613281c3.773438 0 6.824219 3.054688 6.824219 6.828125v109.226563c0 18.820312-15.3125 34.132812-34.132812 34.132812zm-20.480469-136.535156v102.402344c0 11.292968 9.1875 20.480468 20.480469 20.480468s20.480469-9.1875 20.480469-20.480468v-102.402344zm0 0" fill="#0e65e5"/><g fill="#fff"><path d="m102.398438 348.632812c-3.773438 0-6.824219-3.050781-6.824219-6.824218v-27.308594c0-3.773438 3.050781-6.828125 6.824219-6.828125 3.773437 0 6.828124 3.054687 6.828124 6.828125v27.308594c0 3.773437-3.054687 6.824218-6.828124 6.824218zm0 0"/><path d="m116.054688 334.980469h-27.308594c-3.773438 0-6.824219-3.054688-6.824219-6.828125 0-3.773438 3.050781-6.824219 6.824219-6.824219h27.308594c3.773437 0 6.824218 3.050781 6.824218 6.824219 0 3.773437-3.050781 6.828125-6.824218 6.828125zm0 0"/></g></svg>