<?xml version="1.0" encoding="UTF-8" standalone="no"?><!DOCTYPE svg PUBLIC "-//W3C//DTD SVG 1.1//EN" "http://www.w3.org/Graphics/SVG/1.1/DTD/svg11.dtd"><svg width="100%" height="100%" viewBox="0 0 93 93" version="1.1" xmlns="http://www.w3.org/2000/svg" xmlns:xlink="http://www.w3.org/1999/xlink" xml:space="preserve" xmlns:serif="http://www.serif.com/" style="fill-rule:evenodd;clip-rule:evenodd;stroke-linejoin:round;stroke-miterlimit:1.41421;"><clipPath id="_clip1"><rect id="idea" x="0" y="0" width="92" height="92"/></clipPath><g clip-path="url(#_clip1)"><path d="M72.067,27.601c0.001,4.079 -0.955,8.102 -2.791,11.745c-2.223,4.4 -6.041,7.574 -8.847,11.546c-2.775,3.91 -5.229,8.601 -5.229,13.508l-18.399,0c0,-4.753 -2.316,-9.43 -5.014,-13.232c-2.668,-3.742 -6.256,-6.762 -8.526,-10.81c-5.707,-10.188 -3.947,-22.929 4.309,-31.188c4.319,-4.335 10.033,-7.003 16.131,-7.528c0.764,-0.075 1.532,-0.111 2.3,-0.108c14.396,0 26.066,11.671 26.066,26.067Z" style="fill:#eeff37;fill-rule:nonzero;"/><path d="M35.267,64.4l21.466,0c0.848,0 1.534,0.687 1.534,1.533l0,6.717c0,0.846 -0.686,1.533 -1.534,1.533l-21.466,0c-0.846,0 -1.533,-0.687 -1.533,-1.533l0,-6.717c0,-0.846 0.687,-1.533 1.533,-1.533Z" style="fill:#fcdd6a;fill-rule:nonzero;"/><path d="M55.2,74.183l0,8.724c-0.059,4.193 -3.474,7.56 -7.666,7.56l-3.067,0c-0.266,0 -0.533,-0.015 -0.797,-0.047c-1.554,-0.154 -3.021,-0.786 -4.201,-1.808c-0.806,-0.698 -1.458,-1.554 -1.917,-2.515c-0.5,-1.027 -0.757,-2.155 -0.751,-3.297l-0.001,-8.617l18.4,0Z" style="fill:#fcdd6a;fill-rule:nonzero;"/><path d="M67.467,27.601c0.002,4.079 -0.954,8.102 -2.791,11.745c-2.223,4.4 -6.041,7.574 -8.847,11.546c-2.775,3.91 -5.229,8.601 -5.229,13.508l-13.799,0c0,-4.753 -2.316,-9.43 -5.014,-13.232c-2.668,-3.742 -6.256,-6.762 -8.526,-10.81c-5.707,-10.188 -3.947,-22.929 4.309,-31.188c4.319,-4.335 10.033,-7.003 16.131,-7.528c13.449,1.191 23.763,12.456 23.766,25.959Z" style="fill:#fcffb1;fill-rule:nonzero;"/><path d="M35.267,64.4l16.867,0c0.846,0 1.533,0.687 1.533,1.533l0,6.717c0,0.846 -0.687,1.533 -1.533,1.533l-16.867,0c-0.846,0 -1.533,-0.687 -1.533,-1.533l0,-6.717c0,-0.846 0.687,-1.533 1.533,-1.533Z" style="fill:#fcffb1;fill-rule:nonzero;"/><path d="M50.6,74.183l0,8.724c-0.054,3.906 -3.041,7.145 -6.93,7.513c-1.554,-0.154 -3.021,-0.786 -4.201,-1.808c-0.806,-0.698 -1.458,-1.554 -1.917,-2.515c-0.5,-1.027 -0.757,-2.155 -0.751,-3.297l-0.001,-8.617l13.8,0Z" style="fill:#fcffb1;fill-rule:nonzero;"/><path d="M31.787,51.168c2.698,3.802 5.014,8.479 5.014,13.232l-1.534,0c-0.846,0 -1.533,0.687 -1.533,1.533l0,6.717c0,0.846 0.687,1.533 1.533,1.533l1.534,0l0,8.617c-0.006,1.142 0.251,2.27 0.751,3.297c0.459,0.961 1.111,1.817 1.917,2.515c1.18,1.022 2.647,1.654 4.201,1.808c0.264,0.032 0.531,0.047 0.797,0.047l3.067,0c0.217,0 0.423,-0.047 0.638,-0.065c-1.517,-0.169 -2.948,-0.793 -4.104,-1.79c-0.805,-0.698 -1.457,-1.554 -1.916,-2.515c-0.5,-1.027 -0.758,-2.155 -0.752,-3.297l0,-8.617l-1.532,0c-0.848,0 -1.534,-0.687 -1.534,-1.533l0,-6.717c0,-0.846 0.686,-1.533 1.534,-1.533l1.532,0c0,-4.753 -2.315,-9.43 -5.013,-13.232c-2.668,-3.742 -6.256,-6.762 -8.525,-10.81c-4.323,-7.708 -4.446,-17.08 -0.327,-24.899c4.119,-7.818 11.918,-13.017 20.719,-13.811c-0.745,-0.065 -1.487,-0.114 -2.253,-0.114c-0.768,-0.003 -1.536,0.033 -2.3,0.108c-13.45,1.191 -23.764,12.456 -23.767,25.959c0.002,4.467 1.148,8.858 3.327,12.757c2.27,4.048 5.858,7.068 8.526,10.81Z" style="fill:#fff;fill-rule:nonzero;"/><path d="M18.401,27.601c0.003,-7.121 2.758,-13.965 7.69,-19.102l0.393,-0.415l2.169,2.169l-0.35,0.369c-4.383,4.566 -6.832,10.65 -6.836,16.979l-3.066,0Z" style="fill:#fff;fill-rule:nonzero;"/><g><path d="M19.167,21.168c-0.502,2.108 -0.759,4.267 -0.766,6.433c-0.002,4.731 1.213,9.384 3.527,13.511c1.454,2.401 3.161,4.639 5.09,6.678c1.246,1.361 2.419,2.787 3.516,4.27c2.44,3.153 4.038,6.875 4.643,10.816c-1.655,0.049 -2.972,1.402 -2.976,3.057l0,6.134c0,1.694 1.373,3.067 3.066,3.067l0,7.666c0,1.967 0.636,3.881 1.811,5.457c0.034,0.049 0.068,0.097 0.106,0.143c1.736,2.267 4.428,3.598 7.283,3.6l3.067,0c5.079,-0.005 9.194,-4.121 9.199,-9.2l0,-7.666c1.694,0 3.068,-1.373 3.068,-3.067l0,-6.134c-0.005,-1.655 -1.323,-3.009 -2.978,-3.057c0.652,-4.051 2.321,-7.872 4.851,-11.104c1.091,-1.483 2.257,-2.907 3.493,-4.27c2.134,-2.244 3.974,-4.75 5.475,-7.458c1.944,-3.861 2.957,-8.122 2.958,-12.443c0,-11.163 -6.724,-21.227 -17.037,-25.5c-10.314,-4.271 -22.185,-1.91 -30.079,5.983l-0.393,0.415c-0.381,0.384 -0.741,0.789 -1.091,1.202c-0.277,0.311 -0.412,0.724 -0.373,1.138c0.038,0.415 0.247,0.795 0.577,1.05c0.654,0.498 1.579,0.412 2.13,-0.198c0.306,-0.367 0.63,-0.727 0.969,-1.073l0.35,-0.37c8.519,-8.531 21.975,-9.608 31.742,-2.54c9.768,7.069 12.952,20.187 7.51,30.946c-1.384,2.48 -3.077,4.773 -5.038,6.827c-1.306,1.441 -2.538,2.95 -3.689,4.519c-2.918,3.733 -4.795,8.172 -5.44,12.867l-15.474,0c-0.603,-4.583 -2.408,-8.925 -5.231,-12.585c-1.158,-1.572 -2.398,-3.081 -3.715,-4.522c-1.785,-1.878 -3.366,-3.94 -4.717,-6.151c-2.056,-3.668 -3.134,-7.803 -3.134,-12.008c0.006,-1.927 0.233,-3.847 0.678,-5.721c0.169,-0.805 -0.307,-1.604 -1.095,-1.84c-0.4,-0.115 -0.829,-0.059 -1.187,0.155c-0.356,0.214 -0.609,0.566 -0.696,0.973Zm19.834,64.357c-0.433,-0.844 -0.661,-1.777 -0.667,-2.725l0,-0.46l15.333,-5.576l0,3.43l-14.666,5.331Zm-0.667,-6.448l0,-3.943l10.845,0l-10.845,3.943Zm9.2,9.856l-3.067,0c-1.15,-0.003 -2.277,-0.333 -3.248,-0.95l12.379,-4.502c-0.339,3.096 -2.95,5.443 -6.064,5.452Zm7.666,-23l1.533,0l0,6.134l-21.466,0l0,-6.134l19.933,0Z" style="fill:#ffc240;fill-rule:nonzero;"/><path d="M21.435,16.579c0.053,0.09 0.119,0.171 0.195,0.243c0.061,0.076 0.133,0.142 0.215,0.195c0.085,0.058 0.174,0.109 0.267,0.154c0.372,0.155 0.788,0.173 1.173,0.049c0.181,-0.07 0.348,-0.174 0.49,-0.306c0.447,-0.383 0.628,-0.993 0.46,-1.557c-0.063,-0.189 -0.159,-0.366 -0.284,-0.521c-0.12,-0.16 -0.271,-0.296 -0.443,-0.399c-0.353,-0.205 -0.774,-0.26 -1.17,-0.153c-0.84,0.276 -1.3,1.179 -1.029,2.021l0.126,0.274Z" style="fill:#ffc240;fill-rule:nonzero;"/><path d="M30.821,12.421c-6.8,6.802 -8.249,17.294 -3.547,25.684c0.261,0.494 0.768,0.807 1.326,0.819c0.558,0.011 1.077,-0.283 1.357,-0.765c0.28,-0.483 0.276,-1.079 -0.012,-1.558c-4.024,-7.192 -2.78,-16.181 3.045,-22.011c0.6,-0.598 0.6,-1.57 0,-2.169c-0.599,-0.599 -1.57,-0.599 -2.169,0Z" style="fill:#ffc240;fill-rule:nonzero;"/><path d="M31.627,43.742c1.385,1.518 2.689,3.109 3.907,4.764c0.496,0.677 1.443,0.829 2.126,0.342c0.683,-0.486 0.849,-1.431 0.372,-2.121c-1.282,-1.745 -2.655,-3.421 -4.116,-5.02l-2.289,2.035Z" style="fill:#ffc240;fill-rule:nonzero;"/><path d="M46.001,7.668c-0.847,0 -1.534,0.686 -1.534,1.533l0,3.206c-0.703,0.114 -1.39,0.311 -2.047,0.584c-2.204,0.935 -3.959,2.69 -4.894,4.895c-1.458,3.45 -0.678,7.44 1.972,10.087c1.723,1.727 4.063,2.697 6.503,2.694c0.819,-0.002 1.631,0.162 2.385,0.482c1.472,0.623 2.644,1.795 3.266,3.267c0.642,1.525 0.642,3.245 0,4.77c-0.958,2.274 -3.185,3.752 -5.651,3.752c-2.467,0 -4.694,-1.478 -5.652,-3.752c-0.347,-0.752 -1.228,-1.093 -1.991,-0.771c-0.763,0.323 -1.131,1.194 -0.832,1.966c1.214,2.902 3.837,4.974 6.941,5.483l0,3.203c0,0.847 0.687,1.533 1.534,1.533c0.846,0 1.533,-0.686 1.533,-1.533l0,-3.203c4.695,-0.818 7.988,-5.085 7.589,-9.833c-0.398,-4.749 -4.357,-8.407 -9.122,-8.43c-0.82,0.002 -1.632,-0.162 -2.386,-0.482c-1.473,-0.623 -2.644,-1.795 -3.266,-3.267c-0.642,-1.525 -0.642,-3.245 0,-4.77c0.958,-2.274 3.185,-3.752 5.652,-3.752c2.466,0 4.693,1.478 5.651,3.752c0.346,0.752 1.228,1.093 1.991,0.77c0.762,-0.322 1.131,-1.192 0.832,-1.965c-1.21,-2.904 -3.835,-4.976 -6.941,-5.48l0,-3.206c0,-0.847 -0.687,-1.533 -1.533,-1.533Z" style="fill:#ffc240;fill-rule:nonzero;"/><path d="M1.534,29.134l12.267,0c0.847,0 1.533,-0.686 1.533,-1.533c0,-0.847 -0.686,-1.533 -1.533,-1.533l-12.267,0c-0.846,0 -1.533,0.686 -1.533,1.533c0,0.847 0.687,1.533 1.533,1.533Z" style="fill:#ffc240;fill-rule:nonzero;"/><path d="M18.324,11.292c0.602,0.581 1.558,0.573 2.149,-0.018c0.592,-0.592 0.601,-1.548 0.019,-2.15l-8.674,-8.673c-0.601,-0.582 -1.558,-0.573 -2.149,0.018c-0.592,0.592 -0.6,1.548 -0.019,2.149l8.674,8.674Z" style="fill:#ffc240;fill-rule:nonzero;"/><path d="M17.317,43.383l-8.674,8.674c-0.399,0.385 -0.559,0.955 -0.418,1.491c0.14,0.537 0.558,0.955 1.095,1.095c0.536,0.141 1.106,-0.019 1.491,-0.418l8.674,-8.674c0.581,-0.602 0.573,-1.558 -0.019,-2.149c-0.591,-0.592 -1.547,-0.6 -2.149,-0.019Z" style="fill:#ffc240;fill-rule:nonzero;"/><path d="M90.467,26.068l-12.267,0c-0.847,0 -1.533,0.686 -1.533,1.533c0,0.847 0.686,1.533 1.533,1.533l12.267,0c0.847,0 1.533,-0.686 1.533,-1.533c0,-0.847 -0.686,-1.533 -1.533,-1.533Z" style="fill:#ffc240;fill-rule:nonzero;"/><path d="M72.593,11.741c0.406,0 0.796,-0.161 1.084,-0.449l8.674,-8.674c0.581,-0.601 0.573,-1.557 -0.019,-2.149c-0.591,-0.591 -1.547,-0.6 -2.149,-0.018l-8.674,8.673c-0.439,0.439 -0.57,1.098 -0.333,1.671c0.238,0.573 0.797,0.946 1.417,0.946Z" style="fill:#ffc240;fill-rule:nonzero;"/><path d="M72.516,43.383c-0.598,0.599 -0.598,1.569 0,2.168l8.674,8.674c0.602,0.581 1.558,0.573 2.149,-0.018c0.592,-0.592 0.601,-1.548 0.019,-2.15l-8.674,-8.674c-0.598,-0.598 -1.569,-0.598 -2.168,0Z" style="fill:#ffc240;fill-rule:nonzero;"/></g></g></svg>