<?xml version="1.0" encoding="UTF-8" standalone="no"?><!DOCTYPE svg PUBLIC "-//W3C//DTD SVG 1.1//EN" "http://www.w3.org/Graphics/SVG/1.1/DTD/svg11.dtd"><svg width="100%" height="100%" viewBox="0 0 77 77" version="1.1" xmlns="http://www.w3.org/2000/svg" xmlns:xlink="http://www.w3.org/1999/xlink" xml:space="preserve" xmlns:serif="http://www.serif.com/" style="fill-rule:evenodd;clip-rule:evenodd;stroke-linejoin:round;stroke-miterlimit:1.41421;"><clipPath id="_clip1"><rect id="startup--2-" serif:id="startup (2)" x="0" y="0" width="76.007" height="76.007"/></clipPath><g clip-path="url(#_clip1)"><path d="M5.067,11.395l65.873,0c2.098,0 3.8,1.702 3.8,3.801l0,44.337c0,2.099 -1.702,3.8 -3.8,3.8l-65.873,0c-2.099,0 -3.8,-1.701 -3.8,-3.8l0,-44.337c0,-2.099 1.701,-3.801 3.8,-3.801Z" style="fill:#ffa0e7;fill-rule:nonzero;"/><path d="M5.067,11.395l62.072,0c2.099,0 3.801,1.702 3.801,3.801l0,44.337c0,2.099 -1.702,3.8 -3.801,3.8l-62.072,0c-2.099,0 -3.8,-1.701 -3.8,-3.8l0,-44.337c0,-2.099 1.701,-3.801 3.8,-3.801Z" style="fill:#ffdcf6;fill-rule:nonzero;"/><path d="M58.272,73.468c0,0.699 -0.568,1.266 -1.267,1.266l-38.003,0c-0.7,0 -1.267,-0.567 -1.267,-1.266c-0.068,-1.178 0.497,-2.303 1.482,-2.952c1.092,-0.613 2.334,-0.907 3.585,-0.849l30.402,0c2.8,0 5.068,1.001 5.068,3.801Z" style="fill:#ff9ae5;fill-rule:nonzero;"/><path d="M54.471,73.468c0,0.699 -0.567,1.266 -1.267,1.266l-34.202,0c-0.7,0 -1.267,-0.567 -1.267,-1.266c-0.068,-1.178 0.497,-2.303 1.482,-2.952c1.092,-0.613 2.334,-0.907 3.585,-0.849l26.602,0c2.8,0 5.067,1.001 5.067,3.801Z" style="fill:#ffc3f0;fill-rule:nonzero;"/><path d="M51.938,69.667l-27.869,0l2.533,-6.334l22.802,0l2.534,6.334Z" style="fill:#ff9ae5;fill-rule:nonzero;"/><path d="M69.673,48.132l0,2.534c-0.004,1.397 -1.136,2.529 -2.534,2.533l-58.271,0c-1.398,-0.004 -2.53,-1.136 -2.534,-2.533l0,-2.534l6.334,0c0,-2.099 1.701,-3.8 3.8,-3.8c0.469,-0.004 0.934,0.087 1.368,0.266c0.32,-1.601 1.392,-2.948 2.88,-3.62c1.488,-0.671 3.208,-0.583 4.62,0.237l5.067,-4.281l4.889,-1.634l1.578,3.167c0.214,0.429 0.653,0.701 1.133,0.701c0.48,0 0.92,-0.272 1.134,-0.701l1.577,-3.167l4.89,1.634l5.067,4.281c1.411,-0.82 3.132,-0.908 4.619,-0.237c1.488,0.672 2.561,2.019 2.881,3.62c0.433,-0.179 0.898,-0.27 1.368,-0.266c2.099,0 3.8,1.701 3.8,3.8l6.334,0Z" style="fill:#fff1fb;fill-rule:nonzero;"/><path d="M45.794,30.689l4.18,2.094c0.429,0.214 0.7,0.653 0.7,1.132l0,4.911c0,0.508 -0.303,0.967 -0.771,1.166c-0.467,0.199 -1.008,0.099 -1.374,-0.252l-2.925,-2.806l-4.89,-1.634l-5.422,0l-4.889,1.634l-2.923,2.806c-0.366,0.351 -0.907,0.451 -1.374,0.252c-0.467,-0.199 -0.77,-0.658 -0.77,-1.166l0,-4.911c0,-0.479 0.27,-0.918 0.699,-1.132l4.18,-2.094l15.579,0Z" style="fill:#ff9ae5;fill-rule:nonzero;"/><path d="M34.532,33.792l0.76,1.508l1.578,3.167c0.214,0.429 0.653,0.701 1.133,0.701c0.48,0 0.92,-0.272 1.134,-0.701l1.577,-3.167l0.761,-1.508l-6.943,0Z" style="fill:#ff9ae5;fill-rule:nonzero;"/><path d="M27.122,24.038l-7.36,2.006c-0.429,0.118 -0.887,0.002 -1.209,-0.304c-0.321,-0.307 -0.459,-0.759 -0.362,-1.193l1.929,-8.681c0.093,-0.418 0.391,-0.761 0.792,-0.911l7.261,-2.723l-1.051,11.806Z" style="fill:#ff9ae5;fill-rule:nonzero;"/><path d="M47.834,12.232l7.262,2.723c0.401,0.15 0.699,0.493 0.792,0.911l1.929,8.681c0.097,0.434 -0.041,0.886 -0.363,1.193c-0.321,0.306 -0.78,0.422 -1.208,0.304l-7.361,-2.006l-1.051,-11.806Z" style="fill:#ff9ae5;fill-rule:nonzero;"/><path d="M49.404,18.996c0,9.795 -5.104,15.405 -11.401,15.405c-6.297,0 -11.401,-5.61 -11.401,-15.405c0,-6.814 5.518,-13.808 8.877,-16.774c1.439,-1.28 3.609,-1.28 5.049,0c3.358,2.966 8.876,9.96 8.876,16.774Z" style="fill:#ecf4ff;fill-rule:nonzero;"/><path d="M43.07,18.996c0,2.799 -2.268,5.067 -5.067,5.067c-2.798,0 -5.067,-2.268 -5.067,-5.067c0,-2.798 2.269,-5.067 5.067,-5.067c2.799,0 5.067,2.269 5.067,5.067Z" style="fill:#d4e1f4;fill-rule:nonzero;"/><path d="M44.16,6.176c-1.904,0.972 -4.019,1.46 -6.157,1.419c-2.137,0.041 -4.252,-0.447 -6.156,-1.419c1.086,-1.427 2.303,-2.751 3.636,-3.952c1.437,-1.279 3.604,-1.279 5.041,0c1.333,1.201 2.55,2.525 3.636,3.952Z" style="fill:#e3e7f2;fill-rule:nonzero;"/><path d="M5.067,63.333l3.801,0c-2.1,0 -3.801,-1.701 -3.801,-3.8l0,-44.337c0,-2.099 1.701,-3.801 3.801,-3.801l-3.801,0c-2.099,0 -3.8,1.702 -3.8,3.801l0,44.337c0,2.099 1.701,3.8 3.8,3.8Z" style="fill:#fff;fill-rule:nonzero;"/><path d="M28.567,11.395l3.8,0c1.347,-2.702 3.074,-5.197 5.13,-7.409l0.085,-0.091c0.599,-0.642 1.176,-1.211 1.699,-1.673c0.194,-0.17 0.402,-0.319 0.625,-0.446c-1.417,-0.82 -3.2,-0.641 -4.425,0.446c-0.523,0.462 -1.101,1.031 -1.7,1.673l-0.084,0.091c-2.056,2.212 -3.783,4.707 -5.13,7.409Z" style="fill:#fff;fill-rule:nonzero;"/><path d="M22.802,69.667c-1.251,-0.058 -2.493,0.236 -3.585,0.849c-0.985,0.649 -1.55,1.774 -1.482,2.952c0,0.699 0.567,1.266 1.267,1.266l3.8,0c-0.7,0 -1.267,-0.567 -1.267,-1.266c-0.068,-1.178 0.497,-2.303 1.482,-2.952c1.092,-0.613 2.334,-0.907 3.585,-0.849l1.267,0l2.534,-6.334l-3.801,0l-2.533,6.334l-1.267,0Z" style="fill:#fff;fill-rule:nonzero;"/><rect x="0" y="15.196" width="2.534" height="44.337" style="fill:#fff;fill-rule:nonzero;"/><g><path d="M1.267,21.53c0.699,0 1.267,-0.567 1.267,-1.267l0,-5.067c0,-1.399 1.134,-2.534 2.533,-2.534l12.668,0c0.7,0 1.267,-0.567 1.267,-1.267c0,-0.699 -0.567,-1.266 -1.267,-1.266l-12.668,0c-2.798,0 -5.067,2.268 -5.067,5.067l0,5.067c0,0.7 0.567,1.267 1.267,1.267Z" style="fill:#ff4dd1;fill-rule:nonzero;"/><path d="M1.748,24.165c-0.072,-0.037 -0.149,-0.063 -0.228,-0.077c-0.084,-0.014 -0.168,-0.022 -0.253,-0.025c-0.336,0.005 -0.657,0.136 -0.899,0.368c-0.115,0.121 -0.206,0.263 -0.267,0.418c-0.191,0.472 -0.087,1.013 0.267,1.38c0.12,0.115 0.262,0.205 0.417,0.267c0.153,0.064 0.316,0.099 0.482,0.101c0.335,-0.005 0.656,-0.136 0.899,-0.368c0.49,-0.499 0.49,-1.299 0,-1.798l-0.19,-0.152c-0.07,-0.049 -0.147,-0.087 -0.228,-0.114Z" style="fill:#ff4dd1;fill-rule:nonzero;"/><path d="M70.94,10.129l-12.668,0c-0.7,0 -1.267,0.567 -1.267,1.266c0,0.7 0.567,1.267 1.267,1.267l12.668,0c1.399,0 2.533,1.135 2.533,2.534l0,44.337c0,1.4 -1.134,2.534 -2.533,2.534l-65.873,0c-1.399,0 -2.533,-1.134 -2.533,-2.534l0,-29.136c0,-0.699 -0.568,-1.266 -1.267,-1.266c-0.7,0 -1.267,0.567 -1.267,1.266l0,29.136c0,2.799 2.269,5.067 5.067,5.067l19.665,0l-1.521,3.8l-0.409,0c-3.966,0 -6.334,1.894 -6.334,5.068c0,1.399 1.134,2.533 2.534,2.533l38.003,0c1.399,0 2.534,-1.134 2.534,-2.533c0,-3.174 -2.368,-5.068 -6.335,-5.068l-0.408,0l-1.521,-3.8l19.665,0c2.798,0 5.067,-2.268 5.067,-5.067l0,-44.337c0,-2.799 -2.269,-5.067 -5.067,-5.067Zm-13.935,63.339l-38.003,0c0,-0.628 0,-2.534 3.8,-2.534l30.402,0c3.801,0 3.801,1.906 3.801,2.534Zm-6.939,-5.068l-24.126,0l1.52,-3.8l21.087,0l1.519,3.8Z" style="fill:#ff4dd1;fill-rule:nonzero;"/><path d="M31.669,57c-0.699,0 -1.266,0.567 -1.266,1.266c0,0.7 0.567,1.267 1.266,1.267l12.668,0c0.7,0 1.267,-0.567 1.267,-1.267c0,-0.699 -0.567,-1.266 -1.267,-1.266l-12.668,0Z" style="fill:#ff4dd1;fill-rule:nonzero;"/><path d="M38.003,12.662c-3.498,0 -6.334,2.836 -6.334,6.334c0,3.498 2.836,6.334 6.334,6.334c3.498,0 6.334,-2.836 6.334,-6.334c-0.004,-3.496 -2.838,-6.33 -6.334,-6.334Zm0,10.134c-2.098,0 -3.8,-1.701 -3.8,-3.8c0,-2.099 1.702,-3.8 3.8,-3.8c2.099,0 3.801,1.701 3.801,3.8c0,2.099 -1.702,3.8 -3.801,3.8Z" style="fill:#ff4dd1;fill-rule:nonzero;"/><path d="M55.913,27.267c0.22,0.06 0.447,0.091 0.675,0.091c0.768,-0.002 1.493,-0.352 1.972,-0.952c0.479,-0.599 0.66,-1.383 0.493,-2.133l-1.929,-8.68c-0.185,-0.837 -0.781,-1.524 -1.583,-1.825l-6.79,-2.546c-1.809,-3.754 -4.314,-7.131 -7.383,-9.949c-1.922,-1.697 -4.807,-1.697 -6.729,0c-3.069,2.818 -5.575,6.195 -7.383,9.949l-6.79,2.546c-0.802,0.301 -1.398,0.988 -1.583,1.825l-1.929,8.68c-0.167,0.75 0.015,1.534 0.494,2.133c0.479,0.599 1.203,0.948 1.971,0.951c0.227,0 0.455,-0.031 0.675,-0.091l6.135,-1.672c0.464,1.636 1.172,3.194 2.099,4.621l-2.866,1.435c-0.857,0.429 -1.397,1.307 -1.393,2.265l0,5.494c-0.416,-0.092 -0.841,-0.14 -1.267,-0.144c-2.526,0.007 -4.808,1.509 -5.813,3.827c-2.489,-0.257 -4.79,1.349 -5.408,3.773l-3.98,0l0,-27.869c0,-0.699 0.567,-1.267 1.267,-1.267l6.333,0c0.7,0 1.267,-0.567 1.267,-1.266c0,-0.7 -0.567,-1.267 -1.267,-1.267l-6.333,0c-2.1,0 -3.801,1.701 -3.801,3.8l0,31.67c0,2.098 1.701,3.8 3.801,3.8l58.271,0c2.099,0 3.801,-1.702 3.801,-3.8l0,-31.67c0,-2.099 -1.702,-3.8 -3.801,-3.8l-6.333,0c-0.7,0 -1.267,0.567 -1.267,1.267c0,0.699 0.567,1.266 1.267,1.266l6.333,0c0.7,0 1.267,0.568 1.267,1.267l0,27.869l-3.98,0c-0.618,-2.424 -2.919,-4.03 -5.408,-3.773c-1.005,-2.318 -3.288,-3.82 -5.814,-3.827c-0.425,0.004 -0.85,0.052 -1.266,0.144l0,-5.494c0.004,-0.958 -0.536,-1.836 -1.393,-2.265l-2.861,-1.434c0.927,-1.426 1.635,-2.985 2.1,-4.621l6.129,1.672Zm-1.267,-11.126l1.935,8.682l-6.252,-1.705c0.227,-1.362 0.342,-2.741 0.342,-4.122c-0.016,-1.565 -0.258,-3.119 -0.717,-4.616l4.692,1.761Zm-16.643,16.992c-1.049,0.004 -2.09,-0.18 -3.074,-0.544c-4.324,-1.604 -7.06,-6.664 -7.06,-13.593c0,-3.887 2.027,-7.994 4.382,-11.249c1.825,0.748 3.78,1.127 5.752,1.115c1.973,0.012 3.928,-0.367 5.753,-1.115c2.355,3.255 4.381,7.362 4.381,11.249c0,8.456 -4.072,14.137 -10.134,14.137Zm1.149,2.468l-1.149,2.296l-1.148,-2.296c0.379,0.037 0.759,0.066 1.148,0.066c0.389,0 0.772,-0.029 1.149,-0.066Zm-2.835,-32.43c0.963,-0.85 2.409,-0.85 3.373,0c0.864,0.78 1.677,1.615 2.431,2.503c-1.328,0.441 -2.719,0.662 -4.118,0.654c-1.398,0.008 -2.789,-0.213 -4.117,-0.654c0.754,-0.888 1.566,-1.724 2.431,-2.504l0,0.001Zm-16.891,21.652l1.929,-8.681l4.697,-1.761c-0.458,1.496 -0.699,3.05 -0.716,4.615c0,1.381 0.115,2.76 0.341,4.122l-6.251,1.705Zm7.176,9.092l3.342,-1.675c0.965,0.994 2.102,1.804 3.356,2.391l-3.294,1.102c-0.014,0 -0.024,0.017 -0.038,0.023c-0.132,0.051 -0.254,0.126 -0.361,0.219c-0.022,0.019 -0.054,0.025 -0.076,0.046l-0.019,0.017l-2.91,2.788l0,-4.911Zm30.327,10.934c0.075,0.373 0.315,0.692 0.651,0.869c0.337,0.178 0.736,0.194 1.086,0.045c0.277,-0.112 0.574,-0.168 0.873,-0.164c1.399,0 2.533,1.134 2.533,2.533c0,0.7 0.567,1.267 1.267,1.267l5.067,0l0,1.267c0,0.699 -0.567,1.266 -1.267,1.266l-58.271,0c-0.7,0 -1.267,-0.567 -1.267,-1.266l0,-1.267l5.067,0c0.7,0 1.267,-0.567 1.267,-1.267c0,-1.399 1.134,-2.533 2.533,-2.533c0.299,-0.004 0.596,0.052 0.873,0.164c0.35,0.149 0.749,0.133 1.085,-0.045c0.337,-0.177 0.576,-0.496 0.652,-0.869c0.361,-1.771 1.917,-3.045 3.724,-3.051c0.448,0.009 0.89,0.1 1.306,0.266c0.093,0.449 0.423,0.811 0.861,0.945c0.437,0.135 0.914,0.021 1.243,-0.298l2.924,-2.805l0,6.959c0,0.7 0.567,1.267 1.267,1.267c0.699,0 1.266,-0.567 1.266,-1.267l0,-9.019l2.977,-0.994l1.09,2.176c0.429,0.86 1.306,1.403 2.267,1.403c0.961,0 1.839,-0.543 2.268,-1.403l1.089,-2.176l2.977,0.994l0,9.019c0,0.7 0.568,1.267 1.267,1.267c0.7,0 1.267,-0.567 1.267,-1.267l0,-6.959l2.924,2.805c0.329,0.32 0.805,0.435 1.243,0.3c0.438,-0.135 0.768,-0.498 0.861,-0.947c0.415,-0.166 0.858,-0.257 1.305,-0.266c1.808,0.006 3.363,1.28 3.725,3.051Zm-7.525,-6.023l-2.904,-2.787l-0.019,-0.017c-0.022,-0.02 -0.054,-0.027 -0.076,-0.046c-0.107,-0.093 -0.229,-0.167 -0.362,-0.219c-0.013,0 -0.023,-0.018 -0.037,-0.023l-3.294,-1.102c1.254,-0.587 2.391,-1.397 3.356,-2.39l3.336,1.673l0,4.911Z" style="fill:#ff4dd1;fill-rule:nonzero;"/></g></g></svg>