<?xml version="1.0" encoding="UTF-8" standalone="no"?><!DOCTYPE svg PUBLIC "-//W3C//DTD SVG 1.1//EN" "http://www.w3.org/Graphics/SVG/1.1/DTD/svg11.dtd"><svg width="100%" height="100%" viewBox="0 0 120 120" version="1.1" xmlns="http://www.w3.org/2000/svg" xmlns:xlink="http://www.w3.org/1999/xlink" xml:space="preserve" xmlns:serif="http://www.serif.com/" style="fill-rule:evenodd;clip-rule:evenodd;stroke-linejoin:round;stroke-miterlimit:1.41421;"><path d="M34.874,61.777l0,43.841l11.957,0l0,-31.885l0,31.885l11.957,0l0,-43.841l-23.914,0Z" style="fill:#bddbff;fill-rule:nonzero;"/><path d="M40.852,9.964l3.986,1.993l9.964,0l0,-1.993c0,-4.402 -3.569,-7.971 -7.971,-7.971l-3.986,0c-4.402,0 -7.971,3.569 -7.971,7.971l0,1.993l3.986,0l1.992,-1.993Z" style="fill:#bddbff;fill-rule:nonzero;"/><path d="M50.816,29.892l-5.978,13.95l0,17.935l13.95,0l0,-23.914l27.899,0l0,-7.971l-35.871,0Z" style="fill:#bddbff;fill-rule:nonzero;"/><path d="M44.838,43.842l-5.978,-13.95l-19.928,0l0,-19.928l-7.972,0l0,23.914c0,2.201 1.785,3.985 3.986,3.985l15.942,0l0,23.914l13.95,0l0,-17.935Z" style="fill:#bddbff;fill-rule:nonzero;"/><path d="M90.672,3.986l0,15.942l23.914,0l-5.979,-7.971l5.979,-7.971l-23.914,0Z" style="fill:#bddbff;fill-rule:nonzero;"/><g><rect x="50.816" y="39.856" width="3.986" height="3.986" style="fill:#428dff;fill-rule:nonzero;"/><rect x="70.744" y="3.986" width="3.986" height="3.986" style="fill:#428dff;fill-rule:nonzero;"/><rect x="74.73" y="7.971" width="3.986" height="3.986" style="fill:#428dff;fill-rule:nonzero;"/><rect x="70.744" y="11.957" width="3.986" height="3.986" style="fill:#428dff;fill-rule:nonzero;"/><rect x="65.762" y="7.971" width="3.986" height="3.986" style="fill:#428dff;fill-rule:nonzero;"/><rect x="104.622" y="71.741" width="3.986" height="3.986" style="fill:#428dff;fill-rule:nonzero;"/><rect x="108.607" y="75.726" width="3.986" height="3.986" style="fill:#428dff;fill-rule:nonzero;"/><rect x="104.622" y="79.712" width="3.986" height="3.986" style="fill:#428dff;fill-rule:nonzero;"/><rect x="100.636" y="75.726" width="3.986" height="3.986" style="fill:#428dff;fill-rule:nonzero;"/><rect x="6.975" y="51.813" width="3.986" height="3.986" style="fill:#428dff;fill-rule:nonzero;"/><rect x="2.989" y="55.798" width="3.986" height="3.986" style="fill:#428dff;fill-rule:nonzero;"/><rect x="6.975" y="59.784" width="3.986" height="3.986" style="fill:#428dff;fill-rule:nonzero;"/><rect x="10.96" y="55.798" width="3.986" height="3.986" style="fill:#428dff;fill-rule:nonzero;"/><path d="M54.802,17.935l0,-3.985c1.1,0 1.993,-0.893 1.993,-1.993l0,-1.993c-0.007,-5.501 -4.464,-9.957 -9.964,-9.964l-3.986,0c-5.5,0.007 -9.957,4.463 -9.964,9.964l0,1.993c0,1.1 0.892,1.993 1.993,1.993l0,3.985c0,5.503 4.461,9.964 9.964,9.964c5.503,0 9.964,-4.461 9.964,-9.964Zm-11.957,-13.949l3.986,0c3.301,0 5.978,2.676 5.978,5.978l-7.501,0l-3.565,-1.784c-0.767,-0.383 -1.693,-0.231 -2.3,0.375l-1.409,1.409l-1.167,0c0,-3.302 2.677,-5.978 5.978,-5.978Zm1.993,19.928c-3.302,0 -5.978,-2.677 -5.978,-5.979l0,-3.985c0.528,0 1.035,-0.211 1.409,-0.584l0.975,-0.977l2.704,1.351c0.276,0.139 0.581,0.21 0.89,0.21l5.978,0l0,3.985c0,3.302 -2.677,5.979 -5.978,5.979Z" style="fill:#428dff;fill-rule:nonzero;"/><path d="M111.098,11.957l5.082,-6.776c0.453,-0.604 0.526,-1.411 0.188,-2.087c-0.337,-0.675 -1.027,-1.101 -1.782,-1.101l-23.914,0c-1.1,0 -1.993,0.892 -1.993,1.993l0,23.913l-67.755,0l0,-25.906c0,-1.101 -0.892,-1.993 -1.992,-1.993l-7.972,0c-1.1,0 -1.992,0.892 -1.992,1.993l0,31.885c0,3.301 2.676,5.978 5.978,5.978l13.95,0l0,21.921c0,1.1 0.892,1.993 1.992,1.993l0,39.855l-9.964,0c-1.1,0 -1.992,0.893 -1.992,1.993l0,11.957c0,1.101 0.892,1.993 1.992,1.993l47.827,0c1.101,0 1.993,-0.892 1.993,-1.993l0,-11.957c0,-1.1 -0.892,-1.993 -1.993,-1.993l-9.963,0l0,-39.855c1.1,0 1.992,-0.893 1.992,-1.993l0,-21.921l27.899,0l0,65.762l3.986,0l0,-65.762l1.993,0c1.1,0 1.993,-0.892 1.993,-1.993l0,-7.971c0,-1.101 -0.893,-1.993 -1.993,-1.993l-1.993,0l0,-5.978l21.921,0c0.755,0 1.445,-0.426 1.782,-1.102c0.338,-0.675 0.265,-1.483 -0.188,-2.087l-5.082,-6.775Zm-63.305,19.928l-2.955,6.897l-2.955,-6.897l5.91,0Zm-34.84,-27.899l3.986,0l0,3.985l-3.986,0l0,-3.985Zm1.993,31.884c-1.101,0 -1.993,-0.892 -1.993,-1.992l0,-21.921l3.986,0l0,17.935c0,1.1 0.892,1.993 1.993,1.993l18.614,0l5.299,12.365l0,15.534l-9.964,0l0,-21.921c0,-1.1 -0.892,-1.993 -1.993,-1.993l-15.942,0Zm51.813,79.712l-43.842,0l0,-7.971l43.842,0l0,7.971Zm-11.957,-11.957l-7.971,0l0,-29.892l-3.986,0l0,29.892l-7.971,0l0,-39.855l19.928,0l0,39.855Zm3.986,-67.755c-1.101,0 -1.993,0.893 -1.993,1.993l0,21.921l-9.964,0l0,-15.544l5.299,-12.355l32.564,0l0,3.985l-25.906,0Zm33.877,0l-3.986,0l0,-3.985l3.986,0l0,3.985Zm14.349,-22.717l3.586,4.782l-17.935,0l0,-11.957l17.935,0l-3.586,4.783c-0.533,0.708 -0.533,1.683 0,2.392Z" style="fill:#428dff;fill-rule:nonzero;"/></g></svg>