<?xml version="1.0" encoding="UTF-8" standalone="no"?><!DOCTYPE svg PUBLIC "-//W3C//DTD SVG 1.1//EN" "http://www.w3.org/Graphics/SVG/1.1/DTD/svg11.dtd"><svg width="100%" height="100%" viewBox="0 0 71 71" version="1.1" xmlns="http://www.w3.org/2000/svg" xmlns:xlink="http://www.w3.org/1999/xlink" xml:space="preserve" xmlns:serif="http://www.serif.com/" style="fill-rule:evenodd;clip-rule:evenodd;stroke-linejoin:round;stroke-miterlimit:1.41421;"><clipPath id="_clip1"><rect id="website--1-" serif:id="website (1)" x="0" y="0" width="70.604" height="70.604"/></clipPath><g clip-path="url(#_clip1)"><path d="M12.944,48.246l0,-23.535c0,-1.3 1.054,-2.353 2.353,-2.353l51.776,0c1.3,0 2.354,1.053 2.354,2.353l0,42.362c0,1.3 -1.054,2.354 -2.354,2.354l-51.776,0c-1.299,0 -2.353,-1.054 -2.353,-2.354l0,-18.827Z" style="fill:#cfcfcf;fill-rule:nonzero;"/><path d="M12.944,48.246l0,-23.535c-0.04,-1.259 0.948,-2.312 2.206,-2.353l48.54,0c1.259,0.041 2.246,1.094 2.207,2.353l0,42.362c0.039,1.259 -0.948,2.312 -2.207,2.354l-48.54,0c-1.258,-0.042 -2.246,-1.095 -2.206,-2.354l0,-18.827Z" style="fill:#eee;fill-rule:nonzero;"/><path d="M12.944,47.069l0,-15.298l56.483,0l0,28.242l-56.483,0" style="fill:#cfcfcf;fill-rule:nonzero;"/><path d="M12.944,47.069l0,-15.297l52.953,0l0,28.241l-52.953,0" style="fill:#fff;fill-rule:nonzero;"/><path d="M51.776,3.53l0,18.828l-36.479,0c-1.298,0.003 -2.349,1.055 -2.353,2.353l0,21.181l-9.414,0c-1.298,-0.003 -2.349,-1.055 -2.353,-2.353l0,-40.009c0.004,-1.298 1.055,-2.349 2.353,-2.353l45.892,0c1.298,0.004 2.35,1.055 2.354,2.353Z" style="fill:#cfcfcf;fill-rule:nonzero;"/><path d="M48.246,3.53l0,18.828l-33.57,0c-1.298,0.003 -2.35,1.055 -2.354,2.353l0,21.181l-8.792,0c-1.298,-0.003 -2.349,-1.055 -2.353,-2.353l0,-40.009c0.004,-1.298 1.055,-2.349 2.353,-2.353l42.362,0c1.299,0.004 2.35,1.055 2.354,2.353Z" style="fill:#fff;fill-rule:nonzero;"/><path d="M51.776,3.53l0,7.061l-50.599,0l0,-7.061c0.004,-1.298 1.055,-2.349 2.353,-2.353l45.892,0c1.298,0.004 2.35,1.055 2.354,2.353Z" style="fill:#cfcfcf;fill-rule:nonzero;"/><path d="M9.414,36.479l0,9.413l-6.59,0c-0.906,0 -1.647,-1.059 -1.647,-2.353l0,-7.06l8.237,0Z" style="fill:#eee;fill-rule:nonzero;"/><path d="M48.246,3.53l0,7.061l-47.069,0l0,-7.061c-0.04,-1.252 0.937,-2.302 2.189,-2.353l42.691,0c1.252,0.051 2.229,1.101 2.189,2.353Z" style="fill:#eee;fill-rule:nonzero;"/><path d="M3.507,63.743l3.33,-3.33l3.33,3.33l-3.33,3.33l-3.33,-3.33Z" style="fill:#eee;fill-rule:nonzero;"/><path d="M6.837,67.073l-1.659,1.66c-0.489,0.493 -1.171,0.744 -1.864,0.688c-0.691,-0.057 -1.323,-0.417 -1.725,-0.983c-0.655,-0.987 -0.506,-2.302 0.352,-3.118l1.566,-1.577l3.33,3.33Z" style="fill:#d4e1f4;fill-rule:nonzero;"/><path d="M33.349,46.222c-0.47,4.283 -4.118,7.507 -8.426,7.449c-0.792,-0.018 -1.577,-0.153 -2.33,-0.401c-0.867,-0.301 -1.83,-0.092 -2.494,0.542l-9.932,9.931l-3.33,-3.33l9.932,-9.932c0.643,-0.654 0.853,-1.619 0.54,-2.482c-0.241,-0.758 -0.376,-1.547 -0.399,-2.342c-0.056,-4.305 3.169,-7.947 7.448,-8.414c1.199,-0.123 2.411,0.03 3.542,0.448l-4.425,4.424c-0.441,0.441 -0.69,1.04 -0.69,1.665c0,0.625 0.249,1.224 0.69,1.665l1.671,1.659c0.442,0.442 1.041,0.69 1.666,0.69c0.624,0 1.223,-0.248 1.665,-0.69l4.424,-4.424c0.406,1.134 0.559,2.342 0.448,3.542Z" style="fill:#eee;fill-rule:nonzero;"/><path d="M7.06,5.884c0,0.649 -0.527,1.176 -1.176,1.176c-0.65,0 -1.177,-0.527 -1.177,-1.176c0,-0.65 0.527,-1.177 1.177,-1.177c0.649,0 1.176,0.527 1.176,1.177Z" style="fill:#949494;fill-rule:nonzero;"/><path d="M11.767,5.884c0,0.649 -0.527,1.176 -1.176,1.176c-0.651,0 -1.177,-0.527 -1.177,-1.176c0,-0.65 0.526,-1.177 1.177,-1.177c0.649,0 1.176,0.527 1.176,1.177Z" style="fill:#949494;fill-rule:nonzero;"/><path d="M16.474,5.884c0,0.649 -0.527,1.176 -1.177,1.176c-0.65,0 -1.177,-0.527 -1.177,-1.176c0,-0.65 0.527,-1.177 1.177,-1.177c0.65,0 1.177,0.527 1.177,1.177Z" style="fill:#949494;fill-rule:nonzero;"/><path d="M18.828,27.065c0,0.65 -0.527,1.177 -1.177,1.177c-0.65,0 -1.177,-0.527 -1.177,-1.177c0,-0.65 0.527,-1.177 1.177,-1.177c0.65,0 1.177,0.527 1.177,1.177Z" style="fill:#949494;fill-rule:nonzero;"/><path d="M23.535,27.065c0,0.65 -0.527,1.177 -1.177,1.177c-0.65,0 -1.177,-0.527 -1.177,-1.177c0,-0.65 0.527,-1.177 1.177,-1.177c0.65,0 1.177,0.527 1.177,1.177Z" style="fill:#949494;fill-rule:nonzero;"/><path d="M28.242,27.065c0,0.65 -0.527,1.177 -1.177,1.177c-0.65,0 -1.177,-0.527 -1.177,-1.177c0,-0.65 0.527,-1.177 1.177,-1.177c0.65,0 1.177,0.527 1.177,1.177Z" style="fill:#949494;fill-rule:nonzero;"/><path d="M1.941,65.32c-0.858,0.816 -1.007,2.131 -0.352,3.118c0.402,0.566 1.034,0.926 1.725,0.983c0.693,0.056 1.375,-0.195 1.864,-0.688l0.108,-0.108c-0.056,-0.063 -0.118,-0.118 -0.167,-0.187c-0.655,-0.987 -0.506,-2.302 0.353,-3.118l1.565,-1.577l3.33,-3.33l6.107,-6.107l0,-8.414l-3.53,0l0,8.414l-9.437,9.437l-1.566,1.577Z" style="fill:#fff;fill-rule:nonzero;"/><path d="M15.15,69.427l3.53,0c-1.258,-0.042 -2.245,-1.095 -2.206,-2.354l0,-6.107l-3.53,3.53l0,2.577c-0.04,1.259 0.948,2.312 2.206,2.354Z" style="fill:#fff;fill-rule:nonzero;"/><path d="M2.824,45.892l3.53,0c-0.906,0 -1.647,-1.059 -1.647,-2.353l0,-40.009c-0.04,-1.252 0.937,-2.302 2.188,-2.353l-3.529,0c-1.252,0.051 -2.229,1.101 -2.189,2.353l0,40.009c0,1.294 0.741,2.353 1.647,2.353Z" style="fill:#fff;fill-rule:nonzero;"/><rect x="0" y="10.591" width="2.353" height="25.888" style="fill:#fff;fill-rule:nonzero;"/><g><path d="M3.53,47.069l8.237,0l0,1.177c0,0.649 0.527,1.176 1.177,1.176c0.65,0 1.176,-0.527 1.176,-1.176l0,-15.298l54.13,0l0,25.888l-47.069,0c-0.65,0 -1.177,0.527 -1.177,1.177c0,0.65 0.527,1.177 1.177,1.177l47.069,0l0,5.883c0,0.65 -0.527,1.177 -1.177,1.177l-51.776,0c-0.65,0 -1.177,-0.527 -1.177,-1.177c0,-0.649 -0.526,-1.176 -1.176,-1.176c-0.65,0 -1.177,0.527 -1.177,1.176c0,1.95 1.581,3.531 3.53,3.531l51.776,0c1.95,0 3.531,-1.581 3.531,-3.531l0,-42.362c0,-1.949 -1.581,-3.53 -3.531,-3.53l-14.12,0l0,-17.651c0,-1.95 -1.581,-3.53 -3.531,-3.53l-45.892,0c-1.95,0 -3.53,1.58 -3.53,3.53l0,40.009c0,1.949 1.58,3.53 3.53,3.53Zm0,-2.354c-0.65,0 -1.177,-0.526 -1.177,-1.176l0,-5.884l9.414,0l0,7.06l-8.237,0Zm64.72,-20.004l0,5.884l-54.13,0l0,-5.884c0,-0.649 0.527,-1.176 1.177,-1.176l51.776,0c0.65,0 1.177,0.527 1.177,1.176Zm-52.953,-3.53c-1.949,0 -3.53,1.581 -3.53,3.53l0,10.591l-9.414,0l0,-23.535l48.246,0l0,9.414l-35.302,0Zm-11.767,-18.828l45.892,0c0.65,0 1.177,0.527 1.177,1.177l0,5.884l-48.246,0l0,-5.884c0,-0.65 0.527,-1.177 1.177,-1.177Z" style="fill:#949494;fill-rule:nonzero;"/><path d="M8.237,14.12l-2.353,0c-0.65,0 -1.177,0.527 -1.177,1.177c0,0.65 0.527,1.177 1.177,1.177l2.353,0c0.65,0 1.177,-0.527 1.177,-1.177c0,-0.65 -0.527,-1.177 -1.177,-1.177Z" style="fill:#949494;fill-rule:nonzero;"/><path d="M8.237,18.828l-2.353,0c-0.65,0 -1.177,0.527 -1.177,1.176c0,0.65 0.527,1.177 1.177,1.177l2.353,0c0.65,0 1.177,-0.527 1.177,-1.177c0,-0.649 -0.527,-1.176 -1.177,-1.176Z" style="fill:#949494;fill-rule:nonzero;"/><path d="M8.237,23.535l-2.353,0c-0.65,0 -1.177,0.527 -1.177,1.176c0,0.65 0.527,1.177 1.177,1.177l2.353,0c0.65,0 1.177,-0.527 1.177,-1.177c0,-0.649 -0.527,-1.176 -1.177,-1.176Z" style="fill:#949494;fill-rule:nonzero;"/><path d="M8.237,28.242l-2.353,0c-0.65,0 -1.177,0.526 -1.177,1.176c0,0.65 0.527,1.177 1.177,1.177l2.353,0c0.65,0 1.177,-0.527 1.177,-1.177c0,-0.65 -0.527,-1.176 -1.177,-1.176Z" style="fill:#949494;fill-rule:nonzero;"/><path d="M47.069,14.12l-9.414,0c-0.649,0 -1.176,0.527 -1.176,1.177c0,0.65 0.527,1.177 1.176,1.177l9.414,0c0.65,0 1.177,-0.527 1.177,-1.177c0,-0.65 -0.527,-1.177 -1.177,-1.177Z" style="fill:#949494;fill-rule:nonzero;"/><path d="M32.948,14.12l-20.004,0c-0.65,0 -1.177,0.527 -1.177,1.177c0,0.65 0.527,1.177 1.177,1.177l20.004,0c0.65,0 1.177,-0.527 1.177,-1.177c0,-0.65 -0.527,-1.177 -1.177,-1.177Z" style="fill:#949494;fill-rule:nonzero;"/><path d="M6.009,59.583l-4.905,4.901c-1.26,1.227 -1.459,3.18 -0.471,4.634c0.605,0.847 1.552,1.385 2.589,1.47c0.095,0.009 0.19,0.012 0.286,0.012c0.936,0.001 1.833,-0.371 2.494,-1.034l4.991,-4.99l9.929,-9.929c0.349,-0.322 0.85,-0.42 1.295,-0.254c0.863,0.281 1.762,0.436 2.67,0.459c4.907,0.036 9.054,-3.631 9.619,-8.505c0.135,-1.375 -0.038,-2.762 -0.508,-4.06c-0.136,-0.38 -0.457,-0.663 -0.85,-0.752c-0.393,-0.088 -0.804,0.03 -1.09,0.315l-4.424,4.424c-0.466,0.443 -1.199,0.443 -1.665,0l-1.663,-1.664c-0.46,-0.46 -0.46,-1.205 0,-1.664l4.424,-4.426c0.285,-0.285 0.404,-0.697 0.315,-1.091c-0.089,-0.393 -0.373,-0.714 -0.753,-0.85c-1.298,-0.467 -2.683,-0.64 -4.056,-0.506c-4.883,0.549 -8.56,4.704 -8.509,9.618c0.023,0.909 0.179,1.809 0.46,2.672c0.171,0.445 0.073,0.948 -0.253,1.295l-9.925,9.925Zm0.83,5.826l-1.661,-1.663l1.665,-1.666l1.664,1.664l-1.668,1.665Zm-3.427,2.841c-0.35,-0.028 -0.669,-0.212 -0.869,-0.5c-0.313,-0.517 -0.22,-1.183 0.224,-1.595l0.741,-0.742l1.67,1.66l-0.833,0.832c-0.244,0.248 -0.586,0.374 -0.933,0.345Zm14.193,-16.935c0.949,-0.973 1.268,-2.399 0.824,-3.683c-0.211,-0.647 -0.327,-1.321 -0.344,-2.001c-0.039,-3.69 2.723,-6.81 6.391,-7.218c0.223,-0.023 0.448,-0.034 0.672,-0.034c0.129,0 0.261,0 0.391,0.011l-2.888,2.888c-0.662,0.662 -1.034,1.56 -1.034,2.497c0,0.936 0.372,1.834 1.034,2.496l1.664,1.664c0.662,0.662 1.56,1.034 2.496,1.034c0.937,0 1.835,-0.372 2.497,-1.034l2.887,-2.888c0.021,0.355 0.014,0.711 -0.021,1.065c-0.405,3.598 -3.422,6.333 -7.042,6.385c-0.057,0 -0.117,0 -0.175,0c-0.68,-0.016 -1.354,-0.131 -2,-0.342c-1.286,-0.445 -2.712,-0.126 -3.686,0.824l-9.104,9.101l-1.664,-1.664l9.102,-9.101Z" style="fill:#949494;fill-rule:nonzero;"/><path d="M56.483,35.302l-23.535,0c-0.65,0 -1.177,0.527 -1.177,1.177c0,0.649 0.527,1.176 1.177,1.176l23.535,0c0.65,0 1.176,-0.527 1.176,-1.176c0,-0.65 -0.526,-1.177 -1.176,-1.177Z" style="fill:#949494;fill-rule:nonzero;"/><path d="M64.72,37.655c0.65,0 1.177,-0.527 1.177,-1.176c0,-0.65 -0.527,-1.177 -1.177,-1.177l-3.53,0c-0.65,0 -1.177,0.527 -1.177,1.177c0,0.649 0.527,1.176 1.177,1.176l3.53,0Z" style="fill:#949494;fill-rule:nonzero;"/><path d="M42.362,54.13c-0.65,0 -1.176,0.526 -1.176,1.176c0,0.65 0.526,1.177 1.176,1.177l3.53,0c0.65,0 1.177,-0.527 1.177,-1.177c0,-0.65 -0.527,-1.176 -1.177,-1.176l-3.53,0Z" style="fill:#949494;fill-rule:nonzero;"/><path d="M32.948,54.13c-0.65,0 -1.177,0.526 -1.177,1.176c0,0.65 0.527,1.177 1.177,1.177l4.707,0c0.65,0 1.177,-0.527 1.177,-1.177c0,-0.65 -0.527,-1.176 -1.177,-1.176l-4.707,0Z" style="fill:#949494;fill-rule:nonzero;"/><path d="M50.599,56.483l14.121,0c0.65,0 1.177,-0.527 1.177,-1.177c0,-0.65 -0.527,-1.176 -1.177,-1.176l-14.121,0c-0.65,0 -1.177,0.526 -1.177,1.176c0,0.65 0.527,1.177 1.177,1.177Z" style="fill:#949494;fill-rule:nonzero;"/><path d="M47.069,40.009l-9.414,0c-0.649,0 -1.176,0.526 -1.176,1.177c0,0.649 0.527,1.176 1.176,1.176l9.414,0c0.65,0 1.177,-0.527 1.177,-1.176c0,-0.651 -0.527,-1.177 -1.177,-1.177Z" style="fill:#949494;fill-rule:nonzero;"/><path d="M50.599,41.186c0,0.649 0.527,1.176 1.177,1.176l12.944,0c0.65,0 1.177,-0.527 1.177,-1.176c0,-0.651 -0.527,-1.177 -1.177,-1.177l-12.944,0c-0.65,0 -1.177,0.526 -1.177,1.177Z" style="fill:#949494;fill-rule:nonzero;"/><path d="M38.832,45.892c0,0.65 0.527,1.177 1.177,1.177l14.121,0c0.649,0 1.176,-0.527 1.176,-1.177c0,-0.65 -0.527,-1.177 -1.176,-1.177l-14.121,0c-0.65,0 -1.177,0.527 -1.177,1.177Z" style="fill:#949494;fill-rule:nonzero;"/><path d="M64.72,44.715l-5.884,0c-0.65,0 -1.177,0.527 -1.177,1.177c0,0.65 0.527,1.177 1.177,1.177l5.884,0c0.65,0 1.177,-0.527 1.177,-1.177c0,-0.65 -0.527,-1.177 -1.177,-1.177Z" style="fill:#949494;fill-rule:nonzero;"/><path d="M50.599,50.599c0,-0.65 -0.527,-1.177 -1.177,-1.177l-11.767,0c-0.649,0 -1.176,0.527 -1.176,1.177c0,0.65 0.527,1.177 1.176,1.177l11.767,0c0.65,0 1.177,-0.527 1.177,-1.177Z" style="fill:#949494;fill-rule:nonzero;"/><path d="M64.72,49.422l-10.59,0c-0.651,0 -1.177,0.527 -1.177,1.177c0,0.65 0.526,1.177 1.177,1.177l10.59,0c0.65,0 1.177,-0.527 1.177,-1.177c0,-0.65 -0.527,-1.177 -1.177,-1.177Z" style="fill:#949494;fill-rule:nonzero;"/></g></g></svg>