<?xml version="1.0" encoding="UTF-8" standalone="no"?><!DOCTYPE svg PUBLIC "-//W3C//DTD SVG 1.1//EN" "http://www.w3.org/Graphics/SVG/1.1/DTD/svg11.dtd"><svg width="100%" height="100%" viewBox="0 0 97 97" version="1.1" xmlns="http://www.w3.org/2000/svg" xmlns:xlink="http://www.w3.org/1999/xlink" xml:space="preserve" xmlns:serif="http://www.serif.com/" style="fill-rule:evenodd;clip-rule:evenodd;stroke-linejoin:round;stroke-miterlimit:1.41421;"><path d="M66.419,89.667c-7.343,0 -9.963,-4.281 -9.963,-11.624l0,-1.66l-16.604,0l0,1.66c0,7.343 -2.62,11.624 -9.963,11.624l3.321,3.32l31.549,0l1.66,-3.32Z" style="fill:#e7eced;fill-rule:nonzero;"/><path d="M96.308,64.759l-96.308,0l0,-59.486c0,-2.911 2.362,-5.273 5.273,-5.273l85.763,0c2.911,0 5.272,2.362 5.272,5.273l0,59.486Z" style="fill:#e3eaff;fill-rule:nonzero;"/><path d="M0,58.117l0,14.652c0,2.913 2.362,5.274 5.273,5.274l85.762,0c2.912,0 5.273,-2.361 5.273,-5.274l0,-14.652l-96.308,0Z" style="fill:#afb6bb;fill-rule:nonzero;"/><path d="M0,58.117l0,14.652c0,2.913 2.362,5.274 5.273,5.274l85.762,0c2.912,0 5.273,-2.361 5.273,-5.274l0,-14.652l-96.308,0Z" style="fill:#2f6dff;fill-rule:nonzero;"/><rect x="44.833" y="64.759" width="6.642" height="6.642" style="fill:#28384c;fill-rule:nonzero;"/><path d="M73.061,96.308l-49.814,0l0,-3.324c0,-1.832 1.486,-3.317 3.317,-3.317l43.18,0c1.831,0 3.317,1.485 3.317,3.317l0,3.324Z" style="fill:#afb6bb;fill-rule:nonzero;"/><path d="M74.737,49.815l-53.166,0c-1.826,0 -3.306,-1.48 -3.306,-3.307l0,-26.582l59.778,0l0,26.582c0,1.827 -1.48,3.307 -3.306,3.307Z" style="fill:#fff;fill-rule:nonzero;"/><path d="M78.043,19.926l-59.778,0l0,-9.978c0,-1.827 1.48,-3.306 3.306,-3.306l53.166,0c1.826,0 3.306,1.479 3.306,3.306l0,9.978Z" style="fill:#2f6dff;fill-rule:nonzero;"/><path d="M43.172,14.945l-1.66,0c-0.917,0 -1.66,-0.745 -1.66,-1.661c0,-0.917 0.743,-1.661 1.66,-1.661l1.66,0c0.917,0 1.661,0.744 1.661,1.661c0,0.916 -0.744,1.661 -1.661,1.661Z" style="fill:#23a24d;fill-rule:nonzero;"/><path d="M34.87,14.945l-1.66,0c-0.917,0 -1.661,-0.745 -1.661,-1.661c0,-0.917 0.744,-1.661 1.661,-1.661l1.66,0c0.917,0 1.661,0.744 1.661,1.661c0,0.916 -0.744,1.661 -1.661,1.661Z" style="fill:#ebba16;fill-rule:nonzero;"/><path d="M26.568,14.945l-1.661,0c-0.917,0 -1.66,-0.745 -1.66,-1.661c0,-0.917 0.743,-1.661 1.66,-1.661l1.661,0c0.916,0 1.66,0.744 1.66,1.661c0,0.916 -0.744,1.661 -1.66,1.661Z" style="fill:#dd352e;fill-rule:nonzero;"/><path d="M49.815,29.889l-23.247,0c-0.917,0 -1.661,-0.744 -1.661,-1.661c0,-0.916 0.744,-1.66 1.661,-1.66l23.247,0c0.916,0 1.66,0.744 1.66,1.66c0,0.917 -0.744,1.661 -1.66,1.661Z" style="fill:#366db6;fill-rule:nonzero;"/><path d="M69.74,29.889l-11.623,0c-0.916,0 -1.661,-0.744 -1.661,-1.661c0,-0.916 0.745,-1.66 1.661,-1.66l11.623,0c0.917,0 1.661,0.744 1.661,1.66c0,0.917 -0.744,1.661 -1.661,1.661Z" style="fill:#dd352e;fill-rule:nonzero;"/><path d="M33.21,36.531l-6.642,0c-0.917,0 -1.661,-0.744 -1.661,-1.661c0,-0.916 0.744,-1.66 1.661,-1.66l6.642,0c0.917,0 1.66,0.744 1.66,1.66c0,0.917 -0.743,1.661 -1.66,1.661Z" style="fill:#ebba16;fill-rule:nonzero;"/><path d="M69.74,36.531l-28.228,0c-0.917,0 -1.66,-0.744 -1.66,-1.661c0,-0.916 0.743,-1.66 1.66,-1.66l28.228,0c0.917,0 1.661,0.744 1.661,1.66c0,0.917 -0.744,1.661 -1.661,1.661Z" style="fill:#75348b;fill-rule:nonzero;"/><path d="M51.475,43.172l-24.907,0c-0.917,0 -1.661,-0.743 -1.661,-1.66c0,-0.917 0.744,-1.66 1.661,-1.66l24.907,0c0.917,0 1.661,0.743 1.661,1.66c0,0.917 -0.744,1.66 -1.661,1.66Z" style="fill:#57abc1;fill-rule:nonzero;"/><path d="M64.759,43.172l-6.642,0c-0.916,0 -1.661,-0.743 -1.661,-1.66c0,-0.917 0.745,-1.66 1.661,-1.66l6.642,0c0.916,0 1.66,0.743 1.66,1.66c0,0.917 -0.744,1.66 -1.66,1.66Z" style="fill:#f76363;fill-rule:nonzero;"/></svg>