<?xml version="1.0" encoding="UTF-8" standalone="no"?><!DOCTYPE svg PUBLIC "-//W3C//DTD SVG 1.1//EN" "http://www.w3.org/Graphics/SVG/1.1/DTD/svg11.dtd"><svg width="100%" height="100%" viewBox="0 0 122 122" version="1.1" xmlns="http://www.w3.org/2000/svg" xmlns:xlink="http://www.w3.org/1999/xlink" xml:space="preserve" xmlns:serif="http://www.serif.com/" style="fill-rule:evenodd;clip-rule:evenodd;stroke-linejoin:round;stroke-miterlimit:1.41421;"><clipPath id="_clip1"><rect id="startup--3-" serif:id="startup (3)" x="0" y="0" width="121" height="121"/></clipPath><g clip-path="url(#_clip1)"><path d="M6.05,44.367l92.767,0c2.227,0 4.033,1.806 4.033,4.033l0,66.55c0,2.227 -1.806,4.033 -4.033,4.033l-92.767,0c-2.227,0 -4.033,-1.806 -4.033,-4.033l0,-66.55c0,-2.227 1.806,-4.033 4.033,-4.033Z" style="fill:#a4c2f7;fill-rule:nonzero;"/><path d="M6.05,44.367l86.717,0c2.228,0 4.033,1.806 4.033,4.033l0,66.55c0,2.227 -1.805,4.033 -4.033,4.033l-86.717,0c-2.227,0 -4.033,-1.806 -4.033,-4.033l0,-66.55c0,-2.227 1.806,-4.033 4.033,-4.033Z" style="fill:#d4e1f4;fill-rule:nonzero;"/><path d="M12.221,94.783l68.324,0c1.181,0 2.138,0.958 2.138,2.138l0,11.858c0,1.181 -0.957,2.137 -2.138,2.137l-68.324,0c-1.18,0 -2.137,-0.956 -2.137,-2.137l0,-11.858c0,-1.18 0.957,-2.138 2.137,-2.138Z" style="fill:#d4e1f4;fill-rule:nonzero;"/><path d="M89.463,86.717c3.506,6.287 5.339,13.371 5.32,20.57c0.01,0.427 -0.252,0.813 -0.651,0.964c-0.4,0.151 -0.852,0.033 -1.128,-0.292c-1.073,-1.384 -2.428,-2.524 -3.974,-3.347c-0.266,-0.125 -0.575,-0.125 -0.84,0.002c-0.266,0.126 -0.46,0.366 -0.53,0.652l-3.968,12.971c-0.111,0.445 -0.515,0.755 -0.973,0.749c-0.459,-0.008 -0.853,-0.329 -0.951,-0.777l-3.596,-12.906c-0.066,-0.294 -0.26,-0.542 -0.53,-0.675c-0.269,-0.133 -0.585,-0.137 -0.857,-0.009c-1.692,0.901 -3.185,2.13 -4.395,3.617c-0.273,0.336 -0.729,0.458 -1.134,0.307c-0.405,-0.151 -0.668,-0.544 -0.655,-0.976c-0.074,-7.293 1.754,-14.479 5.303,-20.85l13.559,0Z" style="fill:#d4e1f4;fill-rule:nonzero;"/><path d="M118.984,84.7c-1.96,-1.565 -4.029,-2.987 -6.192,-4.255c-5.195,-3.297 -11.111,-5.289 -17.242,-5.808l-25.733,0c-11.091,0.383 -21.982,8.893 -23.293,9.962c-0.05,0.029 -0.098,0.063 -0.141,0.101c0,-0.504 0,-1.008 0.02,-1.512c0.021,-0.988 0.082,-1.957 0.142,-2.925c1.069,-13.854 7.159,-23.413 14.903,-25.41l42.471,0c8.551,2.198 15.065,13.613 15.065,29.847Z" style="fill:#a4c2f7;fill-rule:nonzero;"/><path d="M112.792,80.445c-5.195,-3.297 -11.111,-5.289 -17.242,-5.808l-27.689,0c-10.124,0.383 -20.046,8.813 -21.337,9.962c-0.05,0.029 -0.098,0.063 -0.141,0.101c0,-0.504 0,-1.008 0.02,-1.512c0.021,-0.988 0.082,-1.957 0.142,-2.925c0.968,-13.854 6.534,-23.413 13.652,-25.41l38.922,0c7.139,1.997 12.725,11.636 13.673,25.592Z" style="fill:#d4e1f4;fill-rule:nonzero;"/><path d="M104.524,44.931c-0.01,3.122 -0.321,6.235 -0.927,9.297c-0.303,1.452 -0.646,2.884 -1.069,4.255c-1.655,5.663 -4.091,11.066 -7.241,16.053c-0.907,1.472 -1.835,2.824 -2.762,4.114l0.242,0l1.391,5.566c0.149,0.602 0.013,1.239 -0.369,1.726c-0.382,0.489 -0.967,0.774 -1.587,0.775l-19.037,0c-0.62,-0.001 -1.205,-0.286 -1.587,-0.775c-0.382,-0.487 -0.518,-1.124 -0.369,-1.726l1.391,-5.566l-0.101,0c-5.909,-8.208 -11.999,-20.268 -11.999,-33.719c0,-0.484 0,-0.967 0.02,-1.472c0.383,-10.97 4.961,-21.134 9.822,-28.959l24.341,0c5.082,8.147 9.841,18.916 9.841,30.431Z" style="fill:#a4c2f7;fill-rule:nonzero;"/><path d="M98.817,44.931c-0.007,3.123 -0.324,6.238 -0.948,9.297c-0.302,1.452 -0.625,2.884 -1.048,4.255c-1.672,5.656 -4.107,11.057 -7.241,16.053c-0.907,1.472 -1.855,2.824 -2.763,4.114l0.242,0l1.392,5.566c0.149,0.602 0.012,1.239 -0.369,1.726c-0.382,0.489 -0.967,0.774 -1.587,0.775l-13.33,0c-0.62,-0.001 -1.205,-0.286 -1.587,-0.775c-0.382,-0.487 -0.518,-1.124 -0.369,-1.726l1.391,-5.566l-0.101,0c-5.909,-8.208 -11.999,-20.268 -11.999,-33.719c0,-0.484 0,-0.967 0.02,-1.472c0.383,-10.97 4.961,-21.134 9.822,-28.959l18.634,0c5.082,8.147 9.841,18.916 9.841,30.431Z" style="fill:#d4e1f4;fill-rule:nonzero;"/><path d="M92.202,86.717l-5.707,0c0.62,-0.001 1.205,-0.286 1.587,-0.775c0.381,-0.487 0.518,-1.124 0.369,-1.726l-1.392,-5.566l5.708,0l1.391,5.566c0.149,0.602 0.013,1.239 -0.369,1.726c-0.382,0.489 -0.967,0.774 -1.587,0.775Z" style="fill:#a4c2f7;fill-rule:nonzero;"/><path d="M86.495,86.717l-13.33,0c-0.62,-0.001 -1.205,-0.286 -1.587,-0.775c-0.382,-0.487 -0.518,-1.124 -0.369,-1.726l1.391,-5.566l14.459,0l1.392,5.566c0.149,0.602 0.012,1.239 -0.369,1.726c-0.382,0.489 -0.967,0.774 -1.587,0.775Z" style="fill:#d4e1f4;fill-rule:nonzero;"/><path d="M94.685,14.492l-24.338,0c3.092,-4.995 6.701,-9.649 10.767,-13.887c0.364,-0.386 0.871,-0.605 1.401,-0.605c0.53,0 1.037,0.219 1.401,0.605c4.055,4.248 7.664,8.901 10.769,13.887Z" style="fill:#d4e1f4;fill-rule:nonzero;"/><path d="M90.75,40.334c0,4.455 -3.611,8.066 -8.067,8.066c-4.455,0 -8.066,-3.611 -8.066,-8.066c0,-4.456 3.611,-8.068 8.066,-8.068c4.456,0 8.067,3.612 8.067,8.068Z" style="fill:#d4e1f4;fill-rule:nonzero;"/><path d="M24.201,57.475c0,2.784 -2.258,5.041 -5.043,5.041c-2.784,0 -5.041,-2.257 -5.041,-5.041c0,-2.784 2.257,-5.042 5.041,-5.042c2.785,0 5.043,2.258 5.043,5.042Z" style="fill:#fff;fill-rule:nonzero;"/><path d="M38.317,77.641c0,2.785 -2.258,5.042 -5.042,5.042c-2.784,0 -5.041,-2.257 -5.041,-5.042c0,-2.784 2.257,-5.041 5.041,-5.041c2.784,0 5.042,2.257 5.042,5.041Z" style="fill:#fff;fill-rule:nonzero;"/><path d="M94.783,107.287c0.02,0.431 -0.241,0.826 -0.645,0.977c-0.404,0.152 -0.86,0.026 -1.129,-0.312c-1.086,-1.38 -2.445,-2.52 -3.994,-3.347c-0.104,-0.061 -0.221,-0.096 -0.342,-0.102c-0.424,-6.243 -2.221,-12.317 -5.264,-17.786l6.05,0c3.503,6.289 5.335,13.371 5.324,20.57Z" style="fill:#a4c2f7;fill-rule:nonzero;"/><path d="M108.9,75.94l0,2.419c1.412,0.683 2.716,1.398 3.892,2.094c2.163,1.266 4.232,2.685 6.192,4.247c0,-1.47 -0.071,-2.886 -0.176,-4.274c-3.117,-1.875 -6.442,-3.381 -9.908,-4.486Z" style="fill:#fff;fill-rule:nonzero;"/><path d="M6.05,118.983l6.05,0c-2.225,-0.007 -4.027,-1.809 -4.033,-4.033l0,-66.55c0.006,-2.225 1.808,-4.027 4.033,-4.033l-6.05,0c-2.224,0.006 -4.026,1.808 -4.033,4.033l0,66.55c0.007,2.224 1.809,4.026 4.033,4.033Z" style="fill:#fff;fill-rule:nonzero;"/><rect x="0" y="48.4" width="4.033" height="66.549" style="fill:#fff;fill-rule:nonzero;"/><g><path d="M1.251,100.672c0.113,0.058 0.236,0.099 0.363,0.121c0.133,0.022 0.267,0.036 0.403,0.041c0.534,-0.009 1.045,-0.217 1.432,-0.586c0.182,-0.193 0.326,-0.418 0.423,-0.665c0.304,-0.753 0.138,-1.613 -0.423,-2.198c-0.193,-0.182 -0.419,-0.326 -0.666,-0.424c-0.242,-0.103 -0.503,-0.158 -0.766,-0.161c-0.534,0.008 -1.045,0.216 -1.432,0.585c-0.78,0.796 -0.78,2.069 0,2.863l0.302,0.242c0.113,0.077 0.235,0.138 0.364,0.182Z" style="fill:#428dff;fill-rule:nonzero;"/><path d="M19.158,50.416c-3.898,0 -7.058,3.16 -7.058,7.059c0,3.898 3.16,7.058 7.058,7.058c3.899,0 7.059,-3.16 7.059,-7.058c0,-3.899 -3.16,-7.059 -7.059,-7.059Zm0,10.084c-1.671,0 -3.025,-1.354 -3.025,-3.025c0,-1.671 1.354,-3.025 3.025,-3.025c1.671,0 3.025,1.354 3.025,3.025c0,1.671 -1.354,3.025 -3.025,3.025Z" style="fill:#428dff;fill-rule:nonzero;"/><path d="M33.275,70.584c-2.855,0 -5.429,1.719 -6.521,4.357c-1.092,2.637 -0.488,5.673 1.53,7.692c2.019,2.019 5.055,2.622 7.692,1.529c2.638,-1.092 4.358,-3.665 4.358,-6.521c0,-3.897 -3.16,-7.057 -7.059,-7.057Zm0,10.082c-1.671,0 -3.025,-1.354 -3.025,-3.025c0,-1.67 1.354,-3.024 3.025,-3.024c1.671,0 3.025,1.354 3.025,3.024c0,1.671 -1.354,3.025 -3.025,3.025Z" style="fill:#428dff;fill-rule:nonzero;"/><path d="M36.742,51.172l-24.2,30.25c-0.696,0.871 -0.556,2.14 0.315,2.836c0.869,0.696 2.139,0.555 2.835,-0.314l24.199,-30.25c0.451,-0.563 0.567,-1.323 0.305,-1.994c-0.262,-0.672 -0.863,-1.153 -1.575,-1.261c-0.712,-0.108 -1.429,0.171 -1.879,0.733Z" style="fill:#428dff;fill-rule:nonzero;"/><path d="M8.067,96.921l0,11.858c0.002,2.293 1.861,4.152 4.154,4.154l46.263,0c1.113,0 2.016,-0.902 2.016,-2.017c0,-1.113 -0.903,-2.016 -2.016,-2.016l-46.384,-0.121l0.121,-11.979l50.296,0c1.113,0 2.016,-0.903 2.016,-2.017c0,-1.113 -0.903,-2.017 -2.016,-2.017l-50.296,0c-2.293,0.003 -4.152,1.861 -4.154,4.155Z" style="fill:#428dff;fill-rule:nonzero;"/><path d="M20.166,100.834c-1.113,0 -2.016,0.903 -2.016,2.016c0,1.114 0.903,2.017 2.016,2.017l4.035,0c1.113,0 2.016,-0.903 2.016,-2.017c0,-1.113 -0.903,-2.016 -2.016,-2.016l-4.035,0Z" style="fill:#428dff;fill-rule:nonzero;"/><path d="M32.267,100.834c-1.114,0 -2.017,0.903 -2.017,2.016c0,1.114 0.903,2.017 2.017,2.017l4.033,0c1.114,0 2.017,-0.903 2.017,-2.017c0,-1.113 -0.903,-2.016 -2.017,-2.016l-4.033,0Z" style="fill:#428dff;fill-rule:nonzero;"/><path d="M44.367,100.834c-1.114,0 -2.017,0.903 -2.017,2.016c0,1.114 0.903,2.017 2.017,2.017l4.033,0c1.114,0 2.016,-0.903 2.016,-2.017c0,-1.113 -0.902,-2.016 -2.016,-2.016l-4.033,0Z" style="fill:#428dff;fill-rule:nonzero;"/><path d="M56.467,100.834c-1.114,0 -2.016,0.903 -2.016,2.016c0,1.114 0.902,2.017 2.016,2.017l4.033,0c1.114,0 2.017,-0.903 2.017,-2.017c0,-1.113 -0.903,-2.016 -2.017,-2.016l-4.033,0Z" style="fill:#428dff;fill-rule:nonzero;"/><path d="M82.683,50.416c5.569,0 10.084,-4.514 10.084,-10.082c0,-5.57 -4.515,-10.084 -10.084,-10.084c-5.568,0 -10.083,4.514 -10.083,10.084c0.007,5.565 4.518,10.076 10.083,10.082Zm0,-16.133c3.341,0 6.051,2.709 6.051,6.051c0,3.341 -2.71,6.049 -6.051,6.049c-3.34,0 -6.05,-2.708 -6.05,-6.049c0,-3.342 2.71,-6.051 6.05,-6.051Z" style="fill:#428dff;fill-rule:nonzero;"/><path d="M106.216,53.488c0.435,-2.54 0.659,-5.112 0.667,-7.689c0,-11.637 -4.93,-22.386 -10.083,-30.44c-0.074,-0.153 -0.169,-0.296 -0.282,-0.423c-3.187,-4.951 -6.873,-9.562 -11,-13.763c-1.562,-1.556 -4.089,-1.561 -5.658,-0.01c-4.239,4.301 -8.012,9.037 -11.257,14.129c-0.01,0.022 -0.028,0.041 -0.038,0.065c-5.415,8.075 -8.809,17.332 -9.896,26.993l-52.619,0c-3.341,0 -6.05,2.708 -6.05,6.05l0,42.35c0,1.113 0.903,2.016 2.017,2.016c1.113,0 2.016,-0.903 2.016,-2.016l0,-42.35c0,-1.114 0.903,-2.017 2.017,-2.017l52.434,0c0.04,2.381 0.266,4.755 0.677,7.101c-8.92,3.545 -14.794,15.752 -14.794,31.216c0,0.782 0.453,1.493 1.161,1.825c0.268,0.127 0.56,0.192 0.855,0.192c0.472,0 0.929,-0.165 1.291,-0.466c0.107,-0.091 10.473,-8.607 21.122,-9.511c0.564,0.846 1.102,1.624 1.614,2.336l-1.164,4.638c-0.277,1.095 -0.078,2.255 0.547,3.196c0.624,0.94 1.618,1.573 2.735,1.741c-3.168,6.337 -4.456,13.448 -3.715,20.495c0.112,0.886 0.792,1.593 1.674,1.737c0.88,0.145 1.752,-0.306 2.141,-1.109c0.945,-1.674 2.308,-3.074 3.957,-4.061l3.386,11.254l-73.921,0c-1.114,0 -2.017,-0.903 -2.017,-2.017l0,-8.067c0,-1.113 -0.903,-2.016 -2.016,-2.016c-1.114,0 -2.017,0.903 -2.017,2.016l0,8.067c0,3.341 2.709,6.05 6.05,6.05l92.767,0c3.341,0 6.05,-2.709 6.05,-6.05l0,-36.159c4.602,1.877 8.919,4.389 12.825,7.461c0.364,0.301 0.82,0.466 1.292,0.465c1.113,0 2.016,-0.903 2.016,-2.017c0,-15.456 -5.867,-27.659 -14.784,-31.212Zm-23.533,-49.455c3.082,3.126 5.903,6.498 8.436,10.084l-16.875,0c2.532,-3.587 5.355,-6.959 8.439,-10.084Zm-11.127,14.117l22.264,0c4.678,7.462 9.03,17.202 9.03,27.649c-0.008,2.899 -0.309,5.792 -0.901,8.631c-0.333,1.547 -0.657,2.809 -1.023,3.974l0,0.017l-0.01,0.02c-1.625,5.352 -4.005,10.445 -7.068,15.125c-0.605,0.96 -1.289,1.954 -2.102,3.075l-18.123,0c-4.409,-6.11 -11.106,-17.573 -11.106,-30.842c0,-0.458 0,-0.892 0.018,-1.35c0.683,-9.399 3.791,-18.459 9.021,-26.299Zm1.613,66.55l1.009,-4.034l17.018,0l1.008,4.034l-19.039,0l0.004,0Zm-24.604,-4.102c0.864,-11.271 5.272,-20.144 11.469,-23.069c1.432,5.408 3.592,10.596 6.421,15.422c-6.435,1.272 -12.532,3.877 -17.9,7.647l0.01,0Zm30.148,20.437c-0.271,-0.132 -0.569,-0.201 -0.87,-0.201c-0.254,-0.001 -0.506,0.047 -0.744,0.141c-1.609,0.639 -3.107,1.53 -4.436,2.639c0.362,-5.22 1.861,-10.299 4.39,-14.881l11.263,0c2.488,4.484 3.985,9.449 4.388,14.561c-1.191,-0.974 -2.525,-1.756 -3.956,-2.319c-0.517,-0.206 -1.095,-0.188 -1.599,0.047c-0.503,0.235 -0.887,0.668 -1.062,1.196l-3.315,10.055l-3.005,-10.004c-0.163,-0.541 -0.545,-0.989 -1.054,-1.234Zm22.121,13.915c0,1.114 -0.903,2.017 -2.017,2.017l-13.345,0l3.713,-11.259c1.514,0.919 2.721,2.269 3.465,3.877c0.316,0.878 1.192,1.425 2.119,1.322c0.926,-0.101 1.662,-0.826 1.779,-1.751c0.742,-7.047 -0.548,-14.158 -3.716,-20.495c1.117,-0.167 2.111,-0.8 2.736,-1.74c0.625,-0.941 0.823,-2.102 0.545,-3.197l-1.164,-4.657c0.597,-0.822 1.134,-1.598 1.613,-2.327c1.442,0.127 2.87,0.374 4.272,0.739l0,37.471Zm2.872,-40.833c-0.105,-0.042 -0.212,-0.074 -0.322,-0.097c-1.466,-0.462 -2.962,-0.82 -4.479,-1.073c2.482,-4.196 4.452,-8.673 5.869,-13.336l0.012,-0.032c0.202,-0.636 0.389,-1.309 0.575,-2.029c6.187,2.932 10.589,11.799 11.451,23.06c-4.044,-2.768 -8.456,-4.954 -13.106,-6.493Z" style="fill:#428dff;fill-rule:nonzero;"/><path d="M74.617,60.5l16.133,0c1.114,0 2.017,-0.903 2.017,-2.017c0,-1.113 -0.903,-2.016 -2.017,-2.016l-16.133,0c-1.114,0 -2.017,0.903 -2.017,2.016c0,1.114 0.903,2.017 2.017,2.017Z" style="fill:#428dff;fill-rule:nonzero;"/><path d="M86.717,64.533l-8.067,0c-1.114,0 -2.017,0.903 -2.017,2.017c0,1.114 0.903,2.017 2.017,2.017l8.067,0c1.114,0 2.017,-0.903 2.017,-2.017c0,-1.114 -0.903,-2.017 -2.017,-2.017Z" style="fill:#428dff;fill-rule:nonzero;"/></g></g></svg>