<?xml version="1.0" encoding="UTF-8" standalone="no"?><!DOCTYPE svg PUBLIC "-//W3C//DTD SVG 1.1//EN" "http://www.w3.org/Graphics/SVG/1.1/DTD/svg11.dtd"><svg width="100%" height="100%" viewBox="0 0 115 115" version="1.1" xmlns="http://www.w3.org/2000/svg" xmlns:xlink="http://www.w3.org/1999/xlink" xml:space="preserve" xmlns:serif="http://www.serif.com/" style="fill-rule:evenodd;clip-rule:evenodd;stroke-linejoin:round;stroke-miterlimit:1.41421;"><clipPath id="_clip1"><rect id="hacker" x="0" y="0" width="114.5" height="114.5"/></clipPath><g clip-path="url(#_clip1)"><path d="M22.9,7.633c0,0 -4.58,-7.633 -11.449,-7.633c-6.871,0 -11.451,7.633 -11.451,7.633c0,0 4.58,7.634 11.451,7.634c6.869,0 11.449,-7.634 11.449,-7.634Z" style="fill:#fb7b76;fill-rule:nonzero;"/><path d="M20.992,7.633c0,0 -3.817,-5.724 -9.541,-5.724c-5.726,0 -9.542,5.724 -9.542,5.724c0,0 3.816,5.726 9.542,5.726c5.724,0 9.541,-5.726 9.541,-5.726Z" style="fill:#f6f6f6;fill-rule:nonzero;"/><path d="M22.9,26.717c0,0 -4.58,-7.634 -11.449,-7.634c-6.871,0 -11.451,7.634 -11.451,7.634c0,0 4.58,7.633 11.451,7.633c6.869,0 11.449,-7.633 11.449,-7.633Z" style="fill:#fb7b76;fill-rule:nonzero;"/><path d="M20.992,26.717c0,0 -3.817,-5.725 -9.541,-5.725c-5.726,0 -9.542,5.725 -9.542,5.725c0,0 3.816,5.725 9.542,5.725c5.724,0 9.541,-5.725 9.541,-5.725Z" style="fill:#f6f6f6;fill-rule:nonzero;"/><path d="M17.175,26.717c0,3.162 -2.563,5.725 -5.724,5.725c-3.163,0 -5.726,-2.563 -5.726,-5.725c0,-3.162 2.563,-5.725 5.726,-5.725c3.161,0 5.724,2.563 5.724,5.725Z" style="fill:#e3e7f2;fill-rule:nonzero;"/><path d="M17.175,7.633c0,3.163 -2.563,5.726 -5.724,5.726c-3.163,0 -5.726,-2.563 -5.726,-5.726c0,-3.161 2.563,-5.724 5.726,-5.724c3.161,0 5.724,2.563 5.724,5.724Z" style="fill:#e3e7f2;fill-rule:nonzero;"/><path d="M27.816,109.859l-11.965,-40.38l-4.559,2.657c-2.359,1.474 -4.101,3.758 -4.898,6.423l-3.68,12.266c-0.534,1.78 -0.805,3.627 -0.805,5.485l0,8.648c0,4.216 3.417,7.634 7.633,7.634l21.932,0c-1.69,-0.001 -3.178,-1.113 -3.658,-2.733Z" style="fill:#d4e1f4;fill-rule:nonzero;"/><path d="M84.234,61.067l-53.968,0l3.836,-2.233c1.371,-0.79 2.353,-2.112 2.714,-3.652c0.362,-1.54 0.07,-3.16 -0.806,-4.478c-3.646,-5.385 -5.558,-11.759 -5.476,-18.262c0,-21.01 12.843,-29.159 23.987,-30.362c0.906,-0.113 1.817,-0.17 2.729,-0.171c11.66,0.114 26.717,7.786 26.717,30.533c0.08,6.503 -1.831,12.877 -5.477,18.262c-0.876,1.318 -1.167,2.938 -0.806,4.478c0.361,1.54 1.344,2.862 2.714,3.652l3.836,2.233Z" style="fill:#a4c2f7;fill-rule:nonzero;"/><path d="M78.776,61.067l-48.51,0l3.836,-2.233c1.371,-0.79 2.353,-2.112 2.714,-3.652c0.362,-1.54 0.07,-3.16 -0.806,-4.478c-3.646,-5.385 -5.558,-11.759 -5.476,-18.262c0,-21.01 12.843,-29.159 23.987,-30.362c11.145,1.203 23.988,9.352 23.988,30.362c0.081,6.503 -1.83,12.877 -5.477,18.262c-0.876,1.318 -1.167,2.938 -0.806,4.478c0.362,1.54 1.344,2.862 2.714,3.652l3.836,2.233Z" style="fill:#d4e1f4;fill-rule:nonzero;"/><path d="M112.592,96.314l0,8.644c0,4.216 -3.418,7.634 -7.633,7.634l-21.928,0c1.686,-0.001 3.17,-1.112 3.646,-2.729l11.259,-38.014l0.706,-2.366l4.561,2.653c2.365,1.472 4.108,3.76 4.904,6.43l3.683,12.252c0.533,1.783 0.803,3.634 0.802,5.496Z" style="fill:#a4c2f7;fill-rule:nonzero;"/><path d="M106.867,96.314l0,8.644c0.038,1.986 -0.714,3.907 -2.092,5.338c-1.377,1.432 -3.267,2.258 -5.253,2.296l-16.491,0c1.649,-0.021 3.082,-1.137 3.509,-2.729l10.833,-38.014l0.477,0.287c2.288,1.509 3.957,3.792 4.702,6.43l3.551,12.252c0.51,1.787 0.767,3.637 0.764,5.496Z" style="fill:#d4e1f4;fill-rule:nonzero;"/><path d="M57.25,61.067l-38.779,0c-1.204,0 -2.338,0.567 -3.059,1.533c-0.72,0.964 -0.943,2.212 -0.602,3.367l13.006,43.892c0.48,1.62 1.968,2.732 3.658,2.733l51.552,0c1.69,-0.001 3.178,-1.113 3.659,-2.733l13.004,-43.892c0.343,-1.155 0.119,-2.403 -0.602,-3.367c-0.719,-0.966 -1.853,-1.533 -3.058,-1.533l-38.779,0Z" style="fill:#e3e7f2;fill-rule:nonzero;"/><path d="M57.25,61.067c11.451,0 17.131,-15.267 17.131,-28.774c0,-15.417 -7.589,-20.843 -17.131,-20.843c-9.541,0 -17.131,5.426 -17.131,20.843c0,13.507 5.681,28.774 17.131,28.774Z" style="fill:#a4c2f7;fill-rule:nonzero;"/><path d="M108.775,20.992l0,5.725c0,3.162 -2.563,5.725 -5.725,5.725l-3.817,0c-0.32,0.007 -0.641,-0.025 -0.954,-0.096c-2.756,-0.451 -4.777,-2.836 -4.771,-5.629l0,-5.725c0.007,-2.105 1.712,-3.811 3.817,-3.817l7.634,0c2.105,0.006 3.81,1.712 3.816,3.817Z" style="fill:#d4e1f4;fill-rule:nonzero;"/><path d="M103.05,20.992l0,5.725c0.007,2.793 -2.015,5.178 -4.771,5.629c-2.756,-0.451 -4.777,-2.836 -4.771,-5.629l0,-5.725c0.007,-2.105 1.712,-3.811 3.817,-3.817l1.908,0c2.106,0.006 3.811,1.712 3.817,3.817Z" style="fill:#e3e7f2;fill-rule:nonzero;"/><path d="M108.775,24.808l0,1.909c0,3.162 -2.563,5.725 -5.725,5.725l-3.817,0c-0.32,0.007 -0.641,-0.025 -0.954,-0.096c-2.756,-0.451 -4.777,-2.836 -4.771,-5.629l0,-1.909l15.267,0Z" style="fill:#a4c2f7;fill-rule:nonzero;"/><path d="M103.05,24.808l0,1.909c0.007,2.793 -2.015,5.178 -4.771,5.629c-2.756,-0.451 -4.777,-2.836 -4.771,-5.629l0,-1.909l9.542,0Z" style="fill:#a4c2f7;fill-rule:nonzero;"/><path d="M9.542,5.725c0,1.054 -0.854,1.908 -1.909,1.908c-1.053,0 -1.908,-0.854 -1.908,-1.908c0,-1.054 0.855,-1.908 1.908,-1.908c1.055,0 1.909,0.854 1.909,1.908Z" style="fill:#f6f6f6;fill-rule:nonzero;"/><path d="M9.542,24.808c0,1.055 -0.854,1.909 -1.909,1.909c-1.053,0 -1.908,-0.854 -1.908,-1.909c0,-1.053 0.855,-1.907 1.908,-1.907c1.055,0 1.909,0.854 1.909,1.907Z" style="fill:#f6f6f6;fill-rule:nonzero;"/><path d="M6.394,78.559l-3.68,12.266c-0.534,1.78 -0.805,3.627 -0.805,5.485l0,8.648c0,4.216 3.417,7.634 7.633,7.634l5.725,0c-4.216,0 -7.634,-3.418 -7.634,-7.634l0,-8.648c0,-1.858 0.272,-3.705 0.806,-5.485l3.679,-12.266c0.769,-2.532 2.39,-4.717 4.59,-6.188l-0.857,-2.892l-4.559,2.657c-2.359,1.474 -4.101,3.758 -4.898,6.423Z" style="fill:#fff;fill-rule:nonzero;"/><path d="M88.915,112.565c-0.057,0 -0.107,0.027 -0.164,0.027c0.061,0 0.109,-0.025 0.164,-0.027Z" style="fill:#fff;fill-rule:nonzero;"/><path d="M11.451,34.35c0.971,-0.007 1.936,-0.162 2.861,-0.46c-3.552,-1.416 -6.561,-3.929 -8.587,-7.173c2.026,-3.244 5.035,-5.757 8.587,-7.173c-0.925,-0.298 -1.89,-0.453 -2.861,-0.461c-6.871,0 -11.451,7.634 -11.451,7.634c0,0 4.58,7.633 11.451,7.633Z" style="fill:#fff;fill-rule:nonzero;"/><path d="M11.451,15.267c0.971,-0.007 1.936,-0.163 2.861,-0.46c-3.552,-1.416 -6.561,-3.929 -8.587,-7.174c2.026,-3.243 5.035,-5.756 8.587,-7.172c-0.925,-0.298 -1.89,-0.453 -2.861,-0.461c-6.871,0 -11.451,7.633 -11.451,7.633c0,0 4.58,7.634 11.451,7.634Z" style="fill:#fff;fill-rule:nonzero;"/><path d="M0,104.958l0,-6.201l0.014,-3.166c0.039,-1.138 0.17,-2.27 0.393,-3.386c0.503,-2.319 1.172,-4.102 1.742,-6.137l1.782,-5.941l0.636,-2.118l3.654,1.098l-0.635,2.117l-1.783,5.941c-0.549,1.943 -1.294,4.059 -1.654,5.786c-0.182,0.913 -0.29,1.839 -0.323,2.769l-0.009,3.037l0,6.201l-3.817,0Z" style="fill:#fff;fill-rule:nonzero;"/><g><path d="M13.359,26.717c0,1.054 -0.855,1.908 -1.908,1.908c-1.055,0 -1.909,-0.854 -1.909,-1.908c0,-1.054 0.854,-1.909 1.909,-1.909c1.053,0 1.908,0.855 1.908,1.909Z" style="fill:#428dff;fill-rule:nonzero;"/><path d="M13.359,7.633c0,1.055 -0.855,1.909 -1.908,1.909c-1.055,0 -1.909,-0.854 -1.909,-1.909c0,-1.053 0.854,-1.908 1.909,-1.908c1.053,0 1.908,0.855 1.908,1.908Z" style="fill:#428dff;fill-rule:nonzero;"/><path d="M1.189,89.266c-0.135,0.494 -0.087,1.02 0.138,1.479l0.211,0.311c0.082,0.101 0.178,0.189 0.285,0.261c0.091,0.08 0.194,0.144 0.305,0.192c0.116,0.052 0.236,0.097 0.359,0.131c0.487,0.111 0.997,0.053 1.447,-0.166c0.217,-0.114 0.407,-0.273 0.557,-0.468c0.476,-0.597 0.559,-1.418 0.213,-2.099c-0.125,-0.22 -0.291,-0.414 -0.488,-0.572c-0.191,-0.161 -0.413,-0.281 -0.651,-0.355c-0.486,-0.138 -1.005,-0.088 -1.456,0.139c-0.44,0.253 -0.769,0.662 -0.92,1.147Z" style="fill:#428dff;fill-rule:nonzero;"/><path d="M109.934,78.009c-0.94,-3.126 -2.991,-5.8 -5.766,-7.519l-3.263,-1.908l0.614,-2.077c0.512,-1.731 0.177,-3.602 -0.904,-5.049c-1.08,-1.446 -2.78,-2.297 -4.586,-2.297l-11.278,0l-3.397,-1.983c-0.935,-0.548 -1.601,-1.46 -1.84,-2.517c-0.231,-0.991 -0.035,-2.035 0.541,-2.874c3.865,-5.704 5.896,-12.454 5.82,-19.343c0,-22.236 -14.368,-32.312 -28.64,-32.432c-14.242,0.12 -28.61,10.196 -28.61,32.432c-0.075,6.889 1.955,13.639 5.82,19.343c0.576,0.839 0.772,1.883 0.54,2.874c-0.237,1.057 -0.904,1.969 -1.839,2.517l-3.397,1.983l-11.278,0c-1.808,-0.002 -3.509,0.85 -4.592,2.298c-1.081,1.448 -1.416,3.321 -0.902,5.055l0.615,2.073l-3.309,1.935c-2.754,1.718 -4.786,4.38 -5.716,7.489l-0.636,2.118l-0.549,1.828c-0.303,1.01 0.27,2.074 1.28,2.376c1.01,0.303 2.074,-0.27 2.376,-1.28l0.548,-1.827l0.635,-2.116c0.656,-2.202 2.088,-4.091 4.031,-5.318l2.458,-1.435l11.274,38.05c0.029,0.093 0.057,0.191 0.092,0.28l-16.534,0c-3.161,0 -5.725,-2.563 -5.725,-5.724l0,-7.636c-0.019,-1.038 -0.85,-1.878 -1.887,-1.908c-0.512,-0.012 -1.007,0.184 -1.37,0.544c-0.364,0.36 -0.566,0.853 -0.56,1.364l0,7.633c0.007,5.268 4.275,9.536 9.542,9.542l95.417,0c5.266,-0.006 9.535,-4.274 9.541,-9.542l0,-8.648c0.001,-2.044 -0.298,-4.076 -0.885,-6.032l-3.681,-12.269Zm-72.339,-28.392c-3.428,-5.066 -5.226,-11.059 -5.153,-17.175c0,-20.967 13.374,-28.518 24.793,-28.616c11.45,0.098 24.823,7.649 24.823,28.616c0.074,6.116 -1.724,12.109 -5.152,17.175c-1.182,1.712 -1.588,3.843 -1.12,5.87c0.311,1.381 0.995,2.651 1.977,3.672l-10.838,0c6.17,-5.516 9.364,-16.221 9.364,-26.868c0,-19.793 -11.928,-22.749 -19.039,-22.749c-7.11,0 -19.039,2.956 -19.039,22.749c0,10.647 3.2,21.352 9.364,26.868l-10.837,0c0.979,-1.02 1.662,-2.287 1.973,-3.667c0.471,-2.028 0.066,-4.16 -1.116,-5.875Zm4.437,-17.332c-0.005,-12.556 5.118,-18.926 15.218,-18.926c10.101,0 15.223,6.37 15.223,18.932c0,13.026 -5.336,26.868 -15.223,26.868c-9.887,0 -15.223,-13.842 -15.223,-26.868l0.005,-0.006Zm-12.386,77.032l-11.965,-40.38l-1.04,-3.51c-0.172,-0.577 -0.061,-1.202 0.3,-1.685c0.36,-0.483 0.928,-0.768 1.53,-0.767l77.558,0c0.602,0 1.169,0.284 1.53,0.766c0.36,0.483 0.471,1.107 0.3,1.685l-1.038,3.507l-11.965,40.381c-0.24,0.809 -0.983,1.365 -1.828,1.366l-51.554,0c-0.843,0 -1.587,-0.555 -1.828,-1.363Zm81.037,-4.359c0,3.162 -2.563,5.725 -5.724,5.725l-16.536,0c0.034,-0.091 0.063,-0.19 0.092,-0.28l11.274,-38.05l2.406,1.404c1.965,1.226 3.416,3.125 4.082,5.343l3.681,12.269c0.481,1.603 0.726,3.268 0.725,4.941l0,8.648Z" style="fill:#428dff;fill-rule:nonzero;"/><path d="M36.258,77.37l0,-5.89c-0.002,-2.588 -2.1,-4.685 -4.688,-4.688l-2.072,0c-2.589,0.003 -4.686,2.1 -4.69,4.688l0,5.89c0.004,2.588 2.101,4.685 4.69,4.688l2.072,0c2.588,-0.003 4.686,-2.1 4.688,-4.688Zm-7.633,0l0,-5.89c0.002,-0.481 0.391,-0.871 0.873,-0.871l2.072,0c0.481,0 0.871,0.39 0.872,0.871l0,5.89c-0.001,0.481 -0.391,0.871 -0.872,0.872l-2.072,0c-0.482,-0.001 -0.871,-0.391 -0.873,-0.872Z" style="fill:#428dff;fill-rule:nonzero;"/><path d="M57.25,94.381l0,5.889c0.003,2.588 2.101,4.685 4.689,4.688l2.072,0c2.589,-0.003 4.686,-2.1 4.69,-4.688l0,-5.889c-0.004,-2.589 -2.101,-4.686 -4.69,-4.689l-2.072,0c-2.588,0.003 -4.686,2.1 -4.689,4.689Zm3.816,0c0.002,-0.482 0.392,-0.872 0.873,-0.873l2.072,0c0.482,0.001 0.871,0.391 0.872,0.873l0,5.889c-0.001,0.481 -0.39,0.87 -0.872,0.871l-2.072,0c-0.481,-0.001 -0.871,-0.39 -0.873,-0.871l0,-5.889Z" style="fill:#428dff;fill-rule:nonzero;"/><path d="M72.517,94.381l0,5.889c0.003,2.588 2.1,4.685 4.689,4.688l2.072,0c2.588,-0.003 4.685,-2.1 4.689,-4.688l0,-5.889c-0.004,-2.589 -2.101,-4.686 -4.689,-4.689l-2.072,0c-2.589,0.003 -4.686,2.1 -4.689,4.689Zm3.817,0c0.001,-0.482 0.39,-0.872 0.872,-0.873l2.072,0c0.481,0.001 0.871,0.391 0.872,0.873l0,5.889c-0.001,0.481 -0.391,0.87 -0.872,0.871l-2.072,0c-0.482,-0.001 -0.871,-0.39 -0.872,-0.871l0,-5.889Z" style="fill:#428dff;fill-rule:nonzero;"/><path d="M44.764,82.058l2.072,0c2.588,-0.003 4.686,-2.1 4.689,-4.688l0,-5.89c-0.003,-2.588 -2.101,-4.685 -4.689,-4.688l-2.072,0c-2.588,0.003 -4.686,2.1 -4.688,4.688l0,5.89c0.002,2.588 2.1,4.685 4.688,4.688Zm-0.872,-10.578c0.001,-0.481 0.391,-0.871 0.872,-0.871l2.072,0c0.481,0 0.871,0.39 0.873,0.871l0,5.89c-0.002,0.481 -0.392,0.871 -0.873,0.872l-2.072,0c-0.481,-0.001 -0.871,-0.391 -0.872,-0.872l0,-5.89Z" style="fill:#428dff;fill-rule:nonzero;"/><path d="M34.35,94.381l0,5.889c0.004,2.588 2.1,4.685 4.689,4.688l2.073,0c2.588,-0.003 4.685,-2.1 4.688,-4.688l0,-5.889c-0.003,-2.589 -2.1,-4.686 -4.688,-4.689l-2.073,0c-2.589,0.003 -4.685,2.1 -4.689,4.689Zm3.817,0c0.001,-0.482 0.39,-0.872 0.872,-0.873l2.073,0c0.481,0.001 0.871,0.391 0.871,0.873l0,5.889c0,0.481 -0.39,0.87 -0.871,0.871l-2.073,0c-0.482,-0.001 -0.871,-0.39 -0.872,-0.871l0,-5.889Z" style="fill:#428dff;fill-rule:nonzero;"/><path d="M67.664,82.058l2.073,0c2.588,-0.003 4.685,-2.1 4.688,-4.688l0,-5.89c-0.003,-2.588 -2.1,-4.685 -4.688,-4.688l-2.073,0c-2.589,0.003 -4.685,2.1 -4.689,4.688l0,5.89c0.004,2.588 2.1,4.685 4.689,4.688Zm-0.872,-10.578c0.001,-0.481 0.39,-0.871 0.872,-0.871l2.073,0c0.481,0 0.871,0.39 0.871,0.871l0,5.89c0,0.481 -0.39,0.871 -0.871,0.872l-2.073,0c-0.482,-0.001 -0.871,-0.391 -0.872,-0.872l0,-5.89Z" style="fill:#428dff;fill-rule:nonzero;"/><path d="M57.25,82.058c1.054,0 1.909,-0.854 1.909,-1.908l0,-11.45c0,-1.054 -0.855,-1.908 -1.909,-1.908c-1.054,0 -1.908,0.854 -1.908,1.908l0,11.45c0,1.054 0.854,1.908 1.908,1.908Z" style="fill:#428dff;fill-rule:nonzero;"/><path d="M80.15,82.058c1.054,0 1.908,-0.854 1.908,-1.908l0,-11.45c0,-1.054 -0.854,-1.908 -1.908,-1.908c-1.054,0 -1.908,0.854 -1.908,1.908l0,11.45c0,1.054 0.854,1.908 1.908,1.908Z" style="fill:#428dff;fill-rule:nonzero;"/><path d="M87.784,82.058c1.053,0 1.907,-0.854 1.907,-1.908l0,-11.45c0,-1.054 -0.854,-1.908 -1.907,-1.908c-1.055,0 -1.909,0.854 -1.909,1.908l0,11.45c0,1.054 0.854,1.908 1.909,1.908Z" style="fill:#428dff;fill-rule:nonzero;"/><path d="M49.617,91.6l0,11.45c0,1.054 0.854,1.908 1.908,1.908c1.054,0 1.908,-0.854 1.908,-1.908l0,-11.45c0,-1.054 -0.854,-1.908 -1.908,-1.908c-1.054,0 -1.908,0.854 -1.908,1.908Z" style="fill:#428dff;fill-rule:nonzero;"/><path d="M107.82,0c-3.688,0 -6.678,2.99 -6.678,6.679l0,8.588l-3.817,0c-3.162,0 -5.725,2.563 -5.725,5.725l0,5.725c0,4.216 3.418,7.633 7.633,7.633l3.817,0c4.216,0 7.633,-3.417 7.633,-7.633l0,-5.725c0,-3.162 -2.563,-5.725 -5.724,-5.725l0,-8.588c0,-1.581 1.281,-2.862 2.861,-2.862c1.582,0 2.863,1.281 2.863,2.862l0,4.771c0,1.054 0.854,1.909 1.909,1.909c1.053,0 1.908,-0.855 1.908,-1.909l0,-4.771c0,-3.689 -2.99,-6.679 -6.68,-6.679Zm-4.77,30.534l-3.817,0c-2.108,0 -3.816,-1.709 -3.816,-3.817l11.45,0c0,2.108 -1.709,3.817 -3.817,3.817Zm3.817,-9.542l0,1.909l-11.45,0l0,-1.909c0,-1.054 0.854,-1.909 1.908,-1.909l7.634,0c1.053,0 1.908,0.855 1.908,1.909Z" style="fill:#428dff;fill-rule:nonzero;"/><path d="M11.451,34.35c6.668,0 10.949,-6.297 11.129,-6.574c0.427,-0.641 0.427,-1.477 0,-2.118c-0.18,-0.268 -4.461,-6.575 -11.129,-6.575c-6.67,0 -10.95,6.307 -11.13,6.575c-0.428,0.641 -0.428,1.477 0,2.118c0.18,0.277 4.46,6.574 11.13,6.574Zm0,-11.449c2.792,0.242 5.361,1.623 7.106,3.816c-1.745,2.194 -4.314,3.573 -7.106,3.817c-2.793,-0.244 -5.362,-1.624 -7.108,-3.817c1.746,-2.193 4.315,-3.574 7.108,-3.816Z" style="fill:#428dff;fill-rule:nonzero;"/><path d="M11.451,15.267c6.668,0 10.949,-6.298 11.129,-6.574c0.427,-0.641 0.427,-1.477 0,-2.118c-0.18,-0.268 -4.461,-6.575 -11.129,-6.575c-6.67,0 -10.95,6.307 -11.13,6.575c-0.428,0.641 -0.428,1.477 0,2.118c0.18,0.276 4.46,6.574 11.13,6.574Zm0,-11.45c2.792,0.243 5.361,1.623 7.106,3.816c-1.745,2.194 -4.314,3.574 -7.106,3.817c-2.793,-0.244 -5.362,-1.623 -7.108,-3.817c1.746,-2.193 4.315,-3.573 7.108,-3.816Z" style="fill:#428dff;fill-rule:nonzero;"/><path d="M97.325,49.617c3.162,0 5.725,-2.563 5.725,-5.726l0,-3.816c0,-1.054 -0.854,-1.908 -1.908,-1.908c-1.054,0 -1.909,0.854 -1.909,1.908l0,3.816c0,1.055 -0.854,1.909 -1.908,1.909l-7.634,0c-1.053,0 -1.907,0.855 -1.907,1.908c0,1.054 0.854,1.909 1.907,1.909l7.634,0Z" style="fill:#428dff;fill-rule:nonzero;"/><path d="M11.451,38.167c-1.055,0 -1.909,0.854 -1.909,1.908l0,3.816c0,3.163 2.563,5.726 5.725,5.726l9.541,0c1.055,0 1.909,-0.855 1.909,-1.909c0,-1.053 -0.854,-1.908 -1.909,-1.908l-9.541,0c-1.054,0 -1.908,-0.854 -1.908,-1.909l0,-3.816c0,-1.054 -0.855,-1.908 -1.908,-1.908Z" style="fill:#428dff;fill-rule:nonzero;"/></g></g></svg>