<?xml version="1.0" encoding="UTF-8" standalone="no"?><!DOCTYPE svg PUBLIC "-//W3C//DTD SVG 1.1//EN" "http://www.w3.org/Graphics/SVG/1.1/DTD/svg11.dtd"><svg width="100%" height="100%" viewBox="0 0 85 85" version="1.1" xmlns="http://www.w3.org/2000/svg" xmlns:xlink="http://www.w3.org/1999/xlink" xml:space="preserve" xmlns:serif="http://www.serif.com/" style="fill-rule:evenodd;clip-rule:evenodd;stroke-linejoin:round;stroke-miterlimit:1.41421;"><clipPath id="_clip1"><rect id="rating" x="0" y="0" width="84" height="84"/></clipPath><g clip-path="url(#_clip1)"><path d="M11.308,49.243c-1.195,-1.699 -1.832,-3.728 -1.824,-5.806l0,-33.302c0,-5.598 4.538,-10.135 10.136,-10.135l52.124,0c5.598,0 10.135,4.537 10.135,10.135l0,33.302c0,5.597 -4.537,10.136 -10.135,10.136l-7.254,0l-53.182,-4.33Z" style="fill:#2f6dff;fill-rule:nonzero;"/><path d="M11.308,49.243c-1.195,-1.699 -1.832,-3.728 -1.824,-5.806l0,-33.302c0,-5.598 4.538,-10.135 10.136,-10.135l52.124,0c5.598,0 10.135,4.537 10.135,10.135l0,33.302c0,5.597 -4.537,10.136 -10.135,10.136l-7.254,0l-53.182,-4.33Z" style="fill:#489aff;fill-rule:nonzero;"/><path d="M23.963,13.031l2.05,7.24l6.638,0l-5.369,3.126l2.05,7.009l-5.369,-4.562l-5.369,4.562l2.051,-7.009l-5.369,-3.126l6.637,0l2.05,-7.24Z" style="fill:#f0c419;fill-rule:nonzero;"/><path d="M23.963,13.031l2.05,7.24l6.638,0l-5.369,3.126l2.05,7.009l-5.369,-4.562l-5.369,4.562l2.051,-7.009l-5.369,-3.126l6.637,0l2.05,-7.24Z" style="fill:#f0c419;fill-rule:nonzero;"/><path d="M23.963,13.031l2.05,7.24l6.638,0l-5.369,3.126l2.05,7.009l-5.369,-4.562l-5.369,4.562l2.051,-7.009l-5.369,-3.126l6.637,0l2.05,-7.24Z" style="fill:#ffc240;fill-rule:nonzero;"/><path d="M45.682,5.791l2.05,7.24l6.637,0l-5.369,3.126l2.051,7.009l-5.369,-4.562l-5.369,4.562l2.05,-7.009l-5.368,-3.126l6.636,0l2.051,-7.24Z" style="fill:#f0c419;fill-rule:nonzero;"/><path d="M45.682,5.791l2.05,7.24l6.637,0l-5.369,3.126l2.051,7.009l-5.369,-4.562l-5.369,4.562l2.05,-7.009l-5.368,-3.126l6.636,0l2.051,-7.24Z" style="fill:#ffc240;fill-rule:nonzero;"/><path d="M67.401,13.031l2.049,7.24l6.638,0l-5.369,3.126l2.05,7.009l-5.368,-4.562l-5.369,4.562l2.05,-7.009l-5.369,-3.126l6.637,0l2.051,-7.24Z" style="fill:#f0c419;fill-rule:nonzero;"/><path d="M67.401,13.031l2.049,7.24l6.638,0l-5.369,3.126l2.05,7.009l-5.368,-4.562l-5.369,4.562l2.05,-7.009l-5.369,-3.126l6.637,0l2.051,-7.24Z" style="fill:#ffc240;fill-rule:nonzero;"/><path d="M51.619,83.978l-23.904,0c0,0 -7.627,0.579 -12.042,-4.245c-0.509,-0.552 -0.542,-1.546 -2.693,-1.546l-7.905,0c-1.573,-0.036 -2.83,-1.322 -2.83,-2.896l0,-22.806c-0.023,-1.648 1.196,-3.049 2.83,-3.256l4.664,0c2.833,0 5.637,0.275 8.01,-1.482c0.776,-0.607 1.498,-1.279 2.16,-2.008c8.303,-8.687 21.336,-10.086 29.779,-18.521c2.791,-2.789 5.582,0 5.582,2.789c0,2.631 -4.978,7.858 -9.058,10.792c-0.47,0.338 -0.936,0.674 -1.385,1.038l-0.466,0.378c-1.743,1.181 -3.25,2.678 -4.442,4.414c-0.052,0.081 -0.203,0.373 -0.387,0.741c-0.217,0.417 -0.187,0.919 0.078,1.308c0.265,0.388 0.722,0.6 1.189,0.551l19.411,0c1.164,0.067 2.255,0.587 3.041,1.448c1.138,1.228 1.543,2.967 1.066,4.572c-0.717,1.683 -2.401,2.745 -4.228,2.667l-0.952,0c1.141,-0.001 2.235,0.451 3.041,1.258c1.139,1.262 1.542,3.024 1.065,4.655c-0.704,1.706 -2.382,2.807 -4.228,2.775l-2.027,0c1.141,-0.002 2.235,0.451 3.041,1.258c1.138,1.218 1.544,2.95 1.066,4.547c-0.69,1.732 -2.363,2.872 -4.227,2.882l-5.122,0c1.14,-0.001 2.234,0.452 3.04,1.258c1.135,1.177 1.543,2.877 1.066,4.441c-0.679,1.759 -2.349,2.937 -4.233,2.988Z" style="fill:#2f6dff;fill-rule:nonzero;"/><path d="M51.619,83.978l-23.904,0c0,0 -7.627,0.58 -12.042,-4.245c-0.509,-0.552 -0.542,-1.546 -2.693,-1.546l-7.905,0c-1.573,-0.035 -2.83,-1.322 -2.83,-2.896l0,-22.806c-0.023,-1.648 1.196,-3.049 2.83,-3.256l4.664,0c2.833,0 5.637,0.275 8.01,-1.482c0.776,-0.606 1.498,-1.278 2.16,-2.008c8.303,-8.687 21.336,-10.085 29.779,-18.521c2.791,-2.789 5.582,0 5.582,2.789c0,2.632 -4.978,7.859 -9.058,10.792c-0.47,0.338 -0.936,0.675 -1.385,1.038l-0.466,0.378c-1.743,1.181 -3.25,2.678 -4.442,4.415c-0.052,0.08 -0.203,0.372 -0.387,0.74c-0.217,0.417 -0.187,0.92 0.078,1.308c0.265,0.389 0.722,0.6 1.189,0.551l19.411,0c1.164,0.068 2.255,0.587 3.041,1.448c1.138,1.229 1.543,2.967 1.066,4.572c-0.717,1.683 -2.401,2.745 -4.228,2.667l-0.952,0c1.141,-0.001 2.235,0.451 3.041,1.259c1.139,1.261 1.542,3.023 1.065,4.654c-0.704,1.707 -2.382,2.808 -4.228,2.775l-2.027,0c1.141,-0.002 2.235,0.451 3.041,1.258c1.138,1.219 1.544,2.95 1.066,4.548c-0.69,1.731 -2.363,2.871 -4.227,2.881l-5.122,0c1.14,-0.001 2.234,0.452 3.04,1.259c1.135,1.176 1.543,2.876 1.066,4.44c-0.679,1.759 -2.349,2.937 -4.233,2.988Z" style="fill:#f7d3a9;fill-rule:nonzero;"/><g><path d="M8.037,59.364c-0.8,0 -1.449,-0.648 -1.449,-1.448l0,-2.896c0,-0.8 0.649,-1.447 1.449,-1.447c0.799,0 1.447,0.647 1.447,1.447l0,2.896c0,0.8 -0.648,1.448 -1.447,1.448Z" style="fill:#fff;fill-rule:nonzero;"/><path d="M8.037,73.843c-0.8,0 -1.449,-0.648 -1.449,-1.448l0,-8.687c0,-0.8 0.649,-1.448 1.449,-1.448c0.799,0 1.447,0.648 1.447,1.448l0,8.687c0,0.8 -0.648,1.448 -1.447,1.448Z" style="fill:#fff;fill-rule:nonzero;"/><path d="M57.265,59.364l-10.135,0c-0.8,0 -1.448,-0.648 -1.448,-1.448c0,-0.8 0.648,-1.448 1.448,-1.448l10.135,0c0.8,0 1.448,0.648 1.448,1.448c0,0.8 -0.648,1.448 -1.448,1.448Z" style="fill:#fff;fill-rule:nonzero;"/><path d="M55.817,68.051l-10.135,0c-0.8,0 -1.448,-0.648 -1.448,-1.447c0,-0.8 0.648,-1.449 1.448,-1.449l10.135,0c0.8,0 1.448,0.649 1.448,1.449c0,0.799 -0.648,1.447 -1.448,1.447Z" style="fill:#fff;fill-rule:nonzero;"/><path d="M52.135,76.739l-8.687,0c-0.8,0 -1.448,-0.648 -1.448,-1.448c0,-0.8 0.648,-1.448 1.448,-1.448l8.687,0c0.8,0 1.449,0.648 1.449,1.448c0,0.8 -0.649,1.448 -1.449,1.448Z" style="fill:#fff;fill-rule:nonzero;"/></g></g></svg>