<?xml version="1.0" encoding="UTF-8" standalone="no"?><!DOCTYPE svg PUBLIC "-//W3C//DTD SVG 1.1//EN" "http://www.w3.org/Graphics/SVG/1.1/DTD/svg11.dtd"><svg width="100%" height="100%" viewBox="0 0 88 88" version="1.1" xmlns="http://www.w3.org/2000/svg" xmlns:xlink="http://www.w3.org/1999/xlink" xml:space="preserve" xmlns:serif="http://www.serif.com/" style="fill-rule:evenodd;clip-rule:evenodd;stroke-linejoin:round;stroke-miterlimit:1.41421;"><clipPath id="_clip1"><rect id="download" x="0" y="0" width="87.333" height="87.333"/></clipPath><g clip-path="url(#_clip1)"><g><g><path d="M85.878,10.189l0,69.867c0,3.215 -2.607,5.822 -5.822,5.822l-72.778,0c-3.216,0 -5.822,-2.607 -5.822,-5.822l0,-69.867l84.422,0Z" style="fill:url(#_Linear2);fill-rule:nonzero;"/><path d="M85.878,7.278l0,5.822l-84.422,0l0,-5.822c0,-3.216 2.606,-5.822 5.822,-5.822l72.778,0c3.215,0 5.822,2.606 5.822,5.822Z" style="fill:#a4c2f7;fill-rule:nonzero;"/><path d="M81.511,7.278l0,5.822l-80.055,0l0,-5.822c0,-3.216 2.606,-5.822 5.822,-5.822l68.411,0c3.215,0 5.822,2.606 5.822,5.822Z" style="fill:#e3e7f2;fill-rule:nonzero;"/><path d="M68.411,52.4c0.006,-11.983 -8.582,-22.244 -20.378,-24.352l-8.733,0c-12.187,2.205 -20.867,13.079 -20.316,25.452c0.551,12.372 10.165,22.431 22.499,23.543c0.726,0.07 1.455,0.104 2.184,0.101c13.666,0.001 24.744,-11.078 24.744,-24.744Z" style="fill:#a4c2f7;fill-rule:nonzero;"/><g><path d="M64.045,52.4c0.005,-11.983 -8.582,-22.244 -20.378,-24.352l-4.367,0c-12.187,2.205 -20.867,13.079 -20.316,25.452c0.551,12.372 10.165,22.431 22.499,23.543c12.774,-1.12 22.571,-11.821 22.562,-24.643Z" style="fill:#e3e7f2;fill-rule:nonzero;"/><path d="M39.3,23.289l0,17.467l-4.557,0c-0.538,-0.001 -1.031,0.294 -1.285,0.768c-0.254,0.473 -0.226,1.048 0.072,1.495l8.926,13.391c0.27,0.405 0.724,0.648 1.211,0.648c0.486,0 0.941,-0.243 1.211,-0.648l8.925,-13.391c0.298,-0.447 0.326,-1.022 0.072,-1.495c-0.253,-0.474 -0.747,-0.769 -1.284,-0.768l-4.558,0l0,-17.467c0,-0.804 -0.651,-1.455 -1.455,-1.455l-5.822,0c-0.804,-0.001 -1.456,0.651 -1.456,1.455Z" style="fill:#e3e7f2;fill-rule:nonzero;"/></g><path d="M5.822,80.056l0,-72.778c0,-3.216 2.607,-5.822 5.823,-5.822l-4.367,0c-3.216,0 -5.822,2.606 -5.822,5.822l0,72.778c0,3.215 2.606,5.822 5.822,5.822l4.367,0c-3.216,0 -5.823,-2.607 -5.823,-5.822Z" style="fill:#fff;fill-rule:nonzero;"/></g><g><path d="M0,80.056l0,-18.923l0,-53.855l2.911,0l0,72.778l-2.911,0Z" style="fill:#fff;fill-rule:nonzero;"/><g><path d="M0.903,69.75c0.082,0.042 0.17,0.072 0.262,0.088c0.096,0.016 0.193,0.026 0.291,0.029c0.385,-0.006 0.754,-0.157 1.033,-0.422c0.132,-0.14 0.236,-0.303 0.306,-0.481c0.219,-0.543 0.1,-1.164 -0.306,-1.586c-0.139,-0.132 -0.302,-0.236 -0.48,-0.306c-0.175,-0.074 -0.363,-0.114 -0.553,-0.116c-0.386,0.005 -0.755,0.156 -1.034,0.422c-0.563,0.574 -0.563,1.493 0,2.067l0.219,0.174c0.081,0.055 0.169,0.099 0.262,0.131Z" style="fill:#428dff;fill-rule:nonzero;"/><path d="M80.056,0l-72.778,0c-4.017,0.005 -7.273,3.26 -7.278,7.278l0,55.311c0,0.804 0.652,1.456 1.455,1.456c0.804,0 1.456,-0.652 1.456,-1.456l0,-48.033l81.511,0l0,65.5c0,2.411 -1.955,4.366 -4.366,4.366l-72.778,0c-2.412,0 -4.367,-1.955 -4.367,-4.366l0,-5.823c0,-0.804 -0.652,-1.455 -1.455,-1.455c-0.804,0 -1.456,0.651 -1.456,1.455l0,5.823c0.005,4.017 3.261,7.273 7.278,7.277l72.778,0c4.017,-0.004 7.273,-3.26 7.278,-7.277l0,-72.778c-0.005,-4.018 -3.261,-7.273 -7.278,-7.278Zm-77.145,11.645l0,-4.367c0,-2.412 1.955,-4.367 4.367,-4.367l72.778,0c2.411,0 4.366,1.955 4.366,4.367l0,4.367l-81.511,0Z" style="fill:#428dff;fill-rule:nonzero;"/><path d="M10.189,5.822l-1.456,0c-0.804,0 -1.455,0.652 -1.455,1.456c0,0.804 0.652,1.455 1.455,1.455l1.456,0c0.804,0 1.455,-0.651 1.455,-1.455c0,-0.804 -0.651,-1.456 -1.455,-1.456Z" style="fill:#428dff;fill-rule:nonzero;"/><path d="M17.045,6.244c-0.584,-0.538 -1.483,-0.538 -2.067,0c-0.132,0.14 -0.236,0.303 -0.306,0.481c-0.232,0.541 -0.111,1.17 0.306,1.586c0.416,0.417 1.045,0.538 1.586,0.306c0.177,-0.074 0.339,-0.177 0.481,-0.306c0.128,-0.142 0.231,-0.304 0.305,-0.48c0.156,-0.353 0.156,-0.754 0,-1.106c-0.07,-0.178 -0.174,-0.341 -0.305,-0.481Z" style="fill:#428dff;fill-rule:nonzero;"/><path d="M22.867,6.244c-0.069,-0.062 -0.142,-0.121 -0.218,-0.174c-0.082,-0.055 -0.17,-0.1 -0.262,-0.131c-0.083,-0.042 -0.171,-0.072 -0.262,-0.088c-0.48,-0.097 -0.977,0.05 -1.325,0.393c-0.132,0.14 -0.235,0.303 -0.306,0.481c-0.264,0.641 -0.04,1.379 0.537,1.765c0.576,0.385 1.345,0.311 1.836,-0.179c0.128,-0.141 0.231,-0.304 0.306,-0.48c0.155,-0.352 0.155,-0.754 0,-1.106c-0.071,-0.178 -0.174,-0.341 -0.306,-0.481Z" style="fill:#428dff;fill-rule:nonzero;"/><path d="M78.6,5.822l-49.489,0c-0.804,0 -1.455,0.652 -1.455,1.456c0,0.804 0.651,1.455 1.455,1.455l49.489,0c0.804,0 1.456,-0.651 1.456,-1.455c0,-0.804 -0.652,-1.456 -1.456,-1.456Z" style="fill:#428dff;fill-rule:nonzero;"/><path d="M40.756,40.756l0,-18.923c0,-0.804 -0.652,-1.455 -1.456,-1.455c-0.804,0 -1.455,0.652 -1.455,1.455l0,5.051c-13.003,2.964 -21.705,15.222 -20.214,28.475c1.491,13.252 12.699,23.27 26.036,23.27c13.336,0 24.544,-10.018 26.035,-23.271c1.492,-13.252 -7.21,-25.51 -20.213,-28.474l0,-5.051c0,-0.804 -0.652,-1.455 -1.455,-1.455c-0.804,0 -1.456,0.652 -1.456,1.455l0,18.923c0,0.803 0.652,1.455 1.456,1.455l4.557,0l-8.924,13.391l-8.924,-13.391l4.557,0c0.804,0 1.456,-0.652 1.456,-1.455Zm-8.734,-1.456c-0.537,0 -1.03,0.295 -1.283,0.769c-0.254,0.473 -0.226,1.048 0.072,1.495l11.645,17.459c0.098,0.142 0.221,0.264 0.362,0.362c0.016,0.012 0.025,0.029 0.041,0.041c0.016,0.012 0.039,0.016 0.058,0.028c0.081,0.047 0.166,0.087 0.254,0.118c0.038,0.014 0.074,0.032 0.113,0.043c0.12,0.036 0.244,0.058 0.369,0.063l0.029,0c0.124,-0.003 0.248,-0.021 0.368,-0.054c0.039,-0.012 0.076,-0.029 0.114,-0.044c0.088,-0.031 0.173,-0.07 0.253,-0.118c0.019,-0.011 0.039,-0.016 0.058,-0.027c0.019,-0.012 0.025,-0.029 0.041,-0.041c0.141,-0.098 0.264,-0.221 0.362,-0.362l11.645,-17.46c0.303,-0.447 0.333,-1.025 0.079,-1.501c-0.254,-0.476 -0.75,-0.773 -1.29,-0.771l-5.822,0l0,-9.438c11.355,2.932 18.758,13.85 17.281,25.484c-1.478,11.634 -11.376,20.355 -23.103,20.355c-11.728,0 -21.626,-8.721 -23.104,-20.355c-1.477,-11.634 5.926,-22.552 17.281,-25.484l0,9.438l-5.823,0Z" style="fill:#428dff;fill-rule:nonzero;"/><path d="M34.933,66.956l17.467,0c0.804,0 1.456,-0.652 1.456,-1.456c0,-0.804 -0.652,-1.455 -1.456,-1.455l-17.467,0c-0.804,0 -1.455,0.651 -1.455,1.455c0,0.804 0.652,1.456 1.455,1.456Z" style="fill:#428dff;fill-rule:nonzero;"/></g></g></g></g><defs><linearGradient id="_Linear2" x1="0" y1="0" x2="1" y2="0" gradientUnits="userSpaceOnUse" gradientTransform="matrix(78.3523,78.3456,-78.3456,78.3523,4.4891,7.15008)"><stop offset="0" style="stop-color:#d3dff2;stop-opacity:1"/><stop offset="0.17" style="stop-color:#d3dff2;stop-opacity:1"/><stop offset="0.2" style="stop-color:#d3dff2;stop-opacity:1"/><stop offset="0.2" style="stop-color:#dae2f2;stop-opacity:1"/><stop offset="0.2" style="stop-color:#ebeaf2;stop-opacity:1"/><stop offset="0.2" style="stop-color:#f6eff2;stop-opacity:1"/><stop offset="0.2" style="stop-color:#fdf2f2;stop-opacity:1"/><stop offset="0.21" style="stop-color:#fff3f2;stop-opacity:1"/><stop offset="0.25" style="stop-color:#fff3f2;stop-opacity:1"/><stop offset="0.26" style="stop-color:#fff3f2;stop-opacity:1"/><stop offset="0.26" style="stop-color:#d3dff2;stop-opacity:1"/><stop offset="0.4" style="stop-color:#d3dff2;stop-opacity:1"/><stop offset="0.42" style="stop-color:#d3dff2;stop-opacity:1"/><stop offset="0.42" style="stop-color:#dae2f2;stop-opacity:1"/><stop offset="0.42" style="stop-color:#ebeaf2;stop-opacity:1"/><stop offset="0.42" style="stop-color:#f6eff2;stop-opacity:1"/><stop offset="0.42" style="stop-color:#fdf2f2;stop-opacity:1"/><stop offset="0.43" style="stop-color:#fff3f2;stop-opacity:1"/><stop offset="0.49" style="stop-color:#fff3f2;stop-opacity:1"/><stop offset="0.5" style="stop-color:#fff3f2;stop-opacity:1"/><stop offset="0.5" style="stop-color:#f8f0f2;stop-opacity:1"/><stop offset="0.5" style="stop-color:#e7e8f2;stop-opacity:1"/><stop offset="0.5" style="stop-color:#dce3f2;stop-opacity:1"/><stop offset="0.5" style="stop-color:#d5e0f2;stop-opacity:1"/><stop offset="0.5" style="stop-color:#d3dff2;stop-opacity:1"/><stop offset="0.71" style="stop-color:#d3dff2;stop-opacity:1"/><stop offset="0.74" style="stop-color:#d3dff2;stop-opacity:1"/><stop offset="0.74" style="stop-color:#fff3f2;stop-opacity:1"/><stop offset="0.84" style="stop-color:#fff3f2;stop-opacity:1"/><stop offset="0.85" style="stop-color:#fff3f2;stop-opacity:1"/><stop offset="0.85" style="stop-color:#d3dff2;stop-opacity:1"/><stop offset="1" style="stop-color:#d3dff2;stop-opacity:1"/></linearGradient></defs></svg>