<?xml version="1.0" encoding="UTF-8" standalone="no"?><!DOCTYPE svg PUBLIC "-//W3C//DTD SVG 1.1//EN" "http://www.w3.org/Graphics/SVG/1.1/DTD/svg11.dtd"><svg width="100%" height="100%" viewBox="0 0 80 80" version="1.1" xmlns="http://www.w3.org/2000/svg" xmlns:xlink="http://www.w3.org/1999/xlink" xml:space="preserve" xmlns:serif="http://www.serif.com/" style="fill-rule:evenodd;clip-rule:evenodd;stroke-linejoin:round;stroke-miterlimit:1.41421;"><path d="M4.119,0l71.382,0c2.275,0 4.119,1.844 4.119,4.119l0,71.382c0,2.275 -1.844,4.119 -4.119,4.119l-71.382,0c-2.275,0 -4.119,-1.844 -4.119,-4.119l0,-71.382c0,-2.275 1.844,-4.119 4.119,-4.119Z" style="fill:#e6e7e8;fill-rule:nonzero;"/><path d="M4.119,0l71.382,0c2.275,0 4.119,1.844 4.119,4.119l0,71.382c0,2.275 -1.844,4.119 -4.119,4.119l-71.382,0c-2.275,0 -4.119,-1.844 -4.119,-4.119l0,-71.382c0,-2.275 1.844,-4.119 4.119,-4.119Z" style="fill:#e3eaff;fill-rule:nonzero;"/><path d="M4.119,0l71.382,0c2.275,0 4.119,1.844 4.119,4.119l0,71.382c0,2.275 -1.844,4.119 -4.119,4.119l-71.382,0c-2.275,0 -4.119,-1.844 -4.119,-4.119l0,-71.382c0,-2.275 1.844,-4.119 4.119,-4.119Z" style="fill:#e3eaff;fill-rule:nonzero;"/><path d="M79.62,4.119l0,6.863l-79.62,0l0,-6.863c0,-2.275 1.844,-4.119 4.119,-4.119l71.382,0c2.275,0 4.119,1.844 4.119,4.119Z" style="fill:#6db8ff;fill-rule:nonzero;"/><path d="M5.519,6.864c-0.758,0.004 -1.376,-0.608 -1.38,-1.366c-0.004,-0.758 0.608,-1.376 1.366,-1.379l0.014,0c0.758,0 1.373,0.614 1.373,1.372c0,0.758 -0.615,1.373 -1.373,1.373Z" style="fill:#24ae5f;fill-rule:nonzero;"/><path d="M10.982,6.864c-0.758,0.004 -1.376,-0.608 -1.379,-1.366c-0.005,-0.758 0.607,-1.376 1.365,-1.379l0.014,0c0.758,0 1.373,0.614 1.373,1.372c0,0.758 -0.615,1.373 -1.373,1.373Z" style="fill:#f0c419;fill-rule:nonzero;"/><path d="M16.48,6.864c-0.758,0.001 -1.374,-0.611 -1.376,-1.37c-0.002,-0.758 0.611,-1.374 1.369,-1.375l0.014,0c0.758,0 1.373,0.614 1.373,1.372c0,0.758 -0.615,1.373 -1.373,1.373l-0.007,0Z" style="fill:#c03a2b;fill-rule:nonzero;"/><path d="M13.728,53.538l8.236,0c1.516,0 2.746,1.229 2.746,2.745l0,17.846l-13.728,0l0,-17.846c0,-1.516 1.229,-2.745 2.746,-2.745Z" style="fill:#ff8b40;fill-rule:nonzero;"/><path d="M37.064,41.183l8.237,0c1.517,0 2.745,1.229 2.745,2.746l0,30.2l-13.727,0l0,-30.2c0,-1.517 1.229,-2.746 2.745,-2.746Z" style="fill:#9570ee;fill-rule:nonzero;"/><path d="M60.401,28.828l8.237,0c1.516,0 2.746,1.229 2.746,2.746l0,42.555l-13.728,0l0,-42.555c0,-1.517 1.229,-2.746 2.745,-2.746Z" style="fill:#fd4940;fill-rule:nonzero;"/><path d="M16.473,45.301c-0.452,0 -0.876,-0.223 -1.132,-0.595c-0.256,-0.373 -0.313,-0.849 -0.15,-1.271l6.864,-17.845c0.145,-0.38 0.451,-0.675 0.834,-0.808c0.384,-0.132 0.807,-0.088 1.155,0.121l12.51,7.505l6.177,-11.119c0.196,-0.354 0.539,-0.603 0.936,-0.681c0.396,-0.079 0.808,0.023 1.124,0.276l5.959,4.767l11.488,-10.213c0.569,-0.504 1.438,-0.452 1.942,0.116c0.505,0.57 0.452,1.439 -0.116,1.943l-12.355,10.982c-0.5,0.445 -1.249,0.464 -1.771,0.046l-5.598,-4.474l-6.074,10.935c-0.181,0.325 -0.486,0.563 -0.846,0.659c-0.359,0.096 -0.742,0.042 -1.061,-0.15l-12.328,-7.395l-6.276,16.321c-0.204,0.53 -0.714,0.88 -1.282,0.88Z" style="fill:#2f6dff;fill-rule:nonzero;"/><path d="M61.774,23.337c-0.113,0 -0.225,-0.013 -0.335,-0.041c-0.735,-0.184 -1.182,-0.93 -0.998,-1.665l0.846,-3.386l-4.736,0.946c-0.73,0.12 -1.424,-0.36 -1.569,-1.085c-0.145,-0.726 0.311,-1.436 1.031,-1.605l6.863,-1.373c0.462,-0.092 0.938,0.058 1.263,0.398c0.324,0.341 0.452,0.824 0.338,1.28l-1.372,5.492c-0.153,0.61 -0.701,1.038 -1.331,1.039Z" style="fill:#2f6dff;fill-rule:nonzero;"/><path d="M74.129,75.501l-68.638,0c-0.758,0 -1.372,-0.614 -1.372,-1.372l0,-57.656c0,-0.758 0.614,-1.373 1.372,-1.373c0.758,0 1.373,0.615 1.373,1.373l0,56.283l67.265,0c0.758,0 1.372,0.615 1.372,1.373c0,0.758 -0.614,1.372 -1.372,1.372Z" style="fill:#5e5f62;fill-rule:nonzero;"/><path d="M74.129,75.501l-68.638,0c-0.758,0 -1.372,-0.614 -1.372,-1.372l0,-57.656c0,-0.758 0.614,-1.373 1.372,-1.373c0.758,0 1.373,0.615 1.373,1.373l0,56.283l67.265,0c0.758,0 1.372,0.615 1.372,1.373c0,0.758 -0.614,1.372 -1.372,1.372Z" style="fill:#6db8ff;fill-rule:nonzero;"/></svg>