<?xml version="1.0" encoding="UTF-8" standalone="no"?><!DOCTYPE svg PUBLIC "-//W3C//DTD SVG 1.1//EN" "http://www.w3.org/Graphics/SVG/1.1/DTD/svg11.dtd"><svg width="100%" height="100%" viewBox="0 0 90 90" version="1.1" xmlns="http://www.w3.org/2000/svg" xmlns:xlink="http://www.w3.org/1999/xlink" xml:space="preserve" xmlns:serif="http://www.serif.com/" style="fill-rule:evenodd;clip-rule:evenodd;stroke-linejoin:round;stroke-miterlimit:1.41421;"><clipPath id="_clip1"><rect id="layout" x="0" y="0" width="89.5" height="89.5"/></clipPath><g clip-path="url(#_clip1)"><path d="M88.008,82.041c0,3.296 -2.671,5.967 -5.967,5.967l-79.058,0c-0.823,0 -1.491,-0.668 -1.491,-1.491l0,-71.601c0,-0.823 0.668,-1.491 1.491,-1.491l73.092,0l11.933,68.616Z" style="fill:#a4c2f7;fill-rule:nonzero;"/><path d="M83.533,82.041c0,3.296 -2.671,5.967 -5.966,5.967l-74.584,0c-0.823,0 -1.491,-0.668 -1.491,-1.491l0,-71.601c0,-0.823 0.668,-1.491 1.491,-1.491l74.584,0l5.966,68.616Z" style="fill:#e3e7f2;fill-rule:nonzero;"/><path d="M28.342,20.883l38.783,0c0.824,0 1.492,0.669 1.492,1.492l0,23.867c0,0.823 -0.668,1.491 -1.492,1.491l-38.783,0c-0.824,0 -1.492,-0.668 -1.492,-1.491l0,-23.867c0,-0.823 0.668,-1.492 1.492,-1.492Z" style="fill:#e3e7f2;fill-rule:nonzero;"/><path d="M28.342,20.883l34.308,0c0.824,0 1.492,0.669 1.492,1.492l0,23.867c0,0.823 -0.668,1.491 -1.492,1.491l-34.308,0c-0.824,0 -1.492,-0.668 -1.492,-1.491l0,-23.867c0,-0.823 0.668,-1.492 1.492,-1.492Z" style="fill:#e3e7f2;fill-rule:nonzero;"/><path d="M28.342,53.7l14.916,0c0.824,0 1.492,0.668 1.492,1.492l0,11.933c0,0.823 -0.668,1.492 -1.492,1.492l-14.916,0c-0.824,0 -1.492,-0.669 -1.492,-1.492l0,-11.933c0,-0.824 0.668,-1.492 1.492,-1.492Z" style="fill:#e3e7f2;fill-rule:nonzero;"/><path d="M52.209,53.7l14.916,0c0.824,0 1.492,0.668 1.492,1.492l0,11.933c0,0.823 -0.668,1.492 -1.492,1.492l-14.916,0c-0.825,0 -1.492,-0.669 -1.492,-1.492l0,-11.933c0,-0.824 0.667,-1.492 1.492,-1.492Z" style="fill:#e3e7f2;fill-rule:nonzero;"/><path d="M28.342,53.7l10.441,0c0.824,0 1.492,0.668 1.492,1.492l0,11.933c0,0.823 -0.668,1.492 -1.492,1.492l-10.441,0c-0.824,0 -1.492,-0.669 -1.492,-1.492l0,-11.933c0,-0.824 0.668,-1.492 1.492,-1.492Z" style="fill:#e3e7f2;fill-rule:nonzero;"/><path d="M52.209,53.7l10.441,0c0.824,0 1.492,0.668 1.492,1.492l0,11.933c0,0.823 -0.668,1.492 -1.492,1.492l-10.441,0c-0.825,0 -1.492,-0.669 -1.492,-1.492l0,-11.933c0,-0.824 0.667,-1.492 1.492,-1.492Z" style="fill:#e3e7f2;fill-rule:nonzero;"/><path d="M88.008,7.459l0,74.582c-0.003,-0.471 -0.059,-0.941 -0.164,-1.401c-0.504,-2.153 -2.166,-3.845 -4.311,-4.386c-0.015,0 -0.045,-0.015 -0.059,-0.015c-1.217,-0.291 -2.494,-0.197 -3.655,0.269c-0.958,0.373 -1.797,0.996 -2.431,1.805c-0.206,0.241 -0.541,0.325 -0.837,0.211c-0.295,-0.115 -0.486,-0.402 -0.476,-0.719l0,-70.346c-0.004,-2.431 1.473,-4.617 3.729,-5.52c0.707,-0.301 1.469,-0.453 2.237,-0.447c1.583,0 3.1,0.628 4.22,1.747c1.119,1.12 1.747,2.637 1.747,4.22Z" style="fill:#a4c2f7;fill-rule:nonzero;"/><path d="M83.533,7.459l0,74.582c-0.004,-0.471 -0.058,-0.941 -0.163,-1.401c-0.44,-1.874 -1.764,-3.417 -3.551,-4.132c-0.263,-0.119 -0.538,-0.208 -0.82,-0.269c-0.962,-0.227 -1.964,-0.221 -2.924,0.015l0,-68.795c-0.004,-2.431 1.473,-4.617 3.729,-5.52c2.256,0.903 3.734,3.089 3.729,5.52Z" style="fill:#e3e7f2;fill-rule:nonzero;"/><path d="M8.95,1.492l8.95,0c0.824,0 1.492,0.668 1.492,1.491l0,65.634c0,0.823 -0.668,1.491 -1.492,1.491l-8.95,0c-0.824,0 -1.491,-0.668 -1.491,-1.491l0,-65.634c0,-0.823 0.667,-1.491 1.491,-1.491Z" style="fill:#a4c2f7;fill-rule:nonzero;"/><path d="M8.95,1.492l4.475,0c0.824,0 1.491,0.668 1.491,1.491l0,65.634c0,0.823 -0.667,1.491 -1.491,1.491l-4.475,0c-0.824,0 -1.491,-0.668 -1.491,-1.491l0,-65.634c0,-0.823 0.667,-1.491 1.491,-1.491Z" style="fill:#e3e7f2;fill-rule:nonzero;"/><path d="M2.983,88.008l4.476,0c-0.825,0 -1.492,-0.668 -1.492,-1.491l0,-71.601c0,-0.823 0.667,-1.491 1.492,-1.491l-4.476,0c-0.823,0 -1.491,0.668 -1.491,1.491l0,71.601c0,0.823 0.668,1.491 1.491,1.491Z" style="fill:#fff;fill-rule:nonzero;"/><rect x="0" y="14.912" width="2.983" height="71.6" style="fill:#fff;fill-rule:nonzero;"/><g><path d="M26.85,76.075l1.492,0c0.824,0 1.492,-0.668 1.492,-1.491c0,-0.825 -0.668,-1.492 -1.492,-1.492l-1.492,0c-0.824,0 -1.492,0.667 -1.492,1.492c0,0.823 0.668,1.491 1.492,1.491Z" style="fill:#489aff;fill-rule:nonzero;"/><path d="M44.75,73.092l-10.442,0c-0.823,0 -1.491,0.667 -1.491,1.492c0,0.823 0.668,1.491 1.491,1.491l10.442,0c0.824,0 1.492,-0.668 1.492,-1.491c0,-0.825 -0.668,-1.492 -1.492,-1.492Z" style="fill:#489aff;fill-rule:nonzero;"/><path d="M52.209,73.092l-1.492,0c-0.824,0 -1.492,0.667 -1.492,1.492c0,0.823 0.668,1.491 1.492,1.491l1.492,0c0.823,0 1.491,-0.668 1.491,-1.491c0,-0.825 -0.668,-1.492 -1.491,-1.492Z" style="fill:#489aff;fill-rule:nonzero;"/><path d="M68.617,73.092l-10.442,0c-0.824,0 -1.492,0.667 -1.492,1.492c0,0.823 0.668,1.491 1.492,1.491l10.442,0c0.823,0 1.491,-0.668 1.491,-1.491c0,-0.825 -0.668,-1.492 -1.491,-1.492Z" style="fill:#489aff;fill-rule:nonzero;"/><path d="M26.85,82.041l1.492,0c0.824,0 1.492,-0.667 1.492,-1.491c0,-0.824 -0.668,-1.492 -1.492,-1.492l-1.492,0c-0.824,0 -1.492,0.668 -1.492,1.492c0,0.824 0.668,1.491 1.492,1.491Z" style="fill:#489aff;fill-rule:nonzero;"/><path d="M44.75,79.058l-10.442,0c-0.823,0 -1.491,0.668 -1.491,1.492c0,0.824 0.668,1.491 1.491,1.491l10.442,0c0.824,0 1.492,-0.667 1.492,-1.491c0,-0.824 -0.668,-1.492 -1.492,-1.492Z" style="fill:#489aff;fill-rule:nonzero;"/><path d="M52.209,79.058l-1.492,0c-0.824,0 -1.492,0.668 -1.492,1.492c0,0.824 0.668,1.491 1.492,1.491l1.492,0c0.823,0 1.491,-0.667 1.491,-1.491c0,-0.824 -0.668,-1.492 -1.491,-1.492Z" style="fill:#489aff;fill-rule:nonzero;"/><path d="M68.617,79.058l-10.442,0c-0.824,0 -1.492,0.668 -1.492,1.492c0,0.824 0.668,1.491 1.492,1.491l10.442,0c0.823,0 1.491,-0.667 1.491,-1.491c0,-0.824 -0.668,-1.492 -1.491,-1.492Z" style="fill:#489aff;fill-rule:nonzero;"/><path d="M70.108,22.375c0,-1.648 -1.335,-2.983 -2.983,-2.983l-38.783,0c-1.648,0 -2.984,1.335 -2.984,2.983l0,23.867c0,1.648 1.336,2.983 2.984,2.983l38.783,0c1.648,0 2.983,-1.335 2.983,-2.983l0,-23.867Zm-41.766,1.068l16.66,10.865l-16.66,10.863l0,-21.728Zm3.824,-1.068l31.134,0l-15.567,10.143l-15.567,-10.143Zm15.567,13.711l15.566,10.156l-31.132,0l15.566,-10.156Zm2.732,-1.778l16.66,-10.869l0,21.733l-16.66,-10.864Z" style="fill:#489aff;fill-rule:nonzero;"/><path d="M25.358,67.125c0,1.648 1.336,2.983 2.984,2.983l14.916,0c1.648,0 2.984,-1.335 2.984,-2.983l0,-11.933c-0.002,-0.742 -0.282,-1.455 -0.785,-1.999c-0.011,-0.013 -0.012,-0.03 -0.023,-0.043c-0.013,-0.014 -0.026,-0.018 -0.037,-0.031c-0.56,-0.581 -1.331,-0.91 -2.139,-0.91l-14.916,0c-1.648,0 -2.984,1.335 -2.984,2.983l0,11.933Zm5.61,0l12.29,-10.23l0,10.23l-12.29,0Zm9.68,-11.933l-12.306,10.234l0,-10.234l12.306,0Z" style="fill:#489aff;fill-rule:nonzero;"/><path d="M70.108,55.192c-0.002,-0.742 -0.282,-1.455 -0.784,-1.999c-0.011,-0.013 -0.012,-0.03 -0.024,-0.043c-0.012,-0.014 -0.025,-0.018 -0.036,-0.031c-0.56,-0.581 -1.332,-0.91 -2.139,-0.91l-14.916,0c-1.648,0 -2.984,1.335 -2.984,2.983l0,11.933c0,1.648 1.336,2.983 2.984,2.983l14.916,0c1.648,0 2.983,-1.335 2.983,-2.983l0,-11.933Zm-5.593,0l-12.306,10.234l0,-10.234l12.306,0Zm-9.68,11.933l12.29,-10.23l0,10.23l-12.29,0Z" style="fill:#489aff;fill-rule:nonzero;"/><path d="M82.041,0c-4.116,0.005 -7.453,3.341 -7.457,7.459l0,4.474l-53.701,0l0,-8.95c0,-1.647 -1.336,-2.983 -2.983,-2.983l-8.95,0c-1.648,0 -2.983,1.336 -2.983,2.983l0,8.95l-2.984,0c-1.647,0 -2.983,1.336 -2.983,2.983l0,5.967c0,0.824 0.668,1.492 1.492,1.492c0.823,0 1.491,-0.668 1.491,-1.492l0,-5.967l2.984,0l0,53.701c0,1.648 1.335,2.983 2.983,2.983l8.95,0c1.647,0 2.983,-1.335 2.983,-2.983l0,-53.701l53.701,0l0,62.889c0.004,0.96 0.612,1.814 1.518,2.131c0.883,0.319 1.872,0.039 2.455,-0.697c1.092,-1.364 2.878,-1.968 4.574,-1.547c2.21,0.534 3.668,2.641 3.39,4.898c-0.279,2.257 -2.205,3.946 -4.48,3.927l-79.058,0l0,-53.7c0,-0.824 -0.668,-1.492 -1.491,-1.492c-0.824,0 -1.492,0.668 -1.492,1.492l0,53.7c0,1.647 1.336,2.983 2.983,2.983l79.058,0c1.975,0.005 3.871,-0.775 5.27,-2.168c1.398,-1.394 2.186,-3.286 2.189,-5.261c0,-0.01 0,-0.019 0,-0.03l0,-74.582c-0.005,-4.118 -3.341,-7.454 -7.459,-7.459Zm-73.091,68.617l0,-65.634l8.95,0l0,4.476l-2.984,0c-0.823,0 -1.491,0.667 -1.491,1.491c0,0.824 0.668,1.492 1.491,1.492l2.984,0l0,2.983l-1.492,0c-0.824,0 -1.492,0.668 -1.492,1.491c0,0.825 0.668,1.492 1.492,1.492l1.492,0l0,2.984l-1.492,0c-0.824,0 -1.492,0.668 -1.492,1.491c0,0.824 0.668,1.492 1.492,1.492l1.492,0l0,2.983l-2.984,0c-0.823,0 -1.491,0.668 -1.491,1.492c0,0.824 0.668,1.492 1.491,1.492l2.984,0l0,2.983l-1.492,0c-0.824,0 -1.492,0.668 -1.492,1.492c0,0.823 0.668,1.491 1.492,1.491l1.492,0l0,2.983l-1.492,0c-0.824,0 -1.492,0.668 -1.492,1.492c0,0.824 0.668,1.492 1.492,1.492l1.492,0l0,2.983l-2.984,0c-0.823,0 -1.491,0.669 -1.491,1.492c0,0.823 0.668,1.492 1.491,1.492l2.984,0l0,2.983l-1.492,0c-0.824,0 -1.492,0.668 -1.492,1.492c0,0.824 0.668,1.492 1.492,1.492l1.492,0l0,2.983l-1.492,0c-0.824,0 -1.492,0.668 -1.492,1.491c0,0.824 0.668,1.492 1.492,1.492l1.492,0l0,2.983l-2.984,0c-0.823,0 -1.491,0.668 -1.491,1.492c0,0.824 0.668,1.492 1.491,1.492l2.984,0l0,4.475l-8.95,0Zm74.862,6.171c-2.167,-0.531 -4.458,-0.064 -6.245,1.272l0,-68.601c0,-2.472 2.003,-4.476 4.474,-4.476c2.472,0 4.476,2.004 4.476,4.476l0,68.592c-0.805,-0.603 -1.726,-1.035 -2.705,-1.268l0,0.005Z" style="fill:#489aff;fill-rule:nonzero;"/><path d="M1.492,28.342c0.395,-0.006 0.773,-0.161 1.059,-0.433c0.576,-0.588 0.576,-1.529 0,-2.116l-0.224,-0.181c-0.083,-0.056 -0.173,-0.101 -0.268,-0.134c-0.085,-0.044 -0.175,-0.073 -0.269,-0.088c-0.099,-0.018 -0.198,-0.028 -0.298,-0.032c-0.395,0.006 -0.774,0.161 -1.059,0.435c-0.563,0.593 -0.563,1.522 0,2.116c0.142,0.135 0.309,0.241 0.492,0.313c0.179,0.077 0.372,0.118 0.567,0.12Z" style="fill:#489aff;fill-rule:nonzero;"/></g></g></svg>